%TF.GenerationSoftware,Altium Limited,Altium Designer,23.7.1 (13)*%
G04 Layer_Physical_Order=1*
G04 Layer_Color=255*
%FSLAX45Y45*%
%MOMM*%
%TF.SameCoordinates,13906D11-38DA-49B6-AFB5-B3B90C62E25A*%
%TF.FilePolarity,Positive*%
%TF.FileFunction,Copper,L1,Top,Signal*%
%TF.Part,Single*%
G01*
G75*
%TA.AperFunction,SMDPad,CuDef*%
%ADD10R,1.02000X1.92000*%
%ADD11R,0.30000X0.67000*%
%ADD12R,2.15000X2.15000*%
%ADD13R,0.30000X0.90000*%
%ADD14R,0.90000X0.30000*%
%ADD15R,0.60000X0.60000*%
%ADD16R,1.92000X1.02000*%
%TA.AperFunction,BGAPad,CuDef*%
%ADD17C,0.60000*%
%TA.AperFunction,SMDPad,CuDef*%
%ADD18R,0.25000X0.50000*%
%ADD19R,0.80000X0.90000*%
%ADD20R,0.42000X0.46000*%
%ADD21R,0.95000X0.85000*%
%ADD22R,0.87000X0.30000*%
%ADD23R,1.25000X1.80000*%
%ADD24R,0.85000X0.95000*%
%ADD25R,0.99000X0.81000*%
%TA.AperFunction,Conductor*%
%ADD26C,0.20000*%
%ADD27C,0.40000*%
%ADD28C,0.60000*%
%ADD29C,0.30000*%
%ADD30C,0.50000*%
%ADD31C,0.21000*%
%ADD32C,0.38100*%
%ADD33R,3.81000X3.55600*%
%TA.AperFunction,ComponentPad*%
%ADD34C,0.44500*%
%ADD35C,0.26000*%
%ADD36C,1.46000*%
%ADD37C,1.44600*%
%ADD38C,1.65000*%
%ADD39R,1.65000X1.65000*%
%ADD40R,1.40000X1.40000*%
%TA.AperFunction,ViaPad*%
%ADD41C,0.50000*%
%ADD42C,0.65000*%
%ADD43C,0.90000*%
G36*
X10922000Y9029700D02*
Y5905500D01*
X10414000Y5397500D01*
Y2794000D01*
X10160000Y2540000D01*
X7874000D01*
Y5397500D01*
X7366000Y5905500D01*
Y9029700D01*
X8128000Y9791700D01*
X10160000D01*
X10922000Y9029700D01*
D02*
G37*
%LPC*%
G36*
X10045862Y9635400D02*
X10045700D01*
Y9550400D01*
X10130700D01*
Y9550562D01*
X10124042Y9575411D01*
X10111179Y9597689D01*
X10092989Y9615879D01*
X10070711Y9628742D01*
X10045862Y9635400D01*
D02*
G37*
G36*
X10020300D02*
X10020138D01*
X9995289Y9628742D01*
X9973011Y9615879D01*
X9954821Y9597689D01*
X9941958Y9575411D01*
X9935300Y9550562D01*
Y9550400D01*
X10020300D01*
Y9635400D01*
D02*
G37*
G36*
X9791862D02*
X9791700D01*
Y9550400D01*
X9876700D01*
Y9550562D01*
X9870042Y9575411D01*
X9857179Y9597689D01*
X9838989Y9615879D01*
X9816711Y9628742D01*
X9791862Y9635400D01*
D02*
G37*
G36*
X9766300D02*
X9766138D01*
X9741289Y9628742D01*
X9719011Y9615879D01*
X9700821Y9597689D01*
X9687958Y9575411D01*
X9681300Y9550562D01*
Y9550400D01*
X9766300D01*
Y9635400D01*
D02*
G37*
G36*
X8521862D02*
X8521700D01*
Y9550400D01*
X8606700D01*
Y9550562D01*
X8600042Y9575411D01*
X8587179Y9597689D01*
X8568989Y9615879D01*
X8546711Y9628742D01*
X8521862Y9635400D01*
D02*
G37*
G36*
X8496300D02*
X8496138D01*
X8471289Y9628742D01*
X8449011Y9615879D01*
X8430821Y9597689D01*
X8417958Y9575411D01*
X8411300Y9550562D01*
Y9550400D01*
X8496300D01*
Y9635400D01*
D02*
G37*
G36*
X8267862D02*
X8267700D01*
Y9550400D01*
X8352700D01*
Y9550562D01*
X8346042Y9575411D01*
X8333179Y9597689D01*
X8314989Y9615879D01*
X8292711Y9628742D01*
X8267862Y9635400D01*
D02*
G37*
G36*
X8242300D02*
X8242138D01*
X8217289Y9628742D01*
X8195011Y9615879D01*
X8176821Y9597689D01*
X8163958Y9575411D01*
X8157300Y9550562D01*
Y9550400D01*
X8242300D01*
Y9635400D01*
D02*
G37*
G36*
X8496300Y9525000D02*
X8411300D01*
Y9524838D01*
X8415135Y9510526D01*
X8404766Y9500156D01*
X8394152Y9503000D01*
X8369848D01*
X8359234Y9500156D01*
X8348865Y9510526D01*
X8352700Y9524838D01*
Y9525000D01*
X8267700D01*
Y9440000D01*
X8267862D01*
X8282174Y9443835D01*
X8292544Y9433466D01*
X8289700Y9422852D01*
Y9398548D01*
X8292544Y9387934D01*
X8282174Y9377565D01*
X8267862Y9381400D01*
X8267700D01*
Y9283700D01*
Y9186000D01*
X8267862D01*
X8292711Y9192658D01*
X8314989Y9205521D01*
X8333179Y9223711D01*
X8337943Y9231961D01*
X8350643Y9228559D01*
Y9183920D01*
X8348980D01*
Y9093920D01*
X8370002D01*
X8392711Y9071211D01*
X8402800Y9064470D01*
X8414700Y9062103D01*
X9847280D01*
Y9038360D01*
X9874903D01*
Y8905214D01*
X9862612Y8892923D01*
X9855000Y8874546D01*
Y8854654D01*
X9862612Y8836277D01*
X9876677Y8822212D01*
X9895054Y8814600D01*
X9914946D01*
X9933323Y8822212D01*
X9947388Y8836277D01*
X9955000Y8854654D01*
Y8874546D01*
X9947388Y8892923D01*
X9937097Y8903214D01*
Y9038360D01*
X9967280D01*
Y9168360D01*
X9847280D01*
Y9124297D01*
X8427581D01*
X8413980Y9137898D01*
Y9183920D01*
X8412837D01*
Y9229459D01*
X8425537Y9232862D01*
X8430821Y9223711D01*
X8449011Y9205521D01*
X8471289Y9192658D01*
X8496138Y9186000D01*
X8496300D01*
Y9283700D01*
Y9381400D01*
X8496138D01*
X8481826Y9377565D01*
X8471456Y9387934D01*
X8474300Y9398548D01*
Y9422852D01*
X8471456Y9433466D01*
X8481826Y9443835D01*
X8496138Y9440000D01*
X8496300D01*
Y9525000D01*
D02*
G37*
G36*
X10130700D02*
X9935300D01*
Y9524838D01*
X9939135Y9510526D01*
X9928766Y9500156D01*
X9918152Y9503000D01*
X9893848D01*
X9883234Y9500156D01*
X9872865Y9510526D01*
X9876700Y9524838D01*
Y9525000D01*
X9791700D01*
Y9440000D01*
X9791862D01*
X9806174Y9443835D01*
X9816544Y9433466D01*
X9813700Y9422852D01*
Y9398548D01*
X9816544Y9387934D01*
X9806174Y9377565D01*
X9791862Y9381400D01*
X9791700D01*
Y9296400D01*
X9876700D01*
Y9296562D01*
X9872865Y9310874D01*
X9883234Y9321244D01*
X9893848Y9318400D01*
X9918152D01*
X9928766Y9321244D01*
X9939135Y9310874D01*
X9935300Y9296562D01*
Y9296400D01*
X10130700D01*
Y9296562D01*
X10124042Y9321411D01*
X10111179Y9343689D01*
X10092989Y9361879D01*
X10084288Y9366903D01*
X10087691Y9379603D01*
X10350319D01*
X10549829Y9180093D01*
X10544968Y9168360D01*
X10451800D01*
Y9134477D01*
X10340700D01*
Y9146380D01*
X10258700D01*
Y9134477D01*
X10127280D01*
Y9168360D01*
X10007280D01*
Y9038360D01*
X10127280D01*
Y9072283D01*
X10258700D01*
Y9060380D01*
X10340700D01*
Y9072283D01*
X10451800D01*
Y9038360D01*
X10571800D01*
Y9141529D01*
X10583533Y9146389D01*
X10611800Y9118122D01*
Y9038360D01*
X10691562D01*
X10751203Y8978719D01*
Y8572681D01*
X10693219Y8514697D01*
X10579614D01*
X10568323Y8525988D01*
X10549946Y8533600D01*
X10530054D01*
X10511677Y8525988D01*
X10497612Y8511923D01*
X10490000Y8493546D01*
Y8473654D01*
X10497612Y8455277D01*
X10511677Y8441212D01*
X10530054Y8433600D01*
X10549946D01*
X10568323Y8441212D01*
X10579614Y8452503D01*
X10706100D01*
X10718000Y8454870D01*
X10728089Y8461611D01*
X10804289Y8537811D01*
X10811030Y8547900D01*
X10813397Y8559800D01*
Y8991600D01*
X10811030Y9003500D01*
X10804289Y9013589D01*
X10731800Y9086078D01*
Y9168360D01*
X10649518D01*
X10385189Y9432689D01*
X10375100Y9439430D01*
X10363200Y9441797D01*
X10087691D01*
X10084288Y9454497D01*
X10092989Y9459521D01*
X10111179Y9477711D01*
X10124042Y9499989D01*
X10130700Y9524838D01*
Y9525000D01*
D02*
G37*
G36*
X9766300D02*
X9681300D01*
Y9524838D01*
X9687958Y9499989D01*
X9700821Y9477711D01*
X9719011Y9459521D01*
X9741289Y9446658D01*
X9766138Y9440000D01*
X9766300D01*
Y9525000D01*
D02*
G37*
G36*
X8606700D02*
X8521700D01*
Y9440000D01*
X8521862D01*
X8546711Y9446658D01*
X8568989Y9459521D01*
X8587179Y9477711D01*
X8600042Y9499989D01*
X8606700Y9524838D01*
Y9525000D01*
D02*
G37*
G36*
X8242300D02*
X8157300D01*
Y9524838D01*
X8163958Y9499989D01*
X8176821Y9477711D01*
X8195011Y9459521D01*
X8217289Y9446658D01*
X8242138Y9440000D01*
X8242300D01*
Y9525000D01*
D02*
G37*
G36*
X9766300Y9381400D02*
X9766138D01*
X9741289Y9374742D01*
X9719011Y9361879D01*
X9700821Y9343689D01*
X9687958Y9321411D01*
X9681300Y9296562D01*
Y9296400D01*
X9766300D01*
Y9381400D01*
D02*
G37*
G36*
X8521862D02*
X8521700D01*
Y9296400D01*
X8606700D01*
Y9296562D01*
X8600042Y9321411D01*
X8587179Y9343689D01*
X8568989Y9361879D01*
X8546711Y9374742D01*
X8521862Y9381400D01*
D02*
G37*
G36*
X8242300D02*
X8242138D01*
X8217289Y9374742D01*
X8195011Y9361879D01*
X8176821Y9343689D01*
X8163958Y9321411D01*
X8157300Y9296562D01*
Y9296400D01*
X8242300D01*
Y9381400D01*
D02*
G37*
G36*
X10130700Y9271000D02*
X10045700D01*
Y9186000D01*
X10045862D01*
X10070711Y9192658D01*
X10092989Y9205521D01*
X10111179Y9223711D01*
X10124042Y9245989D01*
X10130700Y9270838D01*
Y9271000D01*
D02*
G37*
G36*
X10020300D02*
X9935300D01*
Y9270838D01*
X9941958Y9245989D01*
X9954821Y9223711D01*
X9973011Y9205521D01*
X9995289Y9192658D01*
X10020138Y9186000D01*
X10020300D01*
Y9271000D01*
D02*
G37*
G36*
X9876700D02*
X9791700D01*
Y9186000D01*
X9791862D01*
X9816711Y9192658D01*
X9838989Y9205521D01*
X9857179Y9223711D01*
X9870042Y9245989D01*
X9876700Y9270838D01*
Y9271000D01*
D02*
G37*
G36*
X9766300D02*
X9681300D01*
Y9270838D01*
X9687958Y9245989D01*
X9700821Y9223711D01*
X9719011Y9205521D01*
X9741289Y9192658D01*
X9766138Y9186000D01*
X9766300D01*
Y9271000D01*
D02*
G37*
G36*
X8606700D02*
X8521700D01*
Y9186000D01*
X8521862D01*
X8546711Y9192658D01*
X8568989Y9205521D01*
X8587179Y9223711D01*
X8600042Y9245989D01*
X8606700Y9270838D01*
Y9271000D01*
D02*
G37*
G36*
X8242300D02*
X8157300D01*
Y9270838D01*
X8163958Y9245989D01*
X8176821Y9223711D01*
X8195011Y9205521D01*
X8217289Y9192658D01*
X8242138Y9186000D01*
X8242300D01*
Y9271000D01*
D02*
G37*
G36*
X9279946Y8914600D02*
X9260054D01*
X9241677Y8906988D01*
X9234975Y8900286D01*
X9178025D01*
X9171323Y8906988D01*
X9152946Y8914600D01*
X9133054D01*
X9114677Y8906988D01*
X9100612Y8892923D01*
X9093000Y8874546D01*
Y8854654D01*
X9100612Y8836277D01*
X9114677Y8822212D01*
X9133054Y8814600D01*
X9152946D01*
X9171323Y8822212D01*
X9178025Y8828914D01*
X9234975D01*
X9241677Y8822212D01*
X9260054Y8814600D01*
X9279946D01*
X9298323Y8822212D01*
X9312388Y8836277D01*
X9320000Y8854654D01*
Y8874546D01*
X9312388Y8892923D01*
X9298323Y8906988D01*
X9279946Y8914600D01*
D02*
G37*
G36*
X9524000Y8916580D02*
X9504491Y8912699D01*
X9496379Y8907279D01*
X9495677Y8906988D01*
X9495140Y8906451D01*
X9487952Y8901648D01*
X9483149Y8894460D01*
X9481612Y8892923D01*
X9480780Y8890914D01*
X9476901Y8885109D01*
X9475977Y8880464D01*
X9461500Y8865987D01*
X9445526Y8881960D01*
X9445099Y8884109D01*
X9439679Y8892221D01*
X9439388Y8892923D01*
X9438851Y8893460D01*
X9434048Y8900648D01*
X9426860Y8905451D01*
X9425323Y8906988D01*
X9423314Y8907820D01*
X9417509Y8911699D01*
X9410660Y8913061D01*
X9406946Y8914600D01*
X9402925D01*
X9398000Y8915580D01*
X9397000D01*
X9392075Y8914600D01*
X9387054D01*
X9382416Y8912679D01*
X9377491Y8911699D01*
X9373317Y8908910D01*
X9368677Y8906988D01*
X9365126Y8903437D01*
X9360952Y8900648D01*
X9358163Y8896474D01*
X9354612Y8892923D01*
X9352690Y8888283D01*
X9349901Y8884109D01*
X9348921Y8879184D01*
X9347000Y8874546D01*
Y8869525D01*
X9346020Y8864600D01*
X9347000Y8859675D01*
Y8854654D01*
X9348921Y8850016D01*
X9349901Y8845091D01*
X9352690Y8840917D01*
X9354612Y8836277D01*
X9358163Y8832726D01*
X9360952Y8828552D01*
X9365126Y8825763D01*
X9368677Y8822212D01*
X9373317Y8820290D01*
X9377491Y8817501D01*
X9380889Y8816825D01*
X9410374Y8787340D01*
X9416993Y8771361D01*
X9431761Y8756593D01*
X9451057Y8748600D01*
X9471943D01*
X9491239Y8756593D01*
X9506007Y8771361D01*
X9512626Y8787340D01*
X9541360Y8816074D01*
X9543509Y8816501D01*
X9551620Y8821921D01*
X9552323Y8822212D01*
X9552861Y8822750D01*
X9560048Y8827552D01*
X9564850Y8834740D01*
X9566388Y8836277D01*
X9567220Y8838286D01*
X9571099Y8844091D01*
X9572461Y8850939D01*
X9574000Y8854654D01*
Y8858675D01*
X9574980Y8863600D01*
Y8865600D01*
X9574000Y8870525D01*
Y8874546D01*
X9572461Y8878260D01*
X9571099Y8885109D01*
X9567220Y8890914D01*
X9566388Y8892923D01*
X9564851Y8894460D01*
X9560048Y8901648D01*
X9552860Y8906451D01*
X9552323Y8906988D01*
X9551621Y8907279D01*
X9543509Y8912699D01*
X9524000Y8916580D01*
D02*
G37*
G36*
X7882946Y8914600D02*
X7863054D01*
X7844677Y8906988D01*
X7830612Y8892923D01*
X7823000Y8874546D01*
Y8854654D01*
X7830612Y8836277D01*
X7844677Y8822212D01*
X7863054Y8814600D01*
X7882946D01*
X7901323Y8822212D01*
X7915388Y8836277D01*
X7923000Y8854654D01*
Y8874546D01*
X7915388Y8892923D01*
X7901323Y8906988D01*
X7882946Y8914600D01*
D02*
G37*
G36*
X8517946Y8787600D02*
X8498054D01*
X8479677Y8779988D01*
X8465612Y8765923D01*
X8458000Y8747546D01*
Y8727654D01*
X8465612Y8709277D01*
X8479677Y8695212D01*
X8498054Y8687600D01*
X8517946D01*
X8536323Y8695212D01*
X8550388Y8709277D01*
X8558000Y8727654D01*
Y8747546D01*
X8550388Y8765923D01*
X8536323Y8779988D01*
X8517946Y8787600D01*
D02*
G37*
G36*
X8009946D02*
X7990054D01*
X7971677Y8779988D01*
X7957612Y8765923D01*
X7950000Y8747546D01*
Y8727654D01*
X7957612Y8709277D01*
X7971677Y8695212D01*
X7990054Y8687600D01*
X8009946D01*
X8028323Y8695212D01*
X8042388Y8709277D01*
X8050000Y8727654D01*
Y8747546D01*
X8042388Y8765923D01*
X8028323Y8779988D01*
X8009946Y8787600D01*
D02*
G37*
G36*
X7882946D02*
X7863054D01*
X7844677Y8779988D01*
X7830612Y8765923D01*
X7823000Y8747546D01*
Y8727654D01*
X7830612Y8709277D01*
X7844677Y8695212D01*
X7863054Y8687600D01*
X7882946D01*
X7901323Y8695212D01*
X7915388Y8709277D01*
X7923000Y8727654D01*
Y8747546D01*
X7915388Y8765923D01*
X7901323Y8779988D01*
X7882946Y8787600D01*
D02*
G37*
G36*
X8009946Y8660600D02*
X7990054D01*
X7971677Y8652988D01*
X7957612Y8638923D01*
X7950000Y8620546D01*
Y8600654D01*
X7957612Y8582277D01*
X7971677Y8568212D01*
X7973416Y8567492D01*
X7970889Y8554792D01*
X7696200D01*
X7688396Y8553240D01*
X7681781Y8548819D01*
X7677360Y8542204D01*
X7675808Y8534400D01*
Y8178800D01*
X7677360Y8170996D01*
X7681781Y8164381D01*
X7688396Y8159960D01*
X7696200Y8158408D01*
X8077200D01*
X8085004Y8159960D01*
X8091619Y8164381D01*
X8096040Y8170996D01*
X8097556Y8178620D01*
X8290256D01*
X8291289Y8177587D01*
X8306111Y8169030D01*
X8322642Y8164600D01*
X8339758D01*
X8356289Y8169030D01*
X8371111Y8177587D01*
X8383213Y8189689D01*
X8391770Y8204511D01*
X8396200Y8221042D01*
Y8238158D01*
X8391770Y8254689D01*
X8383213Y8269511D01*
X8371111Y8281613D01*
X8356289Y8290170D01*
X8339758Y8294600D01*
X8322642D01*
X8306111Y8290170D01*
X8291289Y8281613D01*
X8290256Y8280580D01*
X8097592D01*
Y8534400D01*
X8096040Y8542204D01*
X8091619Y8548819D01*
X8085004Y8553240D01*
X8077200Y8554792D01*
X8029111D01*
X8026584Y8567492D01*
X8028323Y8568212D01*
X8042388Y8582277D01*
X8050000Y8600654D01*
Y8620546D01*
X8042388Y8638923D01*
X8028323Y8652988D01*
X8009946Y8660600D01*
D02*
G37*
G36*
X10549946Y8152600D02*
X10530054D01*
X10511677Y8144988D01*
X10497612Y8130923D01*
X10490000Y8112546D01*
Y8092654D01*
X10497612Y8074277D01*
X10504314Y8067575D01*
Y8010625D01*
X10497612Y8003923D01*
X10490000Y7985546D01*
Y7965654D01*
X10497612Y7947277D01*
X10511677Y7933212D01*
X10530054Y7925600D01*
X10549946D01*
X10568323Y7933212D01*
X10582388Y7947277D01*
X10590000Y7965654D01*
Y7985546D01*
X10582388Y8003923D01*
X10575686Y8010625D01*
Y8067575D01*
X10582388Y8074277D01*
X10590000Y8092654D01*
Y8112546D01*
X10582388Y8130923D01*
X10568323Y8144988D01*
X10549946Y8152600D01*
D02*
G37*
G36*
X7882946Y8025600D02*
X7863054D01*
X7844677Y8017988D01*
X7830612Y8003923D01*
X7823000Y7985546D01*
Y7965654D01*
X7830612Y7947277D01*
X7844677Y7933212D01*
X7863054Y7925600D01*
X7882946D01*
X7901323Y7933212D01*
X7915388Y7947277D01*
X7923000Y7965654D01*
Y7985546D01*
X7915388Y8003923D01*
X7901323Y8017988D01*
X7882946Y8025600D01*
D02*
G37*
G36*
Y7898600D02*
X7863054D01*
X7844677Y7890988D01*
X7830612Y7876923D01*
X7823000Y7858546D01*
Y7838654D01*
X7830612Y7820277D01*
X7844677Y7806212D01*
X7863054Y7798600D01*
X7882946D01*
X7901323Y7806212D01*
X7915388Y7820277D01*
X7923000Y7838654D01*
Y7858546D01*
X7915388Y7876923D01*
X7901323Y7890988D01*
X7882946Y7898600D01*
D02*
G37*
G36*
X10549946Y7771600D02*
X10530054D01*
X10511677Y7763988D01*
X10497612Y7749923D01*
X10490000Y7731546D01*
Y7711654D01*
X10497612Y7693277D01*
X10511677Y7679212D01*
X10530054Y7671600D01*
X10549946D01*
X10568323Y7679212D01*
X10582388Y7693277D01*
X10590000Y7711654D01*
Y7731546D01*
X10582388Y7749923D01*
X10568323Y7763988D01*
X10549946Y7771600D01*
D02*
G37*
G36*
X8009946D02*
X7990054D01*
X7971677Y7763988D01*
X7957612Y7749923D01*
X7950000Y7731546D01*
Y7711654D01*
X7957612Y7693277D01*
X7971677Y7679212D01*
X7990054Y7671600D01*
X8009946D01*
X8028323Y7679212D01*
X8042388Y7693277D01*
X8050000Y7711654D01*
Y7731546D01*
X8042388Y7749923D01*
X8028323Y7763988D01*
X8009946Y7771600D01*
D02*
G37*
G36*
X7882946D02*
X7863054D01*
X7844677Y7763988D01*
X7830612Y7749923D01*
X7823000Y7731546D01*
Y7711654D01*
X7830612Y7693277D01*
X7844677Y7679212D01*
X7863054Y7671600D01*
X7882946D01*
X7901323Y7679212D01*
X7915388Y7693277D01*
X7923000Y7711654D01*
Y7731546D01*
X7915388Y7749923D01*
X7901323Y7763988D01*
X7882946Y7771600D01*
D02*
G37*
G36*
X10549946Y7517600D02*
X10530054D01*
X10511677Y7509988D01*
X10497612Y7495923D01*
X10490000Y7477546D01*
Y7457654D01*
X10497612Y7439277D01*
X10511677Y7425212D01*
X10530054Y7417600D01*
X10549946D01*
X10568323Y7425212D01*
X10582388Y7439277D01*
X10590000Y7457654D01*
Y7477546D01*
X10582388Y7495923D01*
X10568323Y7509988D01*
X10549946Y7517600D01*
D02*
G37*
G36*
X10422946D02*
X10403054D01*
X10384677Y7509988D01*
X10370612Y7495923D01*
X10363000Y7477546D01*
Y7457654D01*
X10370612Y7439277D01*
X10384677Y7425212D01*
X10403054Y7417600D01*
X10422946D01*
X10441323Y7425212D01*
X10455388Y7439277D01*
X10463000Y7457654D01*
Y7477546D01*
X10455388Y7495923D01*
X10441323Y7509988D01*
X10422946Y7517600D01*
D02*
G37*
G36*
X10295946D02*
X10276054D01*
X10257677Y7509988D01*
X10243612Y7495923D01*
X10236000Y7477546D01*
Y7457654D01*
X10243612Y7439277D01*
X10257677Y7425212D01*
X10276054Y7417600D01*
X10295946D01*
X10314323Y7425212D01*
X10328388Y7439277D01*
X10336000Y7457654D01*
Y7477546D01*
X10328388Y7495923D01*
X10314323Y7509988D01*
X10295946Y7517600D01*
D02*
G37*
G36*
X7755946Y7771600D02*
X7736054D01*
X7717677Y7763988D01*
X7703612Y7749923D01*
X7696000Y7731546D01*
Y7714858D01*
X7661871Y7680729D01*
X7655241Y7670805D01*
X7652912Y7659100D01*
X7652912Y7659099D01*
Y7569201D01*
X7652912Y7569200D01*
X7655241Y7557495D01*
X7661871Y7547571D01*
X7699971Y7509471D01*
X7703612Y7495923D01*
X7702640Y7493576D01*
X7696000Y7477546D01*
Y7457654D01*
X7703612Y7439277D01*
X7717677Y7425212D01*
X7736054Y7417600D01*
X7755946D01*
X7774323Y7425212D01*
X7788388Y7439277D01*
X7796000Y7457654D01*
Y7477546D01*
X7791747Y7487812D01*
X7800234Y7500512D01*
X7818766D01*
X7827253Y7487812D01*
X7823000Y7477546D01*
Y7457654D01*
X7830612Y7439277D01*
X7844677Y7425212D01*
X7863054Y7417600D01*
X7882946D01*
X7901323Y7425212D01*
X7915388Y7439277D01*
X7923000Y7457654D01*
Y7477546D01*
X7918747Y7487812D01*
X7927234Y7500512D01*
X7945766D01*
X7954253Y7487812D01*
X7950000Y7477546D01*
Y7457654D01*
X7957612Y7439277D01*
X7971677Y7425212D01*
X7990054Y7417600D01*
X8009946D01*
X8021212Y7422267D01*
X8033912Y7414208D01*
Y7393992D01*
X8021212Y7385933D01*
X8009946Y7390600D01*
X7990054D01*
X7971677Y7382988D01*
X7957612Y7368923D01*
X7950000Y7350546D01*
Y7330654D01*
X7957612Y7312277D01*
X7971677Y7298212D01*
X7990054Y7290600D01*
X8009946D01*
X8021212Y7295267D01*
X8033912Y7287208D01*
Y7266992D01*
X8021212Y7258933D01*
X8009946Y7263600D01*
X7990054D01*
X7971677Y7255988D01*
X7957612Y7241923D01*
X7950000Y7223546D01*
Y7203654D01*
X7957612Y7185277D01*
X7971677Y7171212D01*
X7990054Y7163600D01*
X8009946D01*
X8021212Y7168267D01*
X8033912Y7160208D01*
Y7139992D01*
X8021212Y7131933D01*
X8009946Y7136600D01*
X7990054D01*
X7971677Y7128988D01*
X7957612Y7114923D01*
X7950000Y7096546D01*
Y7087333D01*
X7948098Y7076484D01*
X7938267Y7075600D01*
X7934733D01*
X7926811Y7076312D01*
X7923000Y7087333D01*
Y7096546D01*
X7915388Y7114923D01*
X7901323Y7128988D01*
X7882946Y7136600D01*
X7863054D01*
X7844677Y7128988D01*
X7830612Y7114923D01*
X7823000Y7096546D01*
Y7076654D01*
X7830612Y7058277D01*
X7844677Y7044212D01*
X7863054Y7036600D01*
X7873267D01*
X7883408Y7033957D01*
X7885000Y7024867D01*
Y7021567D01*
X7873033Y7009600D01*
X7863054D01*
X7844677Y7001988D01*
X7830612Y6987923D01*
X7823000Y6969546D01*
Y6949654D01*
X7830612Y6931277D01*
X7844677Y6917212D01*
X7863054Y6909600D01*
X7882946D01*
X7901323Y6917212D01*
X7915388Y6931277D01*
X7923000Y6949654D01*
Y6958633D01*
X7934967Y6970600D01*
X7938267D01*
X7948098Y6969716D01*
X7950000Y6958867D01*
Y6949654D01*
X7957612Y6931277D01*
X7971677Y6917212D01*
X7990054Y6909600D01*
X8009946D01*
X8021212Y6914267D01*
X8033912Y6906208D01*
Y6758992D01*
X8021212Y6750933D01*
X8009946Y6755600D01*
X7990054D01*
X7971677Y6747988D01*
X7957612Y6733923D01*
X7950000Y6715546D01*
Y6695654D01*
X7957612Y6677277D01*
X7971677Y6663212D01*
X7990054Y6655600D01*
X8009946D01*
X8021212Y6660267D01*
X8033912Y6652208D01*
Y6631992D01*
X8021212Y6623933D01*
X8009946Y6628600D01*
X7990054D01*
X7971677Y6620988D01*
X7957612Y6606923D01*
X7950000Y6588546D01*
Y6568654D01*
X7957612Y6550277D01*
X7971677Y6536212D01*
X7990054Y6528600D01*
X8009946D01*
X8021212Y6533267D01*
X8033912Y6525208D01*
Y6377992D01*
X8021212Y6369933D01*
X8009946Y6374600D01*
X7990054D01*
X7971677Y6366988D01*
X7957612Y6352923D01*
X7950000Y6334546D01*
Y6314654D01*
X7957612Y6296277D01*
X7971677Y6282212D01*
X7990054Y6274600D01*
X8009946D01*
X8021212Y6279267D01*
X8033912Y6271208D01*
Y6250992D01*
X8021212Y6242933D01*
X8009946Y6247600D01*
X7990054D01*
X7971677Y6239988D01*
X7957612Y6225923D01*
X7950000Y6207546D01*
Y6187654D01*
X7957612Y6169277D01*
X7971677Y6155212D01*
X7990054Y6147600D01*
X8009946D01*
X8021212Y6152267D01*
X8033912Y6144208D01*
Y6123992D01*
X8021212Y6115933D01*
X8009946Y6120600D01*
X7990054D01*
X7971677Y6112988D01*
X7957612Y6098923D01*
X7950000Y6080546D01*
Y6060654D01*
X7957612Y6042277D01*
X7971677Y6028212D01*
X7990054Y6020600D01*
X8009946D01*
X8021212Y6025267D01*
X8033912Y6017208D01*
Y5913121D01*
X8033912Y5913120D01*
X8036241Y5901415D01*
X8042871Y5891491D01*
X8103831Y5830532D01*
X8103831Y5830531D01*
X8113755Y5823901D01*
X8125460Y5821572D01*
X8544528D01*
X8552090Y5814011D01*
X8568629Y5807160D01*
X8586531D01*
X8603070Y5814011D01*
X8615729Y5826670D01*
X8622580Y5843209D01*
Y5861111D01*
X8615729Y5877650D01*
X8603070Y5890309D01*
X8586531Y5897160D01*
X8568629D01*
X8552090Y5890309D01*
X8544528Y5882748D01*
X8138130D01*
X8095088Y5925790D01*
Y6015952D01*
X8107788Y6024438D01*
X8117054Y6020600D01*
X8136946D01*
X8155323Y6028212D01*
X8169388Y6042277D01*
X8177000Y6060654D01*
Y6080546D01*
X8169388Y6098923D01*
X8155323Y6112988D01*
X8136946Y6120600D01*
X8117054D01*
X8107788Y6116762D01*
X8095088Y6125248D01*
Y6269952D01*
X8107788Y6278438D01*
X8117054Y6274600D01*
X8136946D01*
X8155323Y6282212D01*
X8169388Y6296277D01*
X8177000Y6314654D01*
Y6334546D01*
X8169388Y6352923D01*
X8155323Y6366988D01*
X8136946Y6374600D01*
X8117054D01*
X8107788Y6370762D01*
X8095088Y6379248D01*
Y7492999D01*
X8095088Y7493000D01*
X8092759Y7504705D01*
X8086129Y7514629D01*
X8048029Y7552729D01*
X8047293Y7553221D01*
X8042388Y7566277D01*
X8050000Y7584654D01*
Y7604546D01*
X8042388Y7622923D01*
X8028323Y7636988D01*
X8009946Y7644600D01*
X7990054D01*
X7971677Y7636988D01*
X7957612Y7622923D01*
X7950000Y7604546D01*
Y7584654D01*
X7954253Y7574388D01*
X7945766Y7561688D01*
X7800234D01*
X7791747Y7574388D01*
X7796000Y7584654D01*
Y7604546D01*
X7788388Y7622923D01*
X7774323Y7636988D01*
X7755946Y7644600D01*
X7736054D01*
X7726788Y7640762D01*
X7725521Y7641327D01*
X7718897Y7651240D01*
X7739258Y7671600D01*
X7755946D01*
X7774323Y7679212D01*
X7788388Y7693277D01*
X7796000Y7711654D01*
Y7731546D01*
X7788388Y7749923D01*
X7774323Y7763988D01*
X7755946Y7771600D01*
D02*
G37*
G36*
Y7390600D02*
X7736054D01*
X7717677Y7382988D01*
X7705877Y7371188D01*
X7569201D01*
X7569200Y7371188D01*
X7557495Y7368859D01*
X7547571Y7362229D01*
X7547571Y7362228D01*
X7458671Y7273329D01*
X7452041Y7263405D01*
X7449712Y7251700D01*
X7449712Y7251699D01*
Y5969001D01*
X7449712Y5969000D01*
X7452041Y5957295D01*
X7458671Y5947371D01*
X8135512Y5270530D01*
Y4622770D01*
X8048245Y4535502D01*
X8039563Y4540515D01*
X8013494Y4547500D01*
X7986505D01*
X7960436Y4540515D01*
X7937063Y4527020D01*
X7917979Y4507936D01*
X7904485Y4484564D01*
X7897500Y4458494D01*
Y4431506D01*
X7904485Y4405436D01*
X7917979Y4382064D01*
X7937063Y4362980D01*
X7960436Y4349485D01*
X7986505Y4342500D01*
X8013494D01*
X8039563Y4349485D01*
X8062936Y4362980D01*
X8082020Y4382064D01*
X8095514Y4405436D01*
X8102499Y4431506D01*
Y4458494D01*
X8095514Y4484564D01*
X8091234Y4491977D01*
X8187728Y4588471D01*
X8187729Y4588471D01*
X8194359Y4598395D01*
X8196688Y4610100D01*
X8196688Y4610101D01*
Y5283199D01*
X8196688Y5283200D01*
X8194359Y5294905D01*
X8187729Y5304829D01*
X8187728Y5304829D01*
X7510888Y5981670D01*
Y7239030D01*
X7581870Y7310012D01*
X7705877D01*
X7717677Y7298212D01*
X7736054Y7290600D01*
X7755946D01*
X7774323Y7298212D01*
X7788388Y7312277D01*
X7796000Y7330654D01*
Y7350546D01*
X7788388Y7368923D01*
X7774323Y7382988D01*
X7755946Y7390600D01*
D02*
G37*
G36*
X10549946D02*
X10530054D01*
X10511677Y7382988D01*
X10497612Y7368923D01*
X10490000Y7350546D01*
Y7330654D01*
X10497612Y7312277D01*
X10511677Y7298212D01*
X10530054Y7290600D01*
X10549946D01*
X10568323Y7298212D01*
X10582388Y7312277D01*
X10590000Y7330654D01*
Y7350546D01*
X10582388Y7368923D01*
X10568323Y7382988D01*
X10549946Y7390600D01*
D02*
G37*
G36*
X10422946D02*
X10403054D01*
X10384677Y7382988D01*
X10370612Y7368923D01*
X10363000Y7350546D01*
Y7330654D01*
X10370612Y7312277D01*
X10384677Y7298212D01*
X10403054Y7290600D01*
X10422946D01*
X10441323Y7298212D01*
X10455388Y7312277D01*
X10463000Y7330654D01*
Y7350546D01*
X10455388Y7368923D01*
X10441323Y7382988D01*
X10422946Y7390600D01*
D02*
G37*
G36*
X10295946D02*
X10276054D01*
X10257677Y7382988D01*
X10243612Y7368923D01*
X10236000Y7350546D01*
Y7330654D01*
X10243612Y7312277D01*
X10257677Y7298212D01*
X10276054Y7290600D01*
X10295946D01*
X10314323Y7298212D01*
X10328388Y7312277D01*
X10336000Y7330654D01*
Y7350546D01*
X10328388Y7368923D01*
X10314323Y7382988D01*
X10295946Y7390600D01*
D02*
G37*
G36*
X7882946D02*
X7863054D01*
X7844677Y7382988D01*
X7830612Y7368923D01*
X7823000Y7350546D01*
Y7330654D01*
X7830612Y7312277D01*
X7844677Y7298212D01*
X7863054Y7290600D01*
X7882946D01*
X7901323Y7298212D01*
X7915388Y7312277D01*
X7923000Y7330654D01*
Y7350546D01*
X7915388Y7368923D01*
X7901323Y7382988D01*
X7882946Y7390600D01*
D02*
G37*
G36*
X10549946Y7263600D02*
X10530054D01*
X10511677Y7255988D01*
X10497612Y7241923D01*
X10490000Y7223546D01*
Y7203654D01*
X10497612Y7185277D01*
X10511677Y7171212D01*
X10530054Y7163600D01*
X10549946D01*
X10568323Y7171212D01*
X10582388Y7185277D01*
X10590000Y7203654D01*
Y7223546D01*
X10582388Y7241923D01*
X10568323Y7255988D01*
X10549946Y7263600D01*
D02*
G37*
G36*
X10422946D02*
X10403054D01*
X10384677Y7255988D01*
X10370612Y7241923D01*
X10363000Y7223546D01*
Y7203654D01*
X10370612Y7185277D01*
X10384677Y7171212D01*
X10403054Y7163600D01*
X10422946D01*
X10441323Y7171212D01*
X10455388Y7185277D01*
X10463000Y7203654D01*
Y7223546D01*
X10455388Y7241923D01*
X10441323Y7255988D01*
X10422946Y7263600D01*
D02*
G37*
G36*
X10295946D02*
X10276054D01*
X10257677Y7255988D01*
X10243612Y7241923D01*
X10236000Y7223546D01*
Y7203654D01*
X10243612Y7185277D01*
X10257677Y7171212D01*
X10276054Y7163600D01*
X10295946D01*
X10314323Y7171212D01*
X10328388Y7185277D01*
X10336000Y7203654D01*
Y7223546D01*
X10328388Y7241923D01*
X10314323Y7255988D01*
X10295946Y7263600D01*
D02*
G37*
G36*
X7882946D02*
X7863054D01*
X7844677Y7255988D01*
X7830612Y7241923D01*
X7823000Y7223546D01*
Y7203654D01*
X7830612Y7185277D01*
X7844677Y7171212D01*
X7863054Y7163600D01*
X7882946D01*
X7901323Y7171212D01*
X7915388Y7185277D01*
X7923000Y7203654D01*
Y7223546D01*
X7915388Y7241923D01*
X7901323Y7255988D01*
X7882946Y7263600D01*
D02*
G37*
G36*
X7755946D02*
X7736054D01*
X7717677Y7255988D01*
X7703612Y7241923D01*
X7696000Y7223546D01*
Y7203654D01*
X7703612Y7185277D01*
X7717677Y7171212D01*
X7736054Y7163600D01*
X7755946D01*
X7774323Y7171212D01*
X7788388Y7185277D01*
X7796000Y7203654D01*
Y7223546D01*
X7788388Y7241923D01*
X7774323Y7255988D01*
X7755946Y7263600D01*
D02*
G37*
G36*
X10549946Y7136600D02*
X10530054D01*
X10511677Y7128988D01*
X10497612Y7114923D01*
X10490000Y7096546D01*
Y7076654D01*
X10497612Y7058277D01*
X10511677Y7044212D01*
X10530054Y7036600D01*
X10549946D01*
X10568323Y7044212D01*
X10582388Y7058277D01*
X10590000Y7076654D01*
Y7096546D01*
X10582388Y7114923D01*
X10568323Y7128988D01*
X10549946Y7136600D01*
D02*
G37*
G36*
X10422946D02*
X10403054D01*
X10384677Y7128988D01*
X10370612Y7114923D01*
X10363000Y7096546D01*
Y7076654D01*
X10370612Y7058277D01*
X10384677Y7044212D01*
X10403054Y7036600D01*
X10422946D01*
X10441323Y7044212D01*
X10455388Y7058277D01*
X10463000Y7076654D01*
Y7096546D01*
X10455388Y7114923D01*
X10441323Y7128988D01*
X10422946Y7136600D01*
D02*
G37*
G36*
X10295946D02*
X10276054D01*
X10257677Y7128988D01*
X10243612Y7114923D01*
X10236000Y7096546D01*
Y7076654D01*
X10243612Y7058277D01*
X10257677Y7044212D01*
X10276054Y7036600D01*
X10295946D01*
X10314323Y7044212D01*
X10328388Y7058277D01*
X10336000Y7076654D01*
Y7096546D01*
X10328388Y7114923D01*
X10314323Y7128988D01*
X10295946Y7136600D01*
D02*
G37*
G36*
X7755946D02*
X7736054D01*
X7717677Y7128988D01*
X7703612Y7114923D01*
X7696000Y7096546D01*
Y7076654D01*
X7703612Y7058277D01*
X7717677Y7044212D01*
X7736054Y7036600D01*
X7755946D01*
X7774323Y7044212D01*
X7788388Y7058277D01*
X7796000Y7076654D01*
Y7096546D01*
X7788388Y7114923D01*
X7774323Y7128988D01*
X7755946Y7136600D01*
D02*
G37*
G36*
X10295946Y7009600D02*
X10276054D01*
X10257677Y7001988D01*
X10243612Y6987923D01*
X10236000Y6969546D01*
Y6949654D01*
X10243612Y6931277D01*
X10257677Y6917212D01*
X10276054Y6909600D01*
X10295946D01*
X10314323Y6917212D01*
X10328388Y6931277D01*
X10336000Y6949654D01*
Y6969546D01*
X10328388Y6987923D01*
X10314323Y7001988D01*
X10295946Y7009600D01*
D02*
G37*
G36*
X7755946D02*
X7736054D01*
X7717677Y7001988D01*
X7707639Y6991950D01*
X7661715D01*
X7648059Y6989233D01*
X7636481Y6981498D01*
X7603584Y6948600D01*
X7584157D01*
X7564861Y6940607D01*
X7550093Y6925839D01*
X7542100Y6906543D01*
Y6885657D01*
X7550093Y6866361D01*
X7564861Y6851593D01*
X7584157Y6843600D01*
X7605043D01*
X7624339Y6851593D01*
X7639107Y6866361D01*
X7647100Y6885657D01*
Y6891182D01*
X7676496Y6920578D01*
X7714311D01*
X7717677Y6917212D01*
X7736054Y6909600D01*
X7755946D01*
X7774323Y6917212D01*
X7788388Y6931277D01*
X7796000Y6949654D01*
Y6969546D01*
X7788388Y6987923D01*
X7774323Y7001988D01*
X7755946Y7009600D01*
D02*
G37*
G36*
X10549946D02*
X10530054D01*
X10511677Y7001988D01*
X10497612Y6987923D01*
X10490000Y6969546D01*
Y6949654D01*
X10497612Y6931277D01*
X10511677Y6917212D01*
X10530054Y6909600D01*
X10549946D01*
X10568323Y6917212D01*
X10580123Y6929012D01*
X10693430D01*
X10777112Y6845330D01*
Y6821439D01*
X10765379Y6816579D01*
X10727729Y6854229D01*
X10717805Y6860859D01*
X10706100Y6863188D01*
X10706099Y6863188D01*
X10580123D01*
X10568323Y6874988D01*
X10549946Y6882600D01*
X10530054D01*
X10511677Y6874988D01*
X10497612Y6860923D01*
X10490000Y6842546D01*
Y6822654D01*
X10497612Y6804277D01*
X10511677Y6790212D01*
X10530054Y6782600D01*
X10549946D01*
X10568323Y6790212D01*
X10580123Y6802012D01*
X10693430D01*
X10726312Y6769130D01*
Y6694439D01*
X10714579Y6689579D01*
X10676929Y6727229D01*
X10667005Y6733859D01*
X10655300Y6736188D01*
X10655299Y6736188D01*
X10580123D01*
X10568323Y6747988D01*
X10549946Y6755600D01*
X10530054D01*
X10511677Y6747988D01*
X10497612Y6733923D01*
X10490000Y6715546D01*
Y6695654D01*
X10497612Y6677277D01*
X10511677Y6663212D01*
X10530054Y6655600D01*
X10549946D01*
X10568323Y6663212D01*
X10580123Y6675012D01*
X10642630D01*
X10675512Y6642130D01*
Y6007070D01*
X10528330Y5859888D01*
X10160000D01*
X10148294Y5857559D01*
X10138371Y5850929D01*
X10138371Y5850928D01*
X10074871Y5787429D01*
X10068241Y5777505D01*
X10065912Y5765800D01*
X10065912Y5765799D01*
Y5270501D01*
X10065912Y5270500D01*
X10068241Y5258795D01*
X10074871Y5248871D01*
X10196000Y5127742D01*
Y4990000D01*
X10376000D01*
Y5170000D01*
X10240258D01*
X10127088Y5283170D01*
Y5464811D01*
X10138821Y5469671D01*
X10196000Y5412492D01*
Y5244000D01*
X10376000D01*
Y5424000D01*
X10271008D01*
X10208741Y5486267D01*
X10213601Y5498000D01*
X10377000D01*
Y5557412D01*
X10452099D01*
X10452100Y5557412D01*
X10463805Y5559741D01*
X10473729Y5566371D01*
X10829329Y5921971D01*
X10835959Y5931895D01*
X10838288Y5943600D01*
X10838288Y5943601D01*
Y6858000D01*
X10835959Y6869706D01*
X10829329Y6879629D01*
X10829328Y6879629D01*
X10727729Y6981229D01*
X10717805Y6987859D01*
X10706100Y6990188D01*
X10706099Y6990188D01*
X10580123D01*
X10568323Y7001988D01*
X10549946Y7009600D01*
D02*
G37*
G36*
X10295946Y6882600D02*
X10276054D01*
X10257677Y6874988D01*
X10243612Y6860923D01*
X10236000Y6842546D01*
Y6822654D01*
X10243612Y6804277D01*
X10257677Y6790212D01*
X10276054Y6782600D01*
X10295946D01*
X10314323Y6790212D01*
X10328388Y6804277D01*
X10336000Y6822654D01*
Y6842546D01*
X10328388Y6860923D01*
X10314323Y6874988D01*
X10295946Y6882600D01*
D02*
G37*
G36*
Y6755600D02*
X10276054D01*
X10257677Y6747988D01*
X10243612Y6733923D01*
X10236000Y6715546D01*
Y6695654D01*
X10243612Y6677277D01*
X10257677Y6663212D01*
X10276054Y6655600D01*
X10295946D01*
X10314323Y6663212D01*
X10328388Y6677277D01*
X10336000Y6695654D01*
Y6715546D01*
X10328388Y6733923D01*
X10314323Y6747988D01*
X10295946Y6755600D01*
D02*
G37*
G36*
X10549946Y6628600D02*
X10530054D01*
X10511677Y6620988D01*
X10497612Y6606923D01*
X10490000Y6588546D01*
Y6568654D01*
X10497612Y6550277D01*
X10511677Y6536212D01*
X10530054Y6528600D01*
X10549946D01*
X10568323Y6536212D01*
X10582388Y6550277D01*
X10590000Y6568654D01*
Y6588546D01*
X10582388Y6606923D01*
X10568323Y6620988D01*
X10549946Y6628600D01*
D02*
G37*
G36*
X10295946D02*
X10276054D01*
X10257677Y6620988D01*
X10243612Y6606923D01*
X10236000Y6588546D01*
Y6568654D01*
X10243612Y6550277D01*
X10257677Y6536212D01*
X10276054Y6528600D01*
X10295946D01*
X10314323Y6536212D01*
X10328388Y6550277D01*
X10336000Y6568654D01*
Y6588546D01*
X10328388Y6606923D01*
X10314323Y6620988D01*
X10295946Y6628600D01*
D02*
G37*
G36*
X7755946Y6755600D02*
X7736054D01*
X7717677Y6747988D01*
X7703612Y6733923D01*
X7696000Y6715546D01*
Y6695654D01*
X7696797Y6693729D01*
X7659568Y6656500D01*
X7647657D01*
X7628361Y6648507D01*
X7613593Y6633739D01*
X7605600Y6614443D01*
Y6593557D01*
X7613593Y6574261D01*
X7628361Y6559493D01*
X7647657Y6551500D01*
X7657682D01*
X7662942Y6538800D01*
X7652050Y6527908D01*
X7630639D01*
X7616719Y6541827D01*
X7597423Y6549820D01*
X7576537D01*
X7557241Y6541827D01*
X7542473Y6527059D01*
X7534480Y6507763D01*
Y6486877D01*
X7542473Y6467581D01*
X7557241Y6452813D01*
X7576537Y6444820D01*
X7597423D01*
X7616719Y6452813D01*
X7630639Y6466732D01*
X7664719D01*
X7664720Y6466732D01*
X7676425Y6469061D01*
X7686349Y6475691D01*
X7739258Y6528600D01*
X7755946D01*
X7774323Y6536212D01*
X7788388Y6550277D01*
X7796000Y6568654D01*
Y6588546D01*
X7788388Y6606923D01*
X7774323Y6620988D01*
X7755946Y6628600D01*
X7736144D01*
X7735881Y6628866D01*
X7729013Y6639430D01*
X7745184Y6655600D01*
X7755946D01*
X7774323Y6663212D01*
X7788388Y6677277D01*
X7796000Y6695654D01*
Y6715546D01*
X7788388Y6733923D01*
X7774323Y6747988D01*
X7755946Y6755600D01*
D02*
G37*
G36*
X10295946Y6501600D02*
X10276054D01*
X10257677Y6493988D01*
X10243612Y6479923D01*
X10236000Y6461546D01*
Y6441654D01*
X10243612Y6423277D01*
X10257677Y6409212D01*
X10276054Y6401600D01*
X10295946D01*
X10314323Y6409212D01*
X10328388Y6423277D01*
X10336000Y6441654D01*
Y6461546D01*
X10328388Y6479923D01*
X10314323Y6493988D01*
X10295946Y6501600D01*
D02*
G37*
G36*
X9080500Y6417688D02*
X9080499Y6417688D01*
X8736600D01*
X8724895Y6415359D01*
X8714971Y6408729D01*
X8714971Y6408728D01*
X8677871Y6371629D01*
X8677379Y6370893D01*
X8663323Y6366988D01*
X8644946Y6374600D01*
X8625054D01*
X8606677Y6366988D01*
X8592612Y6352923D01*
X8585000Y6334546D01*
Y6314654D01*
X8592612Y6296277D01*
X8606677Y6282212D01*
X8625054Y6274600D01*
X8644946D01*
X8656212Y6279267D01*
X8668912Y6271208D01*
Y6250992D01*
X8656212Y6242933D01*
X8644946Y6247600D01*
X8625054D01*
X8606677Y6239988D01*
X8592612Y6225923D01*
X8585000Y6207546D01*
Y6187654D01*
X8592612Y6169277D01*
X8606677Y6155212D01*
X8625054Y6147600D01*
X8644946D01*
X8656212Y6152267D01*
X8668912Y6144208D01*
Y6123992D01*
X8656212Y6115933D01*
X8644946Y6120600D01*
X8625054D01*
X8606677Y6112988D01*
X8592612Y6098923D01*
X8585000Y6080546D01*
Y6060654D01*
X8592612Y6042277D01*
X8606677Y6028212D01*
X8625054Y6020600D01*
X8644946D01*
X8656212Y6025267D01*
X8668912Y6017208D01*
Y5511770D01*
X8579040Y5421898D01*
X8568120Y5425265D01*
X8566340Y5426605D01*
Y5430800D01*
X8431340D01*
Y5305800D01*
X8463154D01*
Y5250800D01*
X8448840D01*
Y5150800D01*
X8548840D01*
Y5250800D01*
X8534526D01*
Y5296819D01*
X8543506Y5305800D01*
X8566340Y5305800D01*
X8567312Y5293502D01*
Y4950461D01*
X8567312Y4950460D01*
X8569641Y4938755D01*
X8576271Y4928831D01*
X8606212Y4898890D01*
Y4885159D01*
X8594479Y4880299D01*
X8529428Y4945350D01*
Y5010800D01*
X8548840D01*
Y5110800D01*
X8448840D01*
Y5010800D01*
X8468252D01*
Y4932681D01*
X8468252Y4932680D01*
X8470581Y4920975D01*
X8477211Y4911051D01*
X8551800Y4836463D01*
Y4715100D01*
X8791800D01*
Y4650100D01*
X8888540D01*
Y4622540D01*
X9003430D01*
X9008290Y4610807D01*
X8973367Y4575883D01*
X8856800D01*
X8841193Y4572779D01*
X8837183Y4570100D01*
X8791800D01*
Y4500100D01*
X8837183D01*
X8841193Y4497421D01*
X8856800Y4494316D01*
X8990259D01*
X8990260Y4494316D01*
X9005867Y4497421D01*
X9019098Y4506261D01*
X9167758Y4654921D01*
X9167758Y4654922D01*
X9176599Y4668153D01*
X9179704Y4683760D01*
Y4770280D01*
X9176599Y4785887D01*
X9167758Y4799118D01*
X9167758Y4799119D01*
X9139064Y4827813D01*
Y4999120D01*
X9148044Y5008100D01*
X9154200D01*
X9166900Y5008100D01*
X9324200D01*
Y5069714D01*
X9586418D01*
X9591314Y5064818D01*
Y5036800D01*
X9592000Y5033352D01*
Y4973500D01*
X9762000D01*
Y5033352D01*
X9762686Y5036800D01*
Y5178800D01*
X9795700D01*
Y5303800D01*
X9543700D01*
Y5312800D01*
X9404700D01*
Y5294365D01*
X9402458Y5292665D01*
X9385252Y5295557D01*
X9385134Y5295734D01*
X9347034Y5333834D01*
X9335456Y5341569D01*
X9321800Y5344286D01*
X9299200D01*
Y5376100D01*
X9174200D01*
Y5241100D01*
X9299200D01*
Y5262772D01*
X9311900Y5268033D01*
X9324214Y5255718D01*
Y5240794D01*
X9324200Y5228100D01*
X9166900D01*
X9159200Y5228100D01*
X9146500Y5228100D01*
X9127679D01*
Y5241100D01*
X9139200D01*
Y5376100D01*
X9127679D01*
Y5432756D01*
X9127840Y5432916D01*
X9364907D01*
X9404700Y5393124D01*
Y5329800D01*
X9543700D01*
Y5338800D01*
X9668700D01*
Y5463800D01*
X9631933D01*
Y5532960D01*
X9652100D01*
Y5753080D01*
X9652100Y5760772D01*
X9664041Y5766791D01*
X9908414Y5522418D01*
Y4889500D01*
X9911131Y4875844D01*
X9918866Y4864266D01*
X9933814Y4849318D01*
Y4253499D01*
X9936531Y4239843D01*
X9944266Y4228266D01*
X10192492Y3980040D01*
X10190485Y3976564D01*
X10183500Y3950494D01*
Y3923506D01*
X10190485Y3897436D01*
X10203979Y3874064D01*
X10223063Y3854980D01*
X10246436Y3841485D01*
X10272505Y3834500D01*
X10299494D01*
X10325563Y3841485D01*
X10348936Y3854980D01*
X10368020Y3874064D01*
X10381514Y3897436D01*
X10388499Y3923506D01*
Y3950494D01*
X10381514Y3976564D01*
X10368020Y3999936D01*
X10348936Y4019020D01*
X10325563Y4032515D01*
X10299494Y4039500D01*
X10272505D01*
X10246436Y4032515D01*
X10242959Y4030508D01*
X10005186Y4268281D01*
Y4403386D01*
X10017886Y4408647D01*
X10192492Y4234040D01*
X10190485Y4230564D01*
X10183500Y4204494D01*
Y4177506D01*
X10190485Y4151436D01*
X10203979Y4128064D01*
X10223063Y4108980D01*
X10246436Y4095485D01*
X10272505Y4088500D01*
X10299494D01*
X10325563Y4095485D01*
X10348936Y4108980D01*
X10368020Y4128064D01*
X10381514Y4151436D01*
X10388499Y4177506D01*
Y4204494D01*
X10381514Y4230564D01*
X10368020Y4253936D01*
X10348936Y4273020D01*
X10325563Y4286515D01*
X10299494Y4293500D01*
X10272505D01*
X10246436Y4286515D01*
X10242959Y4284508D01*
X10068686Y4458781D01*
Y4902200D01*
X10065969Y4915856D01*
X10058234Y4927434D01*
X10043286Y4942382D01*
Y5562600D01*
X10040569Y5576256D01*
X10032834Y5587834D01*
X9702634Y5918034D01*
X9691056Y5925769D01*
X9677400Y5928486D01*
X9209582D01*
X9178686Y5959382D01*
Y6035575D01*
X9185388Y6042277D01*
X9193000Y6060654D01*
Y6080546D01*
X9185388Y6098923D01*
X9171323Y6112988D01*
X9152946Y6120600D01*
X9133054D01*
X9114677Y6112988D01*
X9100612Y6098923D01*
X9093000Y6080546D01*
Y6060654D01*
X9100612Y6042277D01*
X9107314Y6035575D01*
Y5944600D01*
X9110031Y5930944D01*
X9117766Y5919366D01*
X9159447Y5877686D01*
X9154186Y5864986D01*
X8930182D01*
X8925686Y5869482D01*
Y6036575D01*
X8931388Y6042277D01*
X8939000Y6060654D01*
Y6080546D01*
X8931388Y6098923D01*
X8917323Y6112988D01*
X8898946Y6120600D01*
X8879054D01*
X8860677Y6112988D01*
X8846612Y6098923D01*
X8839000Y6080546D01*
Y6060654D01*
X8846612Y6042277D01*
X8854314Y6034575D01*
Y5854700D01*
X8857031Y5841044D01*
X8864766Y5829466D01*
X8890166Y5804066D01*
X8901744Y5796331D01*
X8915400Y5793614D01*
X9637218D01*
X9653931Y5776902D01*
X9647912Y5764961D01*
X9641135Y5764960D01*
X9510100D01*
Y5532960D01*
X9550366D01*
Y5463800D01*
X9533700D01*
Y5450800D01*
X9462377D01*
X9410639Y5502538D01*
X9397407Y5511379D01*
X9381800Y5514484D01*
X9381799Y5514484D01*
X9127840D01*
X9116611Y5525713D01*
X9101789Y5534270D01*
X9085257Y5538700D01*
X9068142D01*
X9051611Y5534270D01*
X9036789Y5525713D01*
X9024687Y5513611D01*
X9016130Y5498789D01*
X9011700Y5482258D01*
Y5465142D01*
X9016130Y5448611D01*
X9024687Y5433789D01*
X9025720Y5432756D01*
Y5376100D01*
X9014200D01*
Y5241100D01*
X9025720D01*
Y5228100D01*
X8989200D01*
Y5008100D01*
X9057496D01*
Y4810921D01*
X9057496Y4810920D01*
X9060601Y4795313D01*
X9069442Y4782082D01*
X9098136Y4753387D01*
Y4700653D01*
X9035273Y4637790D01*
X9023540Y4642650D01*
Y4747540D01*
X8888540D01*
Y4720100D01*
X8821800D01*
Y4845100D01*
X8817388D01*
Y4895550D01*
X8914168Y4992331D01*
X8914169Y4992331D01*
X8920799Y5002255D01*
X8923128Y5013960D01*
X8923128Y5013961D01*
Y5618448D01*
X8930689Y5626010D01*
X8937540Y5642549D01*
Y5660451D01*
X8930689Y5676990D01*
X8918030Y5689649D01*
X8901491Y5696500D01*
X8883589D01*
X8867050Y5689649D01*
X8854391Y5676990D01*
X8847540Y5660451D01*
Y5642549D01*
X8854391Y5626010D01*
X8861952Y5618448D01*
Y5430800D01*
X8736140D01*
Y5305800D01*
X8767954D01*
Y5250800D01*
X8753640D01*
Y5150800D01*
X8853640D01*
X8861952Y5141543D01*
Y5120057D01*
X8853640Y5110800D01*
X8753640D01*
X8751760Y5122721D01*
Y5123460D01*
X8628488D01*
Y5384830D01*
X8721128Y5477471D01*
X8721129Y5477471D01*
X8727759Y5487394D01*
X8730088Y5499100D01*
Y6015952D01*
X8742788Y6024438D01*
X8752054Y6020600D01*
X8771946D01*
X8790323Y6028212D01*
X8804388Y6042277D01*
X8812000Y6060654D01*
Y6080546D01*
X8804388Y6098923D01*
X8790323Y6112988D01*
X8771946Y6120600D01*
X8752054D01*
X8742788Y6116762D01*
X8730088Y6125248D01*
Y6142952D01*
X8742788Y6151438D01*
X8752054Y6147600D01*
X8771946D01*
X8790323Y6155212D01*
X8804388Y6169277D01*
X8812000Y6187654D01*
Y6207546D01*
X8804388Y6225923D01*
X8790323Y6239988D01*
X8771946Y6247600D01*
X8752054D01*
X8742788Y6243762D01*
X8730088Y6252248D01*
Y6269952D01*
X8742788Y6278438D01*
X8752054Y6274600D01*
X8771946D01*
X8790323Y6282212D01*
X8804388Y6296277D01*
X8812000Y6314654D01*
Y6334546D01*
X8808162Y6343812D01*
X8816648Y6356512D01*
X8834352D01*
X8842838Y6343812D01*
X8839000Y6334546D01*
Y6314654D01*
X8846612Y6296277D01*
X8860677Y6282212D01*
X8879054Y6274600D01*
X8898946D01*
X8917323Y6282212D01*
X8931388Y6296277D01*
X8939000Y6314654D01*
Y6334546D01*
X8935162Y6343812D01*
X8943648Y6356512D01*
X8961352D01*
X8969838Y6343812D01*
X8966000Y6334546D01*
Y6314654D01*
X8973612Y6296277D01*
X8987677Y6282212D01*
X9006054Y6274600D01*
X9025946D01*
X9044323Y6282212D01*
X9058388Y6296277D01*
X9066000Y6314654D01*
Y6334546D01*
X9062162Y6343812D01*
X9062727Y6345079D01*
X9072640Y6351703D01*
X9093000Y6331342D01*
Y6314654D01*
X9100612Y6296277D01*
X9114677Y6282212D01*
X9133054Y6274600D01*
X9152946D01*
X9171323Y6282212D01*
X9185388Y6296277D01*
X9193000Y6314654D01*
Y6334546D01*
X9185388Y6352923D01*
X9171323Y6366988D01*
X9152946Y6374600D01*
X9136258D01*
X9102129Y6408729D01*
X9092205Y6415359D01*
X9080500Y6417688D01*
D02*
G37*
G36*
X10549946Y6501600D02*
X10530054D01*
X10511677Y6493988D01*
X10497612Y6479923D01*
X10490000Y6461546D01*
Y6441654D01*
X10497612Y6423277D01*
X10499216Y6421673D01*
Y6354527D01*
X10497612Y6352923D01*
X10490000Y6334546D01*
Y6314654D01*
X10497612Y6296277D01*
X10511677Y6282212D01*
X10530054Y6274600D01*
X10549946D01*
X10568323Y6282212D01*
X10582388Y6296277D01*
X10590000Y6314654D01*
Y6334546D01*
X10582388Y6352923D01*
X10580784Y6354527D01*
Y6421673D01*
X10582388Y6423277D01*
X10590000Y6441654D01*
Y6461546D01*
X10582388Y6479923D01*
X10568323Y6493988D01*
X10549946Y6501600D01*
D02*
G37*
G36*
X10295946Y6374600D02*
X10276054D01*
X10257677Y6366988D01*
X10243612Y6352923D01*
X10236000Y6334546D01*
Y6314654D01*
X10243612Y6296277D01*
X10257677Y6282212D01*
X10276054Y6274600D01*
X10295946D01*
X10314323Y6282212D01*
X10328388Y6296277D01*
X10336000Y6314654D01*
Y6334546D01*
X10328388Y6352923D01*
X10314323Y6366988D01*
X10295946Y6374600D01*
D02*
G37*
G36*
X10168946D02*
X10149054D01*
X10130677Y6366988D01*
X10116612Y6352923D01*
X10109000Y6334546D01*
Y6314654D01*
X10116612Y6296277D01*
X10130677Y6282212D01*
X10149054Y6274600D01*
X10168946D01*
X10187323Y6282212D01*
X10201388Y6296277D01*
X10209000Y6314654D01*
Y6334546D01*
X10201388Y6352923D01*
X10187323Y6366988D01*
X10168946Y6374600D01*
D02*
G37*
G36*
X10041946D02*
X10022054D01*
X10003677Y6366988D01*
X9989612Y6352923D01*
X9982000Y6334546D01*
Y6314654D01*
X9989612Y6296277D01*
X10003677Y6282212D01*
X10022054Y6274600D01*
X10041946D01*
X10060323Y6282212D01*
X10074388Y6296277D01*
X10082000Y6314654D01*
Y6334546D01*
X10074388Y6352923D01*
X10060323Y6366988D01*
X10041946Y6374600D01*
D02*
G37*
G36*
X9914946D02*
X9895054D01*
X9876677Y6366988D01*
X9862612Y6352923D01*
X9855000Y6334546D01*
Y6314654D01*
X9862612Y6296277D01*
X9876677Y6282212D01*
X9895054Y6274600D01*
X9914946D01*
X9933323Y6282212D01*
X9947388Y6296277D01*
X9955000Y6314654D01*
Y6334546D01*
X9947388Y6352923D01*
X9933323Y6366988D01*
X9914946Y6374600D01*
D02*
G37*
G36*
X9787946D02*
X9768054D01*
X9749677Y6366988D01*
X9735612Y6352923D01*
X9728000Y6334546D01*
Y6314654D01*
X9735612Y6296277D01*
X9749677Y6282212D01*
X9768054Y6274600D01*
X9787946D01*
X9806323Y6282212D01*
X9820388Y6296277D01*
X9828000Y6314654D01*
Y6334546D01*
X9820388Y6352923D01*
X9806323Y6366988D01*
X9787946Y6374600D01*
D02*
G37*
G36*
X9660946D02*
X9641054D01*
X9622677Y6366988D01*
X9608612Y6352923D01*
X9601000Y6334546D01*
Y6314654D01*
X9608612Y6296277D01*
X9622677Y6282212D01*
X9641054Y6274600D01*
X9660946D01*
X9679323Y6282212D01*
X9693388Y6296277D01*
X9701000Y6314654D01*
Y6334546D01*
X9693388Y6352923D01*
X9679323Y6366988D01*
X9660946Y6374600D01*
D02*
G37*
G36*
X9279946D02*
X9260054D01*
X9241677Y6366988D01*
X9227612Y6352923D01*
X9220000Y6334546D01*
Y6314654D01*
X9227612Y6296277D01*
X9241677Y6282212D01*
X9260054Y6274600D01*
X9279946D01*
X9298323Y6282212D01*
X9312388Y6296277D01*
X9320000Y6314654D01*
Y6334546D01*
X9312388Y6352923D01*
X9298323Y6366988D01*
X9279946Y6374600D01*
D02*
G37*
G36*
X8517946D02*
X8498054D01*
X8479677Y6366988D01*
X8465612Y6352923D01*
X8458000Y6334546D01*
Y6314654D01*
X8465612Y6296277D01*
X8479677Y6282212D01*
X8498054Y6274600D01*
X8517946D01*
X8536323Y6282212D01*
X8550388Y6296277D01*
X8558000Y6314654D01*
Y6334546D01*
X8550388Y6352923D01*
X8536323Y6366988D01*
X8517946Y6374600D01*
D02*
G37*
G36*
X8390946D02*
X8371054D01*
X8352677Y6366988D01*
X8338612Y6352923D01*
X8331000Y6334546D01*
Y6314654D01*
X8338612Y6296277D01*
X8352677Y6282212D01*
X8371054Y6274600D01*
X8390946D01*
X8409323Y6282212D01*
X8423388Y6296277D01*
X8431000Y6314654D01*
Y6334546D01*
X8423388Y6352923D01*
X8409323Y6366988D01*
X8390946Y6374600D01*
D02*
G37*
G36*
X8263946D02*
X8244054D01*
X8225677Y6366988D01*
X8211612Y6352923D01*
X8204000Y6334546D01*
Y6314654D01*
X8211612Y6296277D01*
X8225677Y6282212D01*
X8244054Y6274600D01*
X8263946D01*
X8282323Y6282212D01*
X8296388Y6296277D01*
X8304000Y6314654D01*
Y6334546D01*
X8296388Y6352923D01*
X8282323Y6366988D01*
X8263946Y6374600D01*
D02*
G37*
G36*
X7882946D02*
X7863054D01*
X7844677Y6366988D01*
X7830612Y6352923D01*
X7823000Y6334546D01*
Y6314654D01*
X7830612Y6296277D01*
X7844677Y6282212D01*
X7863054Y6274600D01*
X7882946D01*
X7901323Y6282212D01*
X7915388Y6296277D01*
X7923000Y6314654D01*
Y6334546D01*
X7915388Y6352923D01*
X7901323Y6366988D01*
X7882946Y6374600D01*
D02*
G37*
G36*
X10549946Y6247600D02*
X10530054D01*
X10511677Y6239988D01*
X10497612Y6225923D01*
X10490000Y6207546D01*
Y6187654D01*
X10497612Y6169277D01*
X10511677Y6155212D01*
X10530054Y6147600D01*
X10549946D01*
X10568323Y6155212D01*
X10582388Y6169277D01*
X10590000Y6187654D01*
Y6207546D01*
X10582388Y6225923D01*
X10568323Y6239988D01*
X10549946Y6247600D01*
D02*
G37*
G36*
X10295946D02*
X10276054D01*
X10257677Y6239988D01*
X10243612Y6225923D01*
X10236000Y6207546D01*
Y6187654D01*
X10243612Y6169277D01*
X10257677Y6155212D01*
X10276054Y6147600D01*
X10295946D01*
X10314323Y6155212D01*
X10328388Y6169277D01*
X10336000Y6187654D01*
Y6207546D01*
X10328388Y6225923D01*
X10314323Y6239988D01*
X10295946Y6247600D01*
D02*
G37*
G36*
X10041946D02*
X10022054D01*
X10003677Y6239988D01*
X9989612Y6225923D01*
X9982000Y6207546D01*
Y6187654D01*
X9989612Y6169277D01*
X10003677Y6155212D01*
X10022054Y6147600D01*
X10041946D01*
X10060323Y6155212D01*
X10074388Y6169277D01*
X10082000Y6187654D01*
Y6207546D01*
X10074388Y6225923D01*
X10060323Y6239988D01*
X10041946Y6247600D01*
D02*
G37*
G36*
X9914946D02*
X9895054D01*
X9876677Y6239988D01*
X9862612Y6225923D01*
X9855000Y6207546D01*
Y6187654D01*
X9862612Y6169277D01*
X9876677Y6155212D01*
X9895054Y6147600D01*
X9914946D01*
X9933323Y6155212D01*
X9947388Y6169277D01*
X9955000Y6187654D01*
Y6207546D01*
X9947388Y6225923D01*
X9933323Y6239988D01*
X9914946Y6247600D01*
D02*
G37*
G36*
X9660946D02*
X9641054D01*
X9622677Y6239988D01*
X9608612Y6225923D01*
X9601000Y6207546D01*
Y6187654D01*
X9608612Y6169277D01*
X9622677Y6155212D01*
X9641054Y6147600D01*
X9660946D01*
X9679323Y6155212D01*
X9693388Y6169277D01*
X9701000Y6187654D01*
Y6207546D01*
X9693388Y6225923D01*
X9679323Y6239988D01*
X9660946Y6247600D01*
D02*
G37*
G36*
X9533946D02*
X9514054D01*
X9495677Y6239988D01*
X9481612Y6225923D01*
X9474000Y6207546D01*
Y6187654D01*
X9481612Y6169277D01*
X9495677Y6155212D01*
X9514054Y6147600D01*
X9533946D01*
X9552323Y6155212D01*
X9566388Y6169277D01*
X9574000Y6187654D01*
Y6207546D01*
X9566388Y6225923D01*
X9552323Y6239988D01*
X9533946Y6247600D01*
D02*
G37*
G36*
X9279946D02*
X9260054D01*
X9241677Y6239988D01*
X9227612Y6225923D01*
X9220000Y6207546D01*
Y6187654D01*
X9227612Y6169277D01*
X9241677Y6155212D01*
X9260054Y6147600D01*
X9279946D01*
X9298323Y6155212D01*
X9312388Y6169277D01*
X9320000Y6187654D01*
Y6207546D01*
X9312388Y6225923D01*
X9298323Y6239988D01*
X9279946Y6247600D01*
D02*
G37*
G36*
X9152946D02*
X9133054D01*
X9114677Y6239988D01*
X9100612Y6225923D01*
X9093000Y6207546D01*
Y6187654D01*
X9100612Y6169277D01*
X9114677Y6155212D01*
X9133054Y6147600D01*
X9152946D01*
X9171323Y6155212D01*
X9185388Y6169277D01*
X9193000Y6187654D01*
Y6207546D01*
X9185388Y6225923D01*
X9171323Y6239988D01*
X9152946Y6247600D01*
D02*
G37*
G36*
X9025946D02*
X9006054D01*
X8987677Y6239988D01*
X8973612Y6225923D01*
X8966000Y6207546D01*
Y6187654D01*
X8973612Y6169277D01*
X8987677Y6155212D01*
X9006054Y6147600D01*
X9025946D01*
X9044323Y6155212D01*
X9058388Y6169277D01*
X9066000Y6187654D01*
Y6207546D01*
X9058388Y6225923D01*
X9044323Y6239988D01*
X9025946Y6247600D01*
D02*
G37*
G36*
X8390946D02*
X8371054D01*
X8352677Y6239988D01*
X8338612Y6225923D01*
X8331000Y6207546D01*
Y6187654D01*
X8338612Y6169277D01*
X8352677Y6155212D01*
X8371054Y6147600D01*
X8390946D01*
X8409323Y6155212D01*
X8423388Y6169277D01*
X8431000Y6187654D01*
Y6207546D01*
X8423388Y6225923D01*
X8409323Y6239988D01*
X8390946Y6247600D01*
D02*
G37*
G36*
X7882946D02*
X7863054D01*
X7844677Y6239988D01*
X7830612Y6225923D01*
X7823000Y6207546D01*
Y6187654D01*
X7830612Y6169277D01*
X7844677Y6155212D01*
X7863054Y6147600D01*
X7882946D01*
X7901323Y6155212D01*
X7915388Y6169277D01*
X7923000Y6187654D01*
Y6207546D01*
X7915388Y6225923D01*
X7901323Y6239988D01*
X7882946Y6247600D01*
D02*
G37*
G36*
X7755946D02*
X7736054D01*
X7717677Y6239988D01*
X7703612Y6225923D01*
X7696000Y6207546D01*
Y6187654D01*
X7703612Y6169277D01*
X7717677Y6155212D01*
X7736054Y6147600D01*
X7755946D01*
X7774323Y6155212D01*
X7788388Y6169277D01*
X7796000Y6187654D01*
Y6207546D01*
X7788388Y6225923D01*
X7774323Y6239988D01*
X7755946Y6247600D01*
D02*
G37*
G36*
X10549946Y6120600D02*
X10530054D01*
X10511677Y6112988D01*
X10497612Y6098923D01*
X10490000Y6080546D01*
Y6060654D01*
X10497612Y6042277D01*
X10511677Y6028212D01*
X10530054Y6020600D01*
X10549946D01*
X10568323Y6028212D01*
X10582388Y6042277D01*
X10590000Y6060654D01*
Y6080546D01*
X10582388Y6098923D01*
X10568323Y6112988D01*
X10549946Y6120600D01*
D02*
G37*
G36*
X10422946D02*
X10403054D01*
X10384677Y6112988D01*
X10370612Y6098923D01*
X10363000Y6080546D01*
Y6060654D01*
X10370612Y6042277D01*
X10384677Y6028212D01*
X10403054Y6020600D01*
X10422946D01*
X10441323Y6028212D01*
X10455388Y6042277D01*
X10463000Y6060654D01*
Y6080546D01*
X10455388Y6098923D01*
X10441323Y6112988D01*
X10422946Y6120600D01*
D02*
G37*
G36*
X10295946D02*
X10276054D01*
X10257677Y6112988D01*
X10243612Y6098923D01*
X10236000Y6080546D01*
Y6060654D01*
X10243612Y6042277D01*
X10257677Y6028212D01*
X10276054Y6020600D01*
X10295946D01*
X10314323Y6028212D01*
X10328388Y6042277D01*
X10336000Y6060654D01*
Y6080546D01*
X10328388Y6098923D01*
X10314323Y6112988D01*
X10295946Y6120600D01*
D02*
G37*
G36*
X10168946D02*
X10149054D01*
X10130677Y6112988D01*
X10116612Y6098923D01*
X10109000Y6080546D01*
Y6060654D01*
X10116612Y6042277D01*
X10130677Y6028212D01*
X10149054Y6020600D01*
X10168946D01*
X10187323Y6028212D01*
X10201388Y6042277D01*
X10209000Y6060654D01*
Y6080546D01*
X10201388Y6098923D01*
X10187323Y6112988D01*
X10168946Y6120600D01*
D02*
G37*
G36*
X10041946D02*
X10022054D01*
X10003677Y6112988D01*
X9989612Y6098923D01*
X9982000Y6080546D01*
Y6060654D01*
X9989612Y6042277D01*
X10003677Y6028212D01*
X10022054Y6020600D01*
X10041946D01*
X10060323Y6028212D01*
X10074388Y6042277D01*
X10082000Y6060654D01*
Y6080546D01*
X10074388Y6098923D01*
X10060323Y6112988D01*
X10041946Y6120600D01*
D02*
G37*
G36*
X9914946D02*
X9895054D01*
X9876677Y6112988D01*
X9862612Y6098923D01*
X9855000Y6080546D01*
Y6060654D01*
X9862612Y6042277D01*
X9876677Y6028212D01*
X9895054Y6020600D01*
X9914946D01*
X9933323Y6028212D01*
X9947388Y6042277D01*
X9955000Y6060654D01*
Y6080546D01*
X9947388Y6098923D01*
X9933323Y6112988D01*
X9914946Y6120600D01*
D02*
G37*
G36*
X9787946D02*
X9768054D01*
X9749677Y6112988D01*
X9735612Y6098923D01*
X9728000Y6080546D01*
Y6060654D01*
X9735612Y6042277D01*
X9749677Y6028212D01*
X9768054Y6020600D01*
X9787946D01*
X9806323Y6028212D01*
X9820388Y6042277D01*
X9828000Y6060654D01*
Y6080546D01*
X9820388Y6098923D01*
X9806323Y6112988D01*
X9787946Y6120600D01*
D02*
G37*
G36*
X9660946D02*
X9641054D01*
X9622677Y6112988D01*
X9608612Y6098923D01*
X9601000Y6080546D01*
Y6060654D01*
X9608612Y6042277D01*
X9622677Y6028212D01*
X9641054Y6020600D01*
X9660946D01*
X9679323Y6028212D01*
X9693388Y6042277D01*
X9701000Y6060654D01*
Y6080546D01*
X9693388Y6098923D01*
X9679323Y6112988D01*
X9660946Y6120600D01*
D02*
G37*
G36*
X9533946D02*
X9514054D01*
X9495677Y6112988D01*
X9481612Y6098923D01*
X9474000Y6080546D01*
Y6060654D01*
X9481612Y6042277D01*
X9495677Y6028212D01*
X9514054Y6020600D01*
X9533946D01*
X9552323Y6028212D01*
X9566388Y6042277D01*
X9574000Y6060654D01*
Y6080546D01*
X9566388Y6098923D01*
X9552323Y6112988D01*
X9533946Y6120600D01*
D02*
G37*
G36*
X9279946D02*
X9260054D01*
X9241677Y6112988D01*
X9227612Y6098923D01*
X9220000Y6080546D01*
Y6060654D01*
X9227612Y6042277D01*
X9241677Y6028212D01*
X9260054Y6020600D01*
X9279946D01*
X9298323Y6028212D01*
X9312388Y6042277D01*
X9320000Y6060654D01*
Y6080546D01*
X9312388Y6098923D01*
X9298323Y6112988D01*
X9279946Y6120600D01*
D02*
G37*
G36*
X9025946D02*
X9006054D01*
X8987677Y6112988D01*
X8973612Y6098923D01*
X8966000Y6080546D01*
Y6060654D01*
X8973612Y6042277D01*
X8987677Y6028212D01*
X9006054Y6020600D01*
X9025946D01*
X9044323Y6028212D01*
X9058388Y6042277D01*
X9066000Y6060654D01*
Y6080546D01*
X9058388Y6098923D01*
X9044323Y6112988D01*
X9025946Y6120600D01*
D02*
G37*
G36*
X8517946D02*
X8498054D01*
X8479677Y6112988D01*
X8465612Y6098923D01*
X8458000Y6080546D01*
Y6060654D01*
X8465612Y6042277D01*
X8479677Y6028212D01*
X8498054Y6020600D01*
X8517946D01*
X8536323Y6028212D01*
X8550388Y6042277D01*
X8558000Y6060654D01*
Y6080546D01*
X8550388Y6098923D01*
X8536323Y6112988D01*
X8517946Y6120600D01*
D02*
G37*
G36*
X8390946D02*
X8371054D01*
X8352677Y6112988D01*
X8338612Y6098923D01*
X8331000Y6080546D01*
Y6060654D01*
X8338612Y6042277D01*
X8352677Y6028212D01*
X8371054Y6020600D01*
X8390946D01*
X8409323Y6028212D01*
X8423388Y6042277D01*
X8431000Y6060654D01*
Y6080546D01*
X8423388Y6098923D01*
X8409323Y6112988D01*
X8390946Y6120600D01*
D02*
G37*
G36*
X8263946D02*
X8244054D01*
X8225677Y6112988D01*
X8211612Y6098923D01*
X8204000Y6080546D01*
Y6060654D01*
X8211612Y6042277D01*
X8225677Y6028212D01*
X8244054Y6020600D01*
X8263946D01*
X8282323Y6028212D01*
X8296388Y6042277D01*
X8304000Y6060654D01*
Y6080546D01*
X8296388Y6098923D01*
X8282323Y6112988D01*
X8263946Y6120600D01*
D02*
G37*
G36*
X7882946D02*
X7863054D01*
X7844677Y6112988D01*
X7830612Y6098923D01*
X7823000Y6080546D01*
Y6060654D01*
X7830612Y6042277D01*
X7844677Y6028212D01*
X7863054Y6020600D01*
X7882946D01*
X7901323Y6028212D01*
X7915388Y6042277D01*
X7923000Y6060654D01*
Y6080546D01*
X7915388Y6098923D01*
X7901323Y6112988D01*
X7882946Y6120600D01*
D02*
G37*
G36*
X10299494Y4801500D02*
X10272505D01*
X10246436Y4794515D01*
X10223063Y4781020D01*
X10203979Y4761936D01*
X10190485Y4738564D01*
X10183500Y4712494D01*
Y4685506D01*
X10190485Y4659436D01*
X10203979Y4636064D01*
X10223063Y4616980D01*
X10246436Y4603485D01*
X10272505Y4596500D01*
X10299494D01*
X10325563Y4603485D01*
X10348936Y4616980D01*
X10368020Y4636064D01*
X10381514Y4659436D01*
X10388499Y4685506D01*
Y4712494D01*
X10381514Y4738564D01*
X10368020Y4761936D01*
X10348936Y4781020D01*
X10325563Y4794515D01*
X10299494Y4801500D01*
D02*
G37*
G36*
X8013494D02*
X7986505D01*
X7960436Y4794515D01*
X7937063Y4781020D01*
X7917979Y4761936D01*
X7904485Y4738564D01*
X7897500Y4712494D01*
Y4685506D01*
X7904485Y4659436D01*
X7917979Y4636064D01*
X7937063Y4616980D01*
X7960436Y4603485D01*
X7986505Y4596500D01*
X8013494D01*
X8039563Y4603485D01*
X8062936Y4616980D01*
X8082020Y4636064D01*
X8095514Y4659436D01*
X8102499Y4685506D01*
Y4712494D01*
X8095514Y4738564D01*
X8082020Y4761936D01*
X8062936Y4781020D01*
X8039563Y4794515D01*
X8013494Y4801500D01*
D02*
G37*
G36*
X9762000Y4932500D02*
X9542000D01*
Y4883127D01*
X9470762Y4811889D01*
X9461921Y4798657D01*
X9458816Y4783050D01*
X9458816Y4783049D01*
Y4749900D01*
X9383600D01*
Y4607900D01*
X9615600D01*
Y4620116D01*
X9636616D01*
Y4343401D01*
X9636616Y4343400D01*
X9639721Y4327793D01*
X9648562Y4314562D01*
X9699716Y4263407D01*
Y4208380D01*
X9702821Y4192773D01*
X9703671Y4191500D01*
X9700141Y4178800D01*
X9605500D01*
Y4138547D01*
X9604814Y4135100D01*
Y4097182D01*
X9588500D01*
X9570942Y4093689D01*
X9556057Y4083743D01*
X9550514Y4078200D01*
X9541842D01*
X9525311Y4073770D01*
X9510489Y4065213D01*
X9509886Y4064609D01*
X9497186Y4069870D01*
Y4168829D01*
X9494469Y4182485D01*
X9488092Y4192030D01*
X9488600Y4193257D01*
Y4214143D01*
X9480607Y4233439D01*
X9465839Y4248207D01*
X9446543Y4256200D01*
X9425657D01*
X9406361Y4248207D01*
X9391593Y4233439D01*
X9383600Y4214143D01*
Y4193257D01*
X9391593Y4173961D01*
X9406361Y4159193D01*
X9425657Y4151200D01*
X9425814D01*
Y4081868D01*
X9413114Y4076607D01*
X9403403Y4086318D01*
X9382197Y4098562D01*
X9358544Y4104900D01*
X9334057D01*
X9310404Y4098562D01*
X9289197Y4086318D01*
X9271882Y4069003D01*
X9259638Y4047797D01*
X9253300Y4024144D01*
Y3999656D01*
X9259638Y3976003D01*
X9271882Y3954797D01*
X9281393Y3945286D01*
X9276132Y3932586D01*
X9044800D01*
X9041353Y3931900D01*
X8992808D01*
X8985782Y3931900D01*
X8979971Y3944050D01*
X8990718Y3954797D01*
X9002962Y3976003D01*
X9009300Y3999656D01*
Y4024144D01*
X9002962Y4047797D01*
X8990718Y4069003D01*
X8973403Y4086318D01*
X8952196Y4098562D01*
X8928543Y4104900D01*
X8904056D01*
X8880403Y4098562D01*
X8859197Y4086318D01*
X8841882Y4069003D01*
X8829638Y4047797D01*
X8823300Y4024144D01*
Y3999656D01*
X8829638Y3976003D01*
X8841882Y3954797D01*
X8859197Y3937482D01*
X8880403Y3925238D01*
X8904056Y3918900D01*
X8928543D01*
X8952196Y3925238D01*
X8970129Y3935591D01*
X8980501Y3929006D01*
X8981300Y3928053D01*
X8981300Y3921056D01*
Y3827488D01*
X8928470D01*
X8873529Y3882429D01*
X8863605Y3889059D01*
X8851900Y3891388D01*
X8851899Y3891388D01*
X8819359D01*
X8805439Y3905307D01*
X8786143Y3913300D01*
X8765257D01*
X8745961Y3905307D01*
X8731193Y3890539D01*
X8723200Y3871243D01*
Y3850357D01*
X8731193Y3831061D01*
X8745961Y3816293D01*
X8765257Y3808300D01*
X8786143D01*
X8805439Y3816293D01*
X8819359Y3830212D01*
X8839230D01*
X8885452Y3783991D01*
X8886270Y3782094D01*
X8884957Y3766525D01*
X8837118Y3718686D01*
X8814261D01*
X8805439Y3727507D01*
X8786143Y3735500D01*
X8765257D01*
X8745961Y3727507D01*
X8731193Y3712739D01*
X8723200Y3693443D01*
Y3672557D01*
X8731193Y3653261D01*
X8745961Y3638493D01*
X8765257Y3630500D01*
X8786143D01*
X8805439Y3638493D01*
X8807653Y3640707D01*
X8810185Y3640204D01*
X8814365Y3626423D01*
X8697142Y3509200D01*
X8615400D01*
Y3374200D01*
X8740400D01*
Y3465942D01*
X8810600Y3536142D01*
X8823300Y3530882D01*
Y3519656D01*
X8829638Y3496003D01*
X8841882Y3474797D01*
X8859197Y3457482D01*
X8880403Y3445238D01*
X8904056Y3438900D01*
X8928543D01*
X8952196Y3445238D01*
X8973403Y3457482D01*
X8990718Y3474797D01*
X9002962Y3496003D01*
X9009300Y3519656D01*
Y3544144D01*
X9002962Y3567797D01*
X8990718Y3589003D01*
X8979971Y3599750D01*
X8985782Y3611900D01*
X8992406Y3611900D01*
X9041353D01*
X9044800Y3611214D01*
X9276132D01*
X9281393Y3598514D01*
X9271882Y3589003D01*
X9259638Y3567797D01*
X9253300Y3544144D01*
Y3519656D01*
X9259638Y3496003D01*
X9271882Y3474797D01*
X9289197Y3457482D01*
X9310404Y3445238D01*
X9334057Y3438900D01*
X9358544D01*
X9382197Y3445238D01*
X9403403Y3457482D01*
X9420718Y3474797D01*
X9432962Y3496003D01*
X9439300Y3519656D01*
Y3544144D01*
X9432962Y3567797D01*
X9420718Y3589003D01*
X9411207Y3598514D01*
X9416468Y3611214D01*
X9438100D01*
X9451756Y3613931D01*
X9463334Y3621666D01*
X9607384Y3765716D01*
X9715734Y3874066D01*
X9723469Y3885644D01*
X9726186Y3899300D01*
Y3923800D01*
X9754814D01*
Y3900100D01*
X9757531Y3886444D01*
X9765266Y3874866D01*
X9883014Y3757118D01*
Y3736600D01*
X9851200D01*
Y3611600D01*
X9986200D01*
Y3736600D01*
X9954386D01*
Y3771900D01*
X9951669Y3785556D01*
X9943934Y3797134D01*
X9826186Y3914881D01*
Y3967500D01*
X9825500Y3970948D01*
Y4030800D01*
X9776186D01*
Y4135100D01*
Y4189789D01*
X9778179Y4192773D01*
X9781283Y4208380D01*
Y4280299D01*
X9781284Y4280300D01*
X9778179Y4295907D01*
X9769338Y4309138D01*
X9718184Y4360293D01*
Y4643325D01*
X9718184Y4643326D01*
X9715079Y4658933D01*
X9706238Y4672165D01*
X9706238Y4672165D01*
X9688665Y4689738D01*
X9675434Y4698579D01*
X9659826Y4701684D01*
X9659825Y4701684D01*
X9615600D01*
Y4749900D01*
X9540384D01*
Y4766157D01*
X9599726Y4825500D01*
X9691314D01*
Y4776400D01*
X9694031Y4762744D01*
X9701766Y4751166D01*
X9781414Y4671518D01*
Y4638300D01*
X9749600D01*
Y4513300D01*
X9884600D01*
Y4638300D01*
X9852786D01*
Y4686300D01*
X9850069Y4699956D01*
X9842334Y4711534D01*
X9762686Y4791181D01*
Y4869200D01*
X9762000Y4872648D01*
Y4932500D01*
D02*
G37*
G36*
X8581800Y4570100D02*
X8451800D01*
Y4500100D01*
X8581800D01*
Y4570100D01*
D02*
G37*
G36*
X8721800Y4505100D02*
X8651800D01*
Y4375100D01*
X8721800D01*
Y4505100D01*
D02*
G37*
G36*
X10299494Y4547500D02*
X10272505D01*
X10246436Y4540515D01*
X10223063Y4527020D01*
X10203979Y4507936D01*
X10190485Y4484564D01*
X10183500Y4458494D01*
Y4431506D01*
X10190485Y4405436D01*
X10203979Y4382064D01*
X10223063Y4362980D01*
X10246436Y4349485D01*
X10272505Y4342500D01*
X10299494D01*
X10325563Y4349485D01*
X10348936Y4362980D01*
X10368020Y4382064D01*
X10381514Y4405436D01*
X10388499Y4431506D01*
Y4458494D01*
X10381514Y4484564D01*
X10368020Y4507936D01*
X10348936Y4527020D01*
X10325563Y4540515D01*
X10299494Y4547500D01*
D02*
G37*
G36*
X8013494Y4293500D02*
X7986505D01*
X7960436Y4286515D01*
X7937063Y4273020D01*
X7917979Y4253936D01*
X7904485Y4230564D01*
X7897500Y4204494D01*
Y4177506D01*
X7904485Y4151436D01*
X7917979Y4128064D01*
X7937063Y4108980D01*
X7960436Y4095485D01*
X7986505Y4088500D01*
X8013494D01*
X8039563Y4095485D01*
X8062936Y4108980D01*
X8082020Y4128064D01*
X8095514Y4151436D01*
X8102499Y4177506D01*
Y4204494D01*
X8095514Y4230564D01*
X8082020Y4253936D01*
X8062936Y4273020D01*
X8039563Y4286515D01*
X8013494Y4293500D01*
D02*
G37*
G36*
X9144130Y4211400D02*
X9118470D01*
X9094764Y4201580D01*
X9076620Y4183436D01*
X9066800Y4159730D01*
Y4134070D01*
X9076620Y4110364D01*
X9094764Y4092220D01*
X9118470Y4082400D01*
X9144130D01*
X9167836Y4092220D01*
X9185980Y4110364D01*
X9195800Y4134070D01*
Y4159730D01*
X9185980Y4183436D01*
X9167836Y4201580D01*
X9144130Y4211400D01*
D02*
G37*
G36*
X8013494Y4039500D02*
X7986505D01*
X7960436Y4032515D01*
X7937063Y4019020D01*
X7917979Y3999936D01*
X7904485Y3976564D01*
X7897500Y3950494D01*
Y3923506D01*
X7904485Y3897436D01*
X7917979Y3874064D01*
X7937063Y3854980D01*
X7960436Y3841485D01*
X7986505Y3834500D01*
X8013494D01*
X8039563Y3841485D01*
X8062936Y3854980D01*
X8082020Y3874064D01*
X8095514Y3897436D01*
X8102499Y3923506D01*
Y3950494D01*
X8095514Y3976564D01*
X8082020Y3999936D01*
X8062936Y4019020D01*
X8039563Y4032515D01*
X8013494Y4039500D01*
D02*
G37*
G36*
X10299494Y3785500D02*
X10272505D01*
X10246436Y3778515D01*
X10223063Y3765020D01*
X10203979Y3745936D01*
X10190485Y3722564D01*
X10183500Y3696494D01*
Y3669506D01*
X10190485Y3643436D01*
X10203979Y3620064D01*
X10223063Y3600980D01*
X10246436Y3587485D01*
X10272505Y3580500D01*
X10299494D01*
X10325563Y3587485D01*
X10348936Y3600980D01*
X10368020Y3620064D01*
X10381514Y3643436D01*
X10388499Y3669506D01*
Y3696494D01*
X10381514Y3722564D01*
X10368020Y3745936D01*
X10348936Y3765020D01*
X10325563Y3778515D01*
X10299494Y3785500D01*
D02*
G37*
G36*
X8013494D02*
X7986505D01*
X7960436Y3778515D01*
X7937063Y3765020D01*
X7917979Y3745936D01*
X7904485Y3722564D01*
X7897500Y3696494D01*
Y3669506D01*
X7904485Y3643436D01*
X7917979Y3620064D01*
X7937063Y3600980D01*
X7960436Y3587485D01*
X7986505Y3580500D01*
X8013494D01*
X8039563Y3587485D01*
X8062936Y3600980D01*
X8082020Y3620064D01*
X8095514Y3643436D01*
X8102499Y3669506D01*
Y3696494D01*
X8095514Y3722564D01*
X8082020Y3745936D01*
X8062936Y3765020D01*
X8039563Y3778515D01*
X8013494Y3785500D01*
D02*
G37*
G36*
X9140450Y3442900D02*
X9122150D01*
X9105243Y3435897D01*
X9092303Y3422957D01*
X9085300Y3406050D01*
Y3387750D01*
X9092303Y3370843D01*
X9105243Y3357903D01*
X9122150Y3350900D01*
X9140450D01*
X9157357Y3357903D01*
X9170297Y3370843D01*
X9177300Y3387750D01*
Y3406050D01*
X9170297Y3422957D01*
X9157357Y3435897D01*
X9140450Y3442900D01*
D02*
G37*
G36*
X10299494Y3531500D02*
X10272505D01*
X10246436Y3524515D01*
X10223063Y3511020D01*
X10203979Y3491936D01*
X10190485Y3468564D01*
X10183500Y3442494D01*
Y3415506D01*
X10190485Y3389436D01*
X10203979Y3366064D01*
X10223063Y3346980D01*
X10246436Y3333485D01*
X10272505Y3326500D01*
X10299494D01*
X10325563Y3333485D01*
X10348936Y3346980D01*
X10368020Y3366064D01*
X10381514Y3389436D01*
X10388499Y3415506D01*
Y3442494D01*
X10381514Y3468564D01*
X10368020Y3491936D01*
X10348936Y3511020D01*
X10325563Y3524515D01*
X10299494Y3531500D01*
D02*
G37*
G36*
X8013494D02*
X7986505D01*
X7960436Y3524515D01*
X7937063Y3511020D01*
X7917979Y3491936D01*
X7904485Y3468564D01*
X7897500Y3442494D01*
Y3415506D01*
X7904485Y3389436D01*
X7917979Y3366064D01*
X7937063Y3346980D01*
X7960436Y3333485D01*
X7986505Y3326500D01*
X8013494D01*
X8039563Y3333485D01*
X8062936Y3346980D01*
X8082020Y3366064D01*
X8095514Y3389436D01*
X8102499Y3415506D01*
Y3442494D01*
X8095514Y3468564D01*
X8082020Y3491936D01*
X8062936Y3511020D01*
X8039563Y3524515D01*
X8013494Y3531500D01*
D02*
G37*
G36*
X9628143Y3452300D02*
X9607257D01*
X9587961Y3444307D01*
X9573193Y3429539D01*
X9565200Y3410243D01*
Y3389357D01*
X9573193Y3370061D01*
X9574720Y3368533D01*
X9569860Y3356800D01*
X9555200D01*
Y3221800D01*
X9680200D01*
Y3356800D01*
X9665540D01*
X9660680Y3368533D01*
X9662207Y3370061D01*
X9670200Y3389357D01*
Y3410243D01*
X9662207Y3429539D01*
X9647439Y3444307D01*
X9628143Y3452300D01*
D02*
G37*
G36*
X9986200Y3576600D02*
X9851200D01*
Y3451600D01*
X9888094D01*
Y3366612D01*
X9883869Y3364173D01*
X9871767Y3352071D01*
X9863210Y3337249D01*
X9858780Y3320718D01*
Y3303602D01*
X9863210Y3287071D01*
X9871767Y3272249D01*
X9883869Y3260147D01*
X9898691Y3251590D01*
X9915222Y3247160D01*
X9932338D01*
X9948869Y3251590D01*
X9963691Y3260147D01*
X9969822Y3266278D01*
X10129835D01*
X10188597Y3207517D01*
X10183500Y3188494D01*
Y3161506D01*
X10190485Y3135436D01*
X10203979Y3112064D01*
X10223063Y3092980D01*
X10246436Y3079485D01*
X10272505Y3072500D01*
X10299494D01*
X10325563Y3079485D01*
X10348936Y3092980D01*
X10368020Y3112064D01*
X10381514Y3135436D01*
X10388499Y3161506D01*
Y3188494D01*
X10381514Y3214564D01*
X10368020Y3237936D01*
X10348936Y3257020D01*
X10325563Y3270515D01*
X10299494Y3277500D01*
X10272505D01*
X10253483Y3272403D01*
X10181283Y3344603D01*
X10166398Y3354549D01*
X10148839Y3358042D01*
X9969822D01*
X9963691Y3364173D01*
X9959466Y3366612D01*
Y3451600D01*
X9986200D01*
Y3576600D01*
D02*
G37*
G36*
X8013494Y3277500D02*
X7986505D01*
X7960436Y3270515D01*
X7937063Y3257020D01*
X7917979Y3237936D01*
X7904485Y3214564D01*
X7897500Y3188494D01*
Y3161506D01*
X7904485Y3135436D01*
X7917979Y3112064D01*
X7937063Y3092980D01*
X7960436Y3079485D01*
X7986505Y3072500D01*
X8013494D01*
X8039563Y3079485D01*
X8062936Y3092980D01*
X8082020Y3112064D01*
X8095514Y3135436D01*
X8102499Y3161506D01*
Y3188494D01*
X8095514Y3214564D01*
X8082020Y3237936D01*
X8062936Y3257020D01*
X8039563Y3270515D01*
X8013494Y3277500D01*
D02*
G37*
G36*
X8107899Y3028900D02*
X8012699D01*
Y2933700D01*
X8107899D01*
Y3028900D01*
D02*
G37*
G36*
X10393899D02*
X10298699D01*
Y2933700D01*
X10393899D01*
Y3028900D01*
D02*
G37*
G36*
X10273299D02*
X10178100D01*
Y2933700D01*
X10273299D01*
Y3028900D01*
D02*
G37*
G36*
X7987299D02*
X7892100D01*
Y2933700D01*
X7987299D01*
Y3028900D01*
D02*
G37*
G36*
X10393899Y2908300D02*
X10298699D01*
Y2813100D01*
X10393899D01*
Y2908300D01*
D02*
G37*
G36*
X10273299D02*
X10178100D01*
Y2813100D01*
X10273299D01*
Y2908300D01*
D02*
G37*
G36*
X8107899D02*
X8012699D01*
Y2813100D01*
X8107899D01*
Y2908300D01*
D02*
G37*
G36*
X7987299D02*
X7892100D01*
Y2813100D01*
X7987299D01*
Y2908300D01*
D02*
G37*
%LPD*%
G36*
X10556055Y5735212D02*
X10439430Y5618588D01*
X10377000D01*
Y5678000D01*
X10197000D01*
Y5518851D01*
X10184777Y5513449D01*
X10177888Y5518955D01*
Y5727730D01*
X10198070Y5747912D01*
X10550794D01*
X10556055Y5735212D01*
D02*
G37*
D10*
X9581100Y5648960D02*
D03*
X9291100D02*
D03*
D11*
X9577000Y4879000D02*
D03*
X9627000D02*
D03*
X9677000D02*
D03*
X9727000D02*
D03*
Y5027000D02*
D03*
X9677000D02*
D03*
X9627000D02*
D03*
X9577000D02*
D03*
X9790500Y4125300D02*
D03*
X9740500D02*
D03*
X9690500D02*
D03*
X9640500D02*
D03*
Y3977300D02*
D03*
X9690500D02*
D03*
X9790500D02*
D03*
X9740500D02*
D03*
D12*
X8686800Y4610100D02*
D03*
D13*
X8786800Y4440100D02*
D03*
X8736800D02*
D03*
X8686800D02*
D03*
X8636800D02*
D03*
X8586800D02*
D03*
Y4780100D02*
D03*
X8636800D02*
D03*
X8686800D02*
D03*
X8736800D02*
D03*
X8786800D02*
D03*
D14*
X8516800Y4535100D02*
D03*
Y4685100D02*
D03*
X8856800D02*
D03*
Y4535100D02*
D03*
D15*
X8498840Y5060800D02*
D03*
Y5200800D02*
D03*
X8803640D02*
D03*
Y5060800D02*
D03*
D16*
X9499600Y4678900D02*
D03*
Y4388900D02*
D03*
D17*
X10540000Y8864600D02*
D03*
Y8737600D02*
D03*
Y8610600D02*
D03*
Y8483600D02*
D03*
Y8356600D02*
D03*
Y8229600D02*
D03*
Y8102600D02*
D03*
Y7975600D02*
D03*
Y7848600D02*
D03*
Y7721600D02*
D03*
Y7594600D02*
D03*
Y7467600D02*
D03*
Y7340600D02*
D03*
Y7213600D02*
D03*
Y7086600D02*
D03*
Y6959600D02*
D03*
Y6832600D02*
D03*
Y6705600D02*
D03*
Y6578600D02*
D03*
Y6451600D02*
D03*
Y6324600D02*
D03*
Y6197600D02*
D03*
Y6070600D02*
D03*
X10413000Y8864600D02*
D03*
Y8737600D02*
D03*
Y8610600D02*
D03*
Y8483600D02*
D03*
Y8356600D02*
D03*
Y8229600D02*
D03*
Y8102600D02*
D03*
Y7975600D02*
D03*
Y7848600D02*
D03*
Y7721600D02*
D03*
Y7594600D02*
D03*
Y7467600D02*
D03*
Y7340600D02*
D03*
Y7213600D02*
D03*
Y7086600D02*
D03*
Y6959600D02*
D03*
Y6832600D02*
D03*
Y6705600D02*
D03*
Y6578600D02*
D03*
Y6451600D02*
D03*
Y6324600D02*
D03*
Y6197600D02*
D03*
Y6070600D02*
D03*
X10286000Y8864600D02*
D03*
Y8737600D02*
D03*
Y8610600D02*
D03*
Y8483600D02*
D03*
Y8356600D02*
D03*
Y8229600D02*
D03*
Y8102600D02*
D03*
Y7975600D02*
D03*
Y7848600D02*
D03*
Y7721600D02*
D03*
Y7594600D02*
D03*
Y7467600D02*
D03*
Y7340600D02*
D03*
Y7213600D02*
D03*
Y7086600D02*
D03*
Y6959600D02*
D03*
Y6832600D02*
D03*
Y6705600D02*
D03*
Y6578600D02*
D03*
Y6451600D02*
D03*
Y6324600D02*
D03*
Y6197600D02*
D03*
Y6070600D02*
D03*
X10159000Y8864600D02*
D03*
Y8737600D02*
D03*
Y8610600D02*
D03*
Y6324600D02*
D03*
Y6197600D02*
D03*
Y6070600D02*
D03*
X10032000Y8864600D02*
D03*
Y8737600D02*
D03*
Y8610600D02*
D03*
Y6324600D02*
D03*
Y6197600D02*
D03*
Y6070600D02*
D03*
X9905000Y8864600D02*
D03*
Y8737600D02*
D03*
Y8610600D02*
D03*
Y6324600D02*
D03*
Y6197600D02*
D03*
Y6070600D02*
D03*
X9778000Y8864600D02*
D03*
Y8737600D02*
D03*
Y8610600D02*
D03*
Y6324600D02*
D03*
Y6197600D02*
D03*
Y6070600D02*
D03*
X9651000Y8864600D02*
D03*
Y8737600D02*
D03*
Y8610600D02*
D03*
Y6324600D02*
D03*
Y6197600D02*
D03*
Y6070600D02*
D03*
X9524000Y8864600D02*
D03*
Y8737600D02*
D03*
Y8610600D02*
D03*
Y6324600D02*
D03*
Y6197600D02*
D03*
Y6070600D02*
D03*
X9397000Y8864600D02*
D03*
Y8737600D02*
D03*
Y8610600D02*
D03*
Y6324600D02*
D03*
Y6197600D02*
D03*
Y6070600D02*
D03*
X9270000Y8864600D02*
D03*
Y8737600D02*
D03*
Y8610600D02*
D03*
Y6324600D02*
D03*
Y6197600D02*
D03*
Y6070600D02*
D03*
X9143000Y8864600D02*
D03*
Y8737600D02*
D03*
Y8610600D02*
D03*
Y6324600D02*
D03*
Y6197600D02*
D03*
Y6070600D02*
D03*
X9016000Y8864600D02*
D03*
Y8737600D02*
D03*
Y8610600D02*
D03*
Y6324600D02*
D03*
Y6197600D02*
D03*
Y6070600D02*
D03*
X8889000Y8864600D02*
D03*
Y8737600D02*
D03*
Y8610600D02*
D03*
Y6324600D02*
D03*
Y6197600D02*
D03*
Y6070600D02*
D03*
X8762000Y8864600D02*
D03*
Y8737600D02*
D03*
Y8610600D02*
D03*
Y6324600D02*
D03*
Y6197600D02*
D03*
Y6070600D02*
D03*
X8635000Y8864600D02*
D03*
Y8737600D02*
D03*
Y8610600D02*
D03*
Y6324600D02*
D03*
Y6197600D02*
D03*
Y6070600D02*
D03*
X8508000Y8864600D02*
D03*
Y8737600D02*
D03*
Y8610600D02*
D03*
Y6324600D02*
D03*
Y6197600D02*
D03*
Y6070600D02*
D03*
X8381000Y8864600D02*
D03*
Y8737600D02*
D03*
Y8610600D02*
D03*
Y6324600D02*
D03*
Y6197600D02*
D03*
Y6070600D02*
D03*
X8254000Y8864600D02*
D03*
Y8737600D02*
D03*
Y8610600D02*
D03*
Y6324600D02*
D03*
Y6197600D02*
D03*
Y6070600D02*
D03*
X8127000Y8864600D02*
D03*
Y8737600D02*
D03*
Y8610600D02*
D03*
Y6324600D02*
D03*
Y6197600D02*
D03*
Y6070600D02*
D03*
X8000000Y8864600D02*
D03*
Y8737600D02*
D03*
Y8610600D02*
D03*
Y8483600D02*
D03*
Y8356600D02*
D03*
Y8229600D02*
D03*
Y8102600D02*
D03*
Y7975600D02*
D03*
Y7848600D02*
D03*
Y7721600D02*
D03*
Y7594600D02*
D03*
Y7467600D02*
D03*
Y7340600D02*
D03*
Y7213600D02*
D03*
Y7086600D02*
D03*
Y6959600D02*
D03*
Y6832600D02*
D03*
Y6705600D02*
D03*
Y6578600D02*
D03*
Y6451600D02*
D03*
Y6324600D02*
D03*
Y6197600D02*
D03*
Y6070600D02*
D03*
X7873000Y8864600D02*
D03*
Y8737600D02*
D03*
Y8610600D02*
D03*
Y8483600D02*
D03*
Y8356600D02*
D03*
Y8229600D02*
D03*
Y8102600D02*
D03*
Y7975600D02*
D03*
Y7848600D02*
D03*
Y7721600D02*
D03*
Y7594600D02*
D03*
Y7467600D02*
D03*
Y7340600D02*
D03*
Y7213600D02*
D03*
Y7086600D02*
D03*
Y6959600D02*
D03*
Y6832600D02*
D03*
Y6705600D02*
D03*
Y6578600D02*
D03*
Y6451600D02*
D03*
Y6324600D02*
D03*
Y6197600D02*
D03*
Y6070600D02*
D03*
X7746000Y8864600D02*
D03*
Y8737600D02*
D03*
Y8610600D02*
D03*
Y8483600D02*
D03*
Y8356600D02*
D03*
Y8229600D02*
D03*
Y8102600D02*
D03*
Y7975600D02*
D03*
Y7848600D02*
D03*
Y7721600D02*
D03*
Y7594600D02*
D03*
Y7467600D02*
D03*
Y7340600D02*
D03*
Y7213600D02*
D03*
Y7086600D02*
D03*
Y6959600D02*
D03*
Y6832600D02*
D03*
Y6705600D02*
D03*
Y6578600D02*
D03*
Y6451600D02*
D03*
Y6324600D02*
D03*
Y6197600D02*
D03*
D18*
X8381480Y9138920D02*
D03*
X8316480D02*
D03*
D19*
X10067280Y9103360D02*
D03*
X9907280D02*
D03*
X10671800D02*
D03*
X10511800D02*
D03*
D20*
X10299700Y9169380D02*
D03*
Y9103380D02*
D03*
D21*
X8498840Y5528300D02*
D03*
Y5368300D02*
D03*
X8803640D02*
D03*
Y5528300D02*
D03*
X8956040Y4685040D02*
D03*
Y4845040D02*
D03*
X8684260Y5060960D02*
D03*
Y5220960D02*
D03*
X9728200Y5401300D02*
D03*
Y5241300D02*
D03*
X9601200D02*
D03*
Y5401300D02*
D03*
X9817100Y4575800D02*
D03*
Y4415800D02*
D03*
X9918700Y3674100D02*
D03*
Y3514100D02*
D03*
D22*
X9217800Y3496900D02*
D03*
Y3646900D02*
D03*
Y3696900D02*
D03*
Y3746900D02*
D03*
Y3796900D02*
D03*
Y3846900D02*
D03*
Y3896900D02*
D03*
Y4046900D02*
D03*
X9044800D02*
D03*
Y3896900D02*
D03*
Y3846900D02*
D03*
Y3796900D02*
D03*
Y3746900D02*
D03*
Y3696900D02*
D03*
Y3646900D02*
D03*
Y3496900D02*
D03*
D23*
X9241700Y5118100D02*
D03*
X9071700D02*
D03*
D24*
X9236700Y5308600D02*
D03*
X9076700D02*
D03*
X9617700Y3289300D02*
D03*
X9457700D02*
D03*
X8677900Y3441700D02*
D03*
X8517900D02*
D03*
D25*
X9474200Y5252300D02*
D03*
Y5390300D02*
D03*
D26*
X8892540Y5013960D02*
Y5651500D01*
X8856800Y4685100D02*
X8955980D01*
X8956040Y4685040D01*
X8786800Y4908220D02*
X8892540Y5013960D01*
X8786800Y4780100D02*
Y4908220D01*
X8736800Y4780100D02*
X8737600Y4780900D01*
Y4935220D01*
X8803640Y5001260D02*
Y5060800D01*
X8737600Y4935220D02*
X8803640Y5001260D01*
X8684260Y5060960D02*
X8686800Y5058420D01*
Y4780100D02*
Y5058420D01*
X8586800Y4780100D02*
Y4844720D01*
X8498840Y4932680D02*
X8586800Y4844720D01*
X8498840Y4932680D02*
Y5060800D01*
X8597900Y4950460D02*
Y5397500D01*
Y4950460D02*
X8636800Y4911560D01*
Y4780100D02*
Y4911560D01*
X8597900Y5397500D02*
X8699500Y5499100D01*
X8064500Y5913120D02*
X8125460Y5852160D01*
X8577580D01*
X8699500Y6350000D02*
X8736600Y6387100D01*
X8699500Y5499100D02*
Y6350000D01*
X7664720Y6497320D02*
X7745500Y6578100D01*
X7586980Y6497320D02*
X7664720D01*
X7658100Y6611774D02*
X7746000Y6699674D01*
X7745500Y6578100D02*
X7746000D01*
X9411900Y3846900D02*
X9461500Y3797300D01*
X9217800Y3846900D02*
X9411900D01*
X10452100Y5588000D02*
X10807700Y5943600D01*
X10287000Y5588000D02*
X10452100D01*
X8736600Y6387100D02*
X9080500D01*
X9143000Y6324600D01*
X7721600Y7531100D02*
X8026400D01*
X7683500Y7569200D02*
Y7659100D01*
Y7569200D02*
X7721600Y7531100D01*
X7683500Y7659100D02*
X7746000Y7721600D01*
X8064500Y5913120D02*
Y7493000D01*
X8026400Y7531100D02*
X8064500Y7493000D01*
X10807700Y5943600D02*
Y6858000D01*
X10706100Y6959600D02*
X10807700Y6858000D01*
X10655300Y6705600D02*
X10706100Y6654800D01*
X10541000Y5829300D02*
X10706100Y5994400D01*
Y6654800D01*
X10160000Y5829300D02*
X10541000D01*
X10096500Y5765800D02*
X10160000Y5829300D01*
X10096500Y5270500D02*
Y5765800D01*
Y5270500D02*
X10287000Y5080000D01*
X8166100Y4610100D02*
Y5283200D01*
X7480300Y5969000D02*
Y7251700D01*
Y5969000D02*
X8166100Y5283200D01*
X7480300Y7251700D02*
X7569200Y7340600D01*
X7873000Y8101600D02*
Y8102600D01*
X8000000Y7974600D02*
Y7975600D01*
Y7848600D02*
Y7849600D01*
X7746000Y7848600D02*
X7747000D01*
X9617700Y3289300D02*
Y3399800D01*
X8677900Y3441700D02*
Y3446700D01*
X8876100Y3644900D01*
X8915400D02*
X8967400Y3696900D01*
X8876100Y3644900D02*
X8915400D01*
X8788400Y3860800D02*
X8851900D01*
X8915800Y3796900D01*
X9106300D01*
X8967400Y3696900D02*
X9044800D01*
X7569200Y7340600D02*
X7746000D01*
X8001000Y4445000D02*
X8166100Y4610100D01*
X7999999Y4445000D02*
X8001000D01*
X10756900Y5969000D02*
Y6781800D01*
X10566400Y5778500D02*
X10756900Y5969000D01*
X10706100Y6832600D02*
X10756900Y6781800D01*
X10185400Y5778500D02*
X10566400D01*
X10540000Y6705600D02*
X10655300D01*
X10540000Y6832600D02*
X10706100D01*
X10147300Y5740400D02*
X10185400Y5778500D01*
X10147300Y5504450D02*
Y5740400D01*
Y5504450D02*
X10286000Y5365750D01*
X9106300Y3796900D02*
X9156300Y3746900D01*
X9217800D01*
X10540000Y6959600D02*
X10706100D01*
X7746000Y6578100D02*
Y6578600D01*
D27*
X9098280Y4810920D02*
X9138920Y4770280D01*
X9098280Y4810920D02*
Y5091520D01*
X8990260Y4535100D02*
X9138920Y4683760D01*
Y4770280D01*
X8856800Y4535100D02*
X8990260D01*
X9591150Y5411350D02*
X9601200Y5401300D01*
X9591150Y5411350D02*
Y5638910D01*
X9581100Y5648960D02*
X9591150Y5638910D01*
X9076700Y5473700D02*
X9381800D01*
X9740500Y4208380D02*
Y4280300D01*
X9381800Y5473700D02*
X9465200Y5390300D01*
X9474200D01*
X9595700Y5395800D02*
X9601200Y5401300D01*
X9479700Y5395800D02*
X9595700D01*
X9474200Y5390300D02*
X9479700Y5395800D01*
X9499600Y4670900D02*
Y4783050D01*
X9577000Y4860450D01*
X9677400Y4343400D02*
Y4643326D01*
X9499600Y4670900D02*
X9509600Y4660900D01*
X9659826D01*
X9677400Y4643326D01*
Y4343400D02*
X9740500Y4280300D01*
X10540000Y6324600D02*
Y6451600D01*
D28*
X9071700Y5118100D02*
X9098280Y5091520D01*
X9071700Y5118100D02*
X9076700Y5123100D01*
Y5308600D02*
Y5473700D01*
Y5123100D02*
Y5308600D01*
X9524000Y8863600D02*
Y8864600D01*
X9461500Y8801100D02*
Y8801100D01*
X9397000Y8864600D02*
X9398000D01*
X9524000D02*
Y8865600D01*
X8051800Y8229600D02*
X8331200D01*
D29*
X8803640Y5215800D02*
Y5368300D01*
X9918700Y3674100D02*
Y3771900D01*
X9790500Y3900100D02*
X9918700Y3771900D01*
X9740500Y3967500D02*
Y4135100D01*
X9918700Y3514100D02*
X9923700D01*
X9923780Y3312160D02*
Y3504020D01*
X9499600Y4388900D02*
X9501700D01*
X9537700Y4352900D01*
Y4127500D02*
Y4352900D01*
X9740500Y4135100D02*
Y4208380D01*
X9577000Y4869200D02*
X9627000D01*
X9577000Y4860450D02*
Y4869200D01*
X9627000D02*
X9677000D01*
X9309100Y4165600D02*
X9359900D01*
X9196200Y4052700D02*
X9309100Y4165600D01*
X9044800Y4046900D02*
X9217800D01*
X8498840Y5200800D02*
Y5353300D01*
X9241700Y5118100D02*
X9254400Y5105400D01*
X9601200D01*
X9627000Y5036800D02*
Y5079600D01*
X9601200Y5105400D02*
X9627000Y5079600D01*
X9236700Y5308600D02*
X9321800D01*
X9359900Y5270500D01*
Y5194300D02*
Y5270500D01*
Y5194300D02*
X9398000Y5156200D01*
X9639300D01*
X9677000Y5118500D01*
Y5036800D02*
Y5118500D01*
X9595700Y5246800D02*
X9601200Y5241300D01*
X9479700Y5246800D02*
X9595700D01*
X9474200Y5252300D02*
X9479700Y5246800D01*
X9601200Y5241300D02*
X9728200D01*
X9727000Y5036800D02*
Y5240100D01*
X9728200Y5241300D01*
X9817100Y4575800D02*
Y4686300D01*
X9727000Y4776400D02*
Y4869200D01*
Y4776400D02*
X9817100Y4686300D01*
X9652000Y5829300D02*
X9944100Y5537200D01*
Y4889500D02*
X9969500Y4864100D01*
X9944100Y4889500D02*
Y5537200D01*
X10007600Y4927600D02*
X10033000Y4902200D01*
X10007600Y4927600D02*
Y5562600D01*
X9677400Y5892800D02*
X10007600Y5562600D01*
X8915400Y5829300D02*
X9652000D01*
X8890000Y5854700D02*
X8915400Y5829300D01*
X9969500Y4253499D02*
Y4864100D01*
Y4253499D02*
X10285999Y3937000D01*
X8685700Y3580300D02*
X8686800Y3581400D01*
X8596800Y3580300D02*
X8685700D01*
X8521700Y3505200D02*
X8596800Y3580300D01*
X8521700Y3445500D02*
Y3505200D01*
X8517900Y3441700D02*
X8521700Y3445500D01*
X7746000Y6324600D02*
X7746500D01*
X7810000Y6261100D01*
X7810500D01*
X9016000Y8864600D02*
Y8865100D01*
X8953500Y8927600D02*
Y8928100D01*
Y8927600D02*
X9016000Y8865100D01*
X9334500Y8673600D02*
Y8674100D01*
X9397000Y8610600D02*
Y8611100D01*
X9334500Y8673600D02*
X9397000Y8611100D01*
X9264150Y8737600D02*
X9270000D01*
X9213350Y8788400D02*
X9264150Y8737600D01*
X10408612Y6324600D02*
X10413000D01*
X10357812Y6375400D02*
X10408612Y6324600D01*
X10353425Y6375400D02*
X10357812D01*
X9588500Y8673600D02*
X9651000Y8611100D01*
X9588000Y8674100D02*
X9588500D01*
X9524000Y8610600D02*
X9524500D01*
X9588000Y8674100D01*
X9651000Y8610600D02*
Y8611100D01*
Y8864600D02*
X9651500D01*
X9715000Y8928100D01*
X9715500D01*
X9778000Y8864600D02*
Y8872718D01*
X9823103Y8917821D01*
Y8946803D01*
X9829800Y8953500D01*
X9327650Y8801100D02*
X9391150Y8737600D01*
X9397000D01*
X9217800Y3393300D02*
X9321800Y3289300D01*
X9044800Y3496900D02*
X9217800D01*
X9436100Y4194229D02*
Y4203700D01*
Y4194229D02*
X9461500Y4168829D01*
Y3896900D02*
Y4168829D01*
Y3896900D02*
X9476200D01*
X9217800D02*
X9461500D01*
X8064500Y8800600D02*
Y8801100D01*
X8127000Y8737600D02*
Y8738100D01*
X8064500Y8800600D02*
X8127000Y8738100D01*
X7937500Y8801100D02*
Y8801600D01*
X8000000Y8864100D01*
Y8864600D01*
X7873000Y6959600D02*
X7873500D01*
X7937000Y7023100D01*
X7937500D01*
X9396842Y6324600D02*
X9397000D01*
X9330655Y6258413D02*
X9396842Y6324600D01*
X9330497Y6258413D02*
X9330655D01*
X10604000Y7912100D02*
X10604500D01*
X10540000Y7848600D02*
X10540500D01*
X10604000Y7912100D01*
X10413500Y7975600D02*
X10464300Y8026400D01*
X10413000Y7975600D02*
X10413500D01*
X10540000Y8610600D02*
X10548118D01*
X10591265Y8567453D01*
X10630772D02*
X10637469Y8560756D01*
X10591265Y8567453D02*
X10630772D01*
X10540000Y8356600D02*
X10596803Y8413403D01*
X10633489D01*
X10032000Y8864600D02*
Y8872718D01*
X9989853Y8914865D02*
X10032000Y8872718D01*
X9989853Y8914865D02*
Y8954372D01*
X9983156Y8961069D02*
X9989853Y8954372D01*
X10286000Y8610600D02*
X10286500D01*
X10413000Y8737100D02*
Y8737600D01*
X10350500Y8674600D02*
X10413000Y8737100D01*
X10350500Y8674100D02*
Y8674600D01*
X10350000Y8674100D02*
X10350500D01*
X7746000Y7975600D02*
X7809500Y7912100D01*
X10159000Y6197600D02*
X10159500D01*
X10223000Y6134100D01*
X10223500D01*
X9778000Y6197600D02*
X9778500D01*
X9842000Y6134100D01*
X9842500D01*
X9524000Y6324100D02*
Y6324600D01*
X9461500Y6261600D02*
X9524000Y6324100D01*
X9461500Y6261100D02*
Y6261600D01*
X9397000Y6070600D02*
X9397500D01*
X9461000Y6134100D01*
X9397000Y6197100D02*
Y6197600D01*
X9334500Y6134600D02*
X9397000Y6197100D01*
X9334500Y6134100D02*
Y6134600D01*
X8889000Y6197100D02*
Y6197600D01*
X8826500Y6134600D02*
X8889000Y6197100D01*
X8826500Y6134100D02*
Y6134600D01*
X8508000Y6197600D02*
X8508500D01*
X8572000Y6134100D01*
X8254000Y6197600D02*
X8254500D01*
X8318000Y6134100D01*
X8318500D01*
X8127000Y6197600D02*
X8127500D01*
X8191000Y6261100D01*
X8191500D01*
X10413000Y6197600D02*
X10413500D01*
X10477000Y6261100D01*
X10477500D01*
X10413000Y6451600D02*
X10413500D01*
X10477000Y6515100D01*
X10477500D01*
X10413000Y6578600D02*
X10413500D01*
X10477000Y6642100D01*
X10477500D01*
X10413000Y6705600D02*
X10413500D01*
X10477000Y6769100D01*
X10477500D01*
X10413000Y6832600D02*
X10413500D01*
X10477000Y6896100D01*
X10477500D01*
X10413000Y6959600D02*
X10413500D01*
X10477000Y7023100D01*
X10477500D01*
X10413000Y7721600D02*
X10413500D01*
X10477000Y7785100D01*
X10477500D01*
X10540000Y7594100D02*
Y7594600D01*
X10477500Y7531600D02*
X10540000Y7594100D01*
X10477500Y7531100D02*
Y7531600D01*
X10413000Y7594600D02*
X10413500D01*
X10477000Y7658100D01*
X10477500D01*
X10286000Y7594600D02*
X10286500D01*
X10350000Y7658100D01*
X10350500D01*
X10286000Y7721600D02*
X10286500D01*
X10350000Y7785100D01*
X10350500D01*
X10413000Y7848600D02*
X10413500D01*
X10477000Y7912100D01*
X10477500D01*
X10286000Y7848600D02*
X10286500D01*
X10350000Y7912100D01*
X10350500D01*
X10286000Y7975600D02*
X10286500D01*
X10350000Y8039100D01*
X10350500D01*
X10413000Y8102600D02*
X10413500D01*
X10477000Y8166100D01*
X10477500D01*
X10540000Y8229600D02*
X10540500D01*
X10604000Y8293100D01*
X10604500D01*
X10413000Y8229600D02*
X10413500D01*
X10477000Y8293100D01*
X10477500D01*
X10286000Y8102600D02*
X10286500D01*
X10350000Y8166100D01*
X10350500D01*
X10286000Y8229600D02*
X10286500D01*
X10350000Y8293100D01*
X10350500D01*
X10540000Y7975600D02*
Y8102600D01*
Y8737600D02*
X10540500D01*
X10604000Y8674100D01*
X10604500D01*
X10540000Y8864100D02*
Y8864600D01*
X10477500Y8801600D02*
X10540000Y8864100D01*
X10477500Y8801100D02*
Y8801600D01*
X10413000Y8864600D02*
Y8865100D01*
X10350500Y8927600D02*
X10413000Y8865100D01*
X10350500Y8927600D02*
Y8928100D01*
X10286000Y8737600D02*
X10286500D01*
X10350000Y8801100D01*
X10350500D01*
X10286000Y8864600D02*
Y8865100D01*
X10223500Y8927600D02*
X10286000Y8865100D01*
X10223500Y8927600D02*
Y8928100D01*
X10159000Y8864600D02*
Y8865100D01*
X10096500Y8927600D02*
X10159000Y8865100D01*
X10096500Y8927600D02*
Y8928100D01*
X10159000Y8737600D02*
X10159500D01*
X10223000Y8801100D01*
X10223500D01*
X10032000Y8737600D02*
X10032500D01*
X10096000Y8801100D01*
X10096500D01*
X9905000Y8737600D02*
X9905500D01*
X9969000Y8801100D01*
X9969500D01*
X9778000Y8737600D02*
X9778500D01*
X9842000Y8801100D01*
X9842500D01*
X9651000Y8737600D02*
X9651500D01*
X9715000Y8801100D01*
X9715500D01*
X10286000Y8610600D02*
Y8611100D01*
X10223500Y8673600D02*
X10286000Y8611100D01*
X10223500Y8673600D02*
Y8674100D01*
X10159000Y8610600D02*
Y8611100D01*
X10096500Y8673600D02*
X10159000Y8611100D01*
X10096500Y8673600D02*
Y8674100D01*
X10032000Y8610600D02*
Y8611100D01*
X9969500Y8673600D02*
X10032000Y8611100D01*
X9969500Y8673600D02*
Y8674100D01*
X9905000Y8610600D02*
Y8611100D01*
X9842500Y8673600D02*
X9905000Y8611100D01*
X9842500Y8673600D02*
Y8674100D01*
X9778000Y8610600D02*
Y8611100D01*
X9715500Y8673600D02*
X9778000Y8611100D01*
X9715500Y8673600D02*
Y8674100D01*
X10159000Y8610600D02*
X10159500D01*
X10223000Y8674100D02*
X10223500D01*
X10413000Y8610600D02*
X10413500D01*
X10477000Y8674100D01*
X10477500D01*
X10286000Y8483600D02*
X10286500D01*
X10350000Y8547100D01*
X10350500D01*
X10413000Y8483600D02*
X10413500D01*
X10477000Y8547100D01*
X10477500D01*
X10413000Y8356600D02*
X10413500D01*
X10477000Y8420100D01*
X10477500D01*
X10286000Y8356600D02*
X10286500D01*
X10350000Y8420100D01*
X10350500D01*
X9524000Y8737600D02*
X9525000D01*
X9588500Y8801100D01*
X9143000Y8864600D02*
X9270000D01*
Y8610600D02*
Y8611100D01*
X9207500Y8673600D02*
X9270000Y8611100D01*
X9207500Y8673600D02*
Y8674100D01*
X9143000Y8737600D02*
Y8738100D01*
X9080500Y8800600D02*
X9143000Y8738100D01*
X9080500Y8800600D02*
Y8801100D01*
X9143000Y8610600D02*
Y8611100D01*
X9080500Y8673600D02*
X9143000Y8611100D01*
X9080500Y8673600D02*
Y8674100D01*
X9016000Y8610600D02*
Y8611100D01*
X8953500Y8673600D02*
X9016000Y8611100D01*
X8953500Y8673600D02*
Y8674100D01*
X9016000Y8737600D02*
Y8738100D01*
X8953500Y8800600D02*
X9016000Y8738100D01*
X8953500Y8800600D02*
Y8801100D01*
X8889000Y8864600D02*
Y8865100D01*
X8826500Y8927600D02*
X8889000Y8865100D01*
X8826500Y8927600D02*
Y8928100D01*
X8889000Y8737600D02*
Y8738100D01*
X8826500Y8800600D02*
X8889000Y8738100D01*
X8826500Y8800600D02*
Y8801100D01*
X8889000Y8610600D02*
Y8611100D01*
X8826500Y8673600D02*
X8889000Y8611100D01*
X8826500Y8673600D02*
Y8674100D01*
X8762000Y8610600D02*
Y8611100D01*
X8699500Y8673600D02*
X8762000Y8611100D01*
X8699500Y8673600D02*
Y8674100D01*
X8762000Y8737600D02*
Y8738100D01*
X8699500Y8800600D02*
X8762000Y8738100D01*
X8699500Y8800600D02*
Y8801100D01*
X8762000Y8864600D02*
Y8865100D01*
X8699500Y8927600D02*
X8762000Y8865100D01*
X8699500Y8927600D02*
Y8928100D01*
X8635000Y8864600D02*
Y8865100D01*
X8572500Y8927600D02*
X8635000Y8865100D01*
X8572500Y8927600D02*
Y8928100D01*
X8635000Y8737600D02*
Y8738100D01*
X8572500Y8800600D02*
X8635000Y8738100D01*
X8572500Y8800600D02*
Y8801100D01*
X8635000Y8610600D02*
Y8611100D01*
X8572500Y8673600D02*
X8635000Y8611100D01*
X8572500Y8673600D02*
Y8674100D01*
X7746000Y8864600D02*
X7746500D01*
X7810000Y8928100D01*
X7810500D01*
X8508000Y8610600D02*
Y8611100D01*
X8445500Y8673600D02*
X8508000Y8611100D01*
X8445500Y8673600D02*
Y8674100D01*
X8508000Y8864100D02*
Y8864600D01*
X8445500Y8801600D02*
X8508000Y8864100D01*
X8445500Y8801100D02*
Y8801600D01*
X8381000Y8864600D02*
Y8865100D01*
X8318500Y8927600D02*
X8381000Y8865100D01*
X8318500Y8927600D02*
Y8928100D01*
X8381000Y8737600D02*
Y8738100D01*
X8318500Y8800600D02*
X8381000Y8738100D01*
X8318500Y8800600D02*
Y8801100D01*
X8254000Y8737600D02*
Y8738100D01*
X8191500Y8800600D02*
X8254000Y8738100D01*
X8191500Y8800600D02*
Y8801100D01*
X8254000Y8864600D02*
Y8865100D01*
X8191500Y8927600D02*
X8254000Y8865100D01*
X8191500Y8927600D02*
Y8928100D01*
X8127000Y8864600D02*
Y8865100D01*
X8064500Y8927600D02*
X8127000Y8865100D01*
X8064500Y8927600D02*
Y8928100D01*
X8381000Y8610600D02*
Y8611100D01*
X8318500Y8673600D02*
X8381000Y8611100D01*
X8318500Y8673600D02*
Y8674100D01*
X8254000Y8610600D02*
Y8611100D01*
X8191500Y8673600D02*
X8254000Y8611100D01*
X8191500Y8673600D02*
Y8674100D01*
X8127000Y8610600D02*
Y8611100D01*
X8064500Y8673600D02*
X8127000Y8611100D01*
X8064500Y8673600D02*
Y8674100D01*
X7746000Y8737600D02*
X7746500D01*
X7810000Y8801100D01*
X7810500D01*
X7746000Y8610600D02*
X7746500D01*
X7810000Y8674100D01*
X7810500D01*
X7873000Y8610600D02*
X7873500D01*
X7937000Y8674100D01*
X7937500D01*
X7747000Y7848100D02*
Y7848600D01*
Y7848100D02*
X7810000Y7785100D01*
X7810500D01*
X7746000Y8102100D02*
Y8102600D01*
X7683500Y8039600D02*
X7746000Y8102100D01*
X7683500Y8039100D02*
Y8039600D01*
X8000000Y7848100D02*
Y7848600D01*
X7937500Y7785600D02*
X8000000Y7848100D01*
X7937500Y7785100D02*
Y7785600D01*
X7944784Y8047384D02*
X8000000Y8102600D01*
X7818784Y8047384D02*
X7873000Y8101600D01*
X7937500Y7912100D02*
X8000000Y7974600D01*
X7810500Y7658100D02*
X7873000Y7595600D01*
Y7594600D02*
Y7595600D01*
Y6451600D02*
X8000000D01*
X7873000Y6450600D02*
Y6451600D01*
X7810500Y6388100D02*
X7873000Y6450600D01*
X7747000Y6451600D02*
X7810500Y6388100D01*
X7746000Y6451600D02*
X7747000D01*
X7873000Y6577600D02*
Y6578600D01*
X7810500Y6515100D02*
X7873000Y6577600D01*
X7810500Y6895600D02*
Y6896100D01*
X7873000Y6832600D02*
Y6833100D01*
X7810500Y6895600D02*
X7873000Y6833100D01*
X7658100Y6744700D02*
X7746000Y6832600D01*
X7658100Y6743700D02*
Y6744700D01*
X7810500Y6643100D02*
X7873000Y6705600D01*
X7810500Y6642100D02*
Y6643100D01*
X7873000Y6832600D02*
X7874000D01*
X8000000D02*
Y6833600D01*
X7937500Y6896100D02*
X8000000Y6833600D01*
X7746000Y6832600D02*
X7747000D01*
X9817100Y4218825D02*
Y4415800D01*
Y4170450D02*
Y4218825D01*
X9852775D01*
X9906000Y4165600D01*
X7742664Y6956264D02*
X7746000Y6959600D01*
X7661715Y6956264D02*
X7742664D01*
X7601551Y6896100D02*
X7661715Y6956264D01*
X7594600Y6896100D02*
X7601551D01*
X9321800Y3289300D02*
X9457700D01*
X9217800Y3393300D02*
Y3496900D01*
X9790500Y4135100D02*
Y4143850D01*
X9817100Y4170450D01*
X9143000Y5944600D02*
Y6070600D01*
Y5944600D02*
X9194800Y5892800D01*
X9677400D01*
X10033000Y4443999D02*
Y4902200D01*
Y4443999D02*
X10285999Y4191000D01*
X8889000Y6070600D02*
X8890000Y6069600D01*
Y5854700D02*
Y6069600D01*
X9690500Y4066350D02*
Y4135100D01*
X9690100Y4065950D02*
X9690500Y4066350D01*
X9690100Y4051300D02*
Y4065950D01*
X9640500Y4051300D02*
Y4135100D01*
Y3967500D02*
Y4051300D01*
X9690100D01*
X9582150Y3790950D02*
X9690500Y3899300D01*
X9438100Y3646900D02*
X9582150Y3790950D01*
X9217800Y3646900D02*
X9438100D01*
X9690500Y3899300D02*
Y3967500D01*
X9790500Y3900100D02*
Y3967500D01*
X9476200Y3896900D02*
X9582150Y3790950D01*
X9044800Y3896900D02*
X9217800D01*
X9044800Y3646900D02*
X9217800D01*
X8775700Y3683000D02*
X8851900D01*
X8915800Y3746900D02*
X9044800D01*
X8851900Y3683000D02*
X8915800Y3746900D01*
X9217800Y3796900D02*
X9298449D01*
X9334500Y3760848D01*
Y3759200D02*
Y3760848D01*
D30*
X10148839Y3312160D02*
X10285999Y3175000D01*
X9923780Y3312160D02*
X10148839D01*
X9398000Y8864600D02*
X9461500Y8801100D01*
X9524000Y8863600D01*
X9550400Y4013200D02*
X9588500Y4051300D01*
X9640500D01*
D31*
X10299700Y9103380D02*
X10511780D01*
X10511800Y9103360D01*
X10067280D02*
X10067300Y9103380D01*
X10299700D01*
X8381480Y9138920D02*
X8381740Y9139180D01*
Y9410440D01*
X8382000Y9410700D01*
X8381480Y9126420D02*
Y9138920D01*
Y9126420D02*
X8414700Y9093200D01*
X9875520D01*
X9906000Y9410700D02*
X10363200D01*
X10782300Y8559800D02*
Y8991600D01*
X10363200Y9410700D02*
X10782300Y8991600D01*
X10540000Y8483600D02*
X10706100D01*
X10782300Y8559800D01*
X9906000Y8865600D02*
Y9062720D01*
X9875520Y9093200D02*
X9906000Y9062720D01*
X9905000Y8864600D02*
X9906000Y8865600D01*
D32*
X7746000Y6699674D02*
Y6705600D01*
X7658100Y6604000D02*
Y6611774D01*
D33*
X7886700Y8356600D02*
D03*
D34*
X9131300Y4146900D02*
D03*
D35*
Y3396900D02*
D03*
D36*
X9346300Y3531900D02*
D03*
Y4011900D02*
D03*
X8916300D02*
D03*
Y3531900D02*
D03*
D37*
X8382000Y9410700D02*
D03*
X8255000Y9537700D02*
D03*
Y9283700D02*
D03*
X8509000D02*
D03*
Y9537700D02*
D03*
X9906000Y9410700D02*
D03*
X9779000Y9537700D02*
D03*
Y9283700D02*
D03*
X10033000D02*
D03*
Y9537700D02*
D03*
D38*
X10285999Y4699000D02*
D03*
Y4445000D02*
D03*
Y4191000D02*
D03*
Y3937000D02*
D03*
Y3683000D02*
D03*
Y3429000D02*
D03*
Y3175000D02*
D03*
X7999999Y4699000D02*
D03*
Y4445000D02*
D03*
Y4191000D02*
D03*
Y3937000D02*
D03*
Y3683000D02*
D03*
Y3429000D02*
D03*
Y3175000D02*
D03*
D39*
X10285999Y2921000D02*
D03*
X7999999D02*
D03*
D40*
X10286000Y5080000D02*
D03*
Y5334000D02*
D03*
X10287000Y5588000D02*
D03*
D41*
X8892540Y5651500D02*
D03*
X8577580Y5852160D02*
D03*
D42*
X9537700Y4127500D02*
D03*
X7586980Y6497320D02*
D03*
X7658100Y6604000D02*
D03*
X8280400Y8140700D02*
D03*
Y8318500D02*
D03*
X7594600Y6680200D02*
D03*
X7556500Y6593840D02*
D03*
X9410700Y3721100D02*
D03*
X9461500Y3797300D02*
D03*
X8763000Y3962400D02*
D03*
X8590280Y9161780D02*
D03*
X9359900Y4165600D02*
D03*
X9824720Y3322320D02*
D03*
X9161780Y5552440D02*
D03*
X8293100Y6832600D02*
D03*
X10633489Y8413403D02*
D03*
X7810500Y6261100D02*
D03*
X7818784Y8047384D02*
D03*
X7944784D02*
D03*
X8953500Y8928100D02*
D03*
X9334500Y8674100D02*
D03*
X9327650Y8801100D02*
D03*
X9213350Y8788400D02*
D03*
X10464300Y8026400D02*
D03*
X10353425Y6375400D02*
D03*
X9588500Y8674100D02*
D03*
X9461500Y8801100D02*
D03*
X9715500Y8928100D02*
D03*
X9829800Y8953500D02*
D03*
X8064500Y8801100D02*
D03*
X7937500D02*
D03*
Y7023100D02*
D03*
X9330497Y6258413D02*
D03*
X9461000Y6134100D02*
D03*
X10604500Y7912100D02*
D03*
X10637469Y8560756D02*
D03*
X9983156Y8961069D02*
D03*
X8249920Y9057640D02*
D03*
X9080500Y9169400D02*
D03*
X9258300D02*
D03*
X9436100D02*
D03*
X9652000D02*
D03*
X9753600Y9017000D02*
D03*
X9512300D02*
D03*
X9321800D02*
D03*
X9144000D02*
D03*
X8902700D02*
D03*
X8638540Y9019540D02*
D03*
X8448040Y9004300D02*
D03*
X8849360Y9161780D02*
D03*
X10706100Y8712200D02*
D03*
Y8877300D02*
D03*
X10419080Y9227820D02*
D03*
X10325100Y9334500D02*
D03*
X10172700D02*
D03*
Y9486900D02*
D03*
X10350500D02*
D03*
X10523220Y9354820D02*
D03*
X10655300Y9222740D02*
D03*
X10845800Y9029700D02*
D03*
X10858500Y8826500D02*
D03*
Y8636000D02*
D03*
X10820400Y8470900D02*
D03*
X9906000Y4165600D02*
D03*
X8839200Y3771900D02*
D03*
X7810500Y6388100D02*
D03*
Y6515100D02*
D03*
X7937500Y6896100D02*
D03*
X7810500Y6643100D02*
D03*
X7658100Y6744700D02*
D03*
X7810500Y6895600D02*
D03*
Y7658100D02*
D03*
X7937500Y7785600D02*
D03*
Y7912100D02*
D03*
X7810500Y7785100D02*
D03*
X7809500Y7912100D02*
D03*
X7683500Y8039600D02*
D03*
X7810500Y8674100D02*
D03*
X7810000Y8801100D02*
D03*
Y8928100D02*
D03*
X7937000Y8674100D02*
D03*
X8055867Y8933219D02*
D03*
X8064500Y8674100D02*
D03*
X8191500D02*
D03*
Y8801100D02*
D03*
Y8927600D02*
D03*
X8318500D02*
D03*
Y8800600D02*
D03*
Y8673600D02*
D03*
X8445500Y8674100D02*
D03*
Y8801350D02*
D03*
X8572500Y8928100D02*
D03*
Y8801100D02*
D03*
Y8674100D02*
D03*
X8699500D02*
D03*
Y8801100D02*
D03*
Y8927600D02*
D03*
X8826500Y8928100D02*
D03*
Y8801100D02*
D03*
Y8674100D02*
D03*
X9080500D02*
D03*
X8953500D02*
D03*
Y8800600D02*
D03*
X9080500Y8801100D02*
D03*
X9207500Y8674100D02*
D03*
X9588500Y8801100D02*
D03*
X9715500Y8674100D02*
D03*
Y8801100D02*
D03*
X9842500D02*
D03*
Y8674100D02*
D03*
X9969500Y8673850D02*
D03*
X9969000Y8801100D02*
D03*
X10096500Y8928100D02*
D03*
Y8801100D02*
D03*
Y8674100D02*
D03*
X10223000Y8801100D02*
D03*
X10223500Y8928100D02*
D03*
X10350500Y8801100D02*
D03*
Y8928100D02*
D03*
Y8674100D02*
D03*
X10219728Y8679365D02*
D03*
X10350500Y8547100D02*
D03*
X10477000Y8674100D02*
D03*
X10477500Y8801600D02*
D03*
X10604000Y8674100D02*
D03*
X10477000Y8547100D02*
D03*
X10350500Y8420100D02*
D03*
X10350000Y8293100D02*
D03*
X10477000Y8420100D02*
D03*
X10604000Y8293100D02*
D03*
X10477000D02*
D03*
X10350000Y8166100D02*
D03*
X10477500D02*
D03*
X10350000Y8039100D02*
D03*
X10350000Y7912100D02*
D03*
X10477500D02*
D03*
Y7785100D02*
D03*
X10350000D02*
D03*
Y7658100D02*
D03*
X10477500D02*
D03*
Y7531100D02*
D03*
X10477000Y7023100D02*
D03*
X10477000Y6896100D02*
D03*
Y6769100D02*
D03*
Y6642100D02*
D03*
Y6515100D02*
D03*
X10477500Y6261100D02*
D03*
X10223500Y6134100D02*
D03*
X9842500D02*
D03*
X8826500Y6134600D02*
D03*
X8191000Y6261100D02*
D03*
X8318500Y6134100D02*
D03*
X8572500D02*
D03*
X9461500Y6261100D02*
D03*
X9334500Y6134100D02*
D03*
X9436100Y4203700D02*
D03*
X7594600Y6896100D02*
D03*
X9617700Y3399800D02*
D03*
X8775700Y3860800D02*
D03*
Y3683000D02*
D03*
X9334500Y3759200D02*
D03*
D43*
X9923780Y3312160D02*
D03*
X9076700Y5473700D02*
D03*
X9321800Y3289300D02*
D03*
X8686800Y3581400D02*
D03*
X9550400Y4013200D02*
D03*
X8331200Y8229600D02*
D03*
%TF.MD5,40c4bc3ef7e7d4d889100878f62c1fa7*%
M02*
