%TF.GenerationSoftware,Altium Limited,Altium Designer,23.7.1 (13)*%
G04 Layer_Physical_Order=2*
G04 Layer_Color=36540*
%FSLAX45Y45*%
%MOMM*%
%TF.SameCoordinates,13906D11-38DA-49B6-AFB5-B3B90C62E25A*%
%TF.FilePolarity,Positive*%
%TF.FileFunction,Copper,L2,Inr,Signal*%
%TF.Part,Single*%
G01*
G75*
%TA.AperFunction,ComponentPad*%
%ADD34C,0.44500*%
%ADD35C,0.26000*%
%ADD36C,1.46000*%
%ADD37C,1.44600*%
%ADD38C,1.65000*%
%ADD40R,1.40000X1.40000*%
%TA.AperFunction,ViaPad*%
%ADD41C,0.50000*%
%ADD42C,0.65000*%
%ADD43C,0.90000*%
G36*
X10922000Y9029700D02*
Y5908000D01*
X10413000Y5399000D01*
Y2794000D01*
X10159000Y2540000D01*
X7874000D01*
Y5400000D01*
X7366000Y5908000D01*
Y9029700D01*
X8128000Y9791700D01*
X10160000D01*
X10922000Y9029700D01*
D02*
G37*
%LPC*%
G36*
X10045862Y9635400D02*
X10045700D01*
Y9550400D01*
X10130700D01*
Y9550562D01*
X10124042Y9575411D01*
X10111179Y9597689D01*
X10092989Y9615879D01*
X10070711Y9628742D01*
X10045862Y9635400D01*
D02*
G37*
G36*
X10020300D02*
X10020138D01*
X9995289Y9628742D01*
X9973011Y9615879D01*
X9954821Y9597689D01*
X9941958Y9575411D01*
X9935300Y9550562D01*
Y9550400D01*
X10020300D01*
Y9635400D01*
D02*
G37*
G36*
X9791862D02*
X9791700D01*
Y9550400D01*
X9876700D01*
Y9550562D01*
X9870042Y9575411D01*
X9857179Y9597689D01*
X9838989Y9615879D01*
X9816711Y9628742D01*
X9791862Y9635400D01*
D02*
G37*
G36*
X9766300D02*
X9766138D01*
X9741289Y9628742D01*
X9719011Y9615879D01*
X9700821Y9597689D01*
X9687958Y9575411D01*
X9681300Y9550562D01*
Y9550400D01*
X9766300D01*
Y9635400D01*
D02*
G37*
G36*
X8521862D02*
X8521700D01*
Y9550400D01*
X8606700D01*
Y9550562D01*
X8600042Y9575411D01*
X8587179Y9597689D01*
X8568989Y9615879D01*
X8546711Y9628742D01*
X8521862Y9635400D01*
D02*
G37*
G36*
X8496300D02*
X8496138D01*
X8471289Y9628742D01*
X8449011Y9615879D01*
X8430821Y9597689D01*
X8417958Y9575411D01*
X8411300Y9550562D01*
Y9550400D01*
X8496300D01*
Y9635400D01*
D02*
G37*
G36*
X8267862D02*
X8267700D01*
Y9550400D01*
X8352700D01*
Y9550562D01*
X8346042Y9575411D01*
X8333179Y9597689D01*
X8314989Y9615879D01*
X8292711Y9628742D01*
X8267862Y9635400D01*
D02*
G37*
G36*
X8242300D02*
X8242138D01*
X8217289Y9628742D01*
X8195011Y9615879D01*
X8176821Y9597689D01*
X8163958Y9575411D01*
X8157300Y9550562D01*
Y9550400D01*
X8242300D01*
Y9635400D01*
D02*
G37*
G36*
X8496300Y9525000D02*
X8411300D01*
Y9524838D01*
X8415135Y9510526D01*
X8404766Y9500156D01*
X8394152Y9503000D01*
X8369848D01*
X8359234Y9500156D01*
X8348865Y9510526D01*
X8352700Y9524838D01*
Y9525000D01*
X8267700D01*
Y9440000D01*
X8267862D01*
X8282174Y9443835D01*
X8292544Y9433466D01*
X8289700Y9422852D01*
Y9398548D01*
X8292544Y9387934D01*
X8282174Y9377565D01*
X8267862Y9381400D01*
X8267700D01*
Y9296400D01*
X8352700D01*
Y9296562D01*
X8348865Y9310874D01*
X8359234Y9321244D01*
X8369848Y9318400D01*
X8394152D01*
X8404766Y9321244D01*
X8415135Y9310874D01*
X8411300Y9296562D01*
Y9296400D01*
X8496300D01*
Y9381400D01*
X8496138D01*
X8481826Y9377565D01*
X8471456Y9387934D01*
X8474300Y9398548D01*
Y9422852D01*
X8471456Y9433466D01*
X8481826Y9443835D01*
X8496138Y9440000D01*
X8496300D01*
Y9525000D01*
D02*
G37*
G36*
X10020300D02*
X9935300D01*
Y9524838D01*
X9939135Y9510526D01*
X9928766Y9500156D01*
X9918152Y9503000D01*
X9893848D01*
X9883234Y9500156D01*
X9872865Y9510526D01*
X9876700Y9524838D01*
Y9525000D01*
X9791700D01*
Y9440000D01*
X9791862D01*
X9806174Y9443835D01*
X9816544Y9433466D01*
X9813700Y9422852D01*
Y9398548D01*
X9816544Y9387934D01*
X9806174Y9377565D01*
X9791862Y9381400D01*
X9791700D01*
Y9296400D01*
X9876700D01*
Y9296562D01*
X9872865Y9310874D01*
X9883234Y9321244D01*
X9893848Y9318400D01*
X9918152D01*
X9928766Y9321244D01*
X9939135Y9310874D01*
X9935300Y9296562D01*
Y9296400D01*
X10020300D01*
Y9381400D01*
X10020138D01*
X10005826Y9377565D01*
X9995456Y9387934D01*
X9998300Y9398548D01*
Y9422852D01*
X9995456Y9433466D01*
X10005826Y9443835D01*
X10020138Y9440000D01*
X10020300D01*
Y9525000D01*
D02*
G37*
G36*
X10130700D02*
X10045700D01*
Y9440000D01*
X10045862D01*
X10070711Y9446658D01*
X10092989Y9459521D01*
X10111179Y9477711D01*
X10124042Y9499989D01*
X10130700Y9524838D01*
Y9525000D01*
D02*
G37*
G36*
X9766300D02*
X9681300D01*
Y9524838D01*
X9687958Y9499989D01*
X9700821Y9477711D01*
X9719011Y9459521D01*
X9741289Y9446658D01*
X9766138Y9440000D01*
X9766300D01*
Y9525000D01*
D02*
G37*
G36*
X8606700D02*
X8521700D01*
Y9440000D01*
X8521862D01*
X8546711Y9446658D01*
X8568989Y9459521D01*
X8587179Y9477711D01*
X8600042Y9499989D01*
X8606700Y9524838D01*
Y9525000D01*
D02*
G37*
G36*
X8242300D02*
X8157300D01*
Y9524838D01*
X8163958Y9499989D01*
X8176821Y9477711D01*
X8195011Y9459521D01*
X8217289Y9446658D01*
X8242138Y9440000D01*
X8242300D01*
Y9525000D01*
D02*
G37*
G36*
X10045862Y9381400D02*
X10045700D01*
Y9296400D01*
X10130700D01*
Y9296562D01*
X10124042Y9321411D01*
X10111179Y9343689D01*
X10092989Y9361879D01*
X10070711Y9374742D01*
X10045862Y9381400D01*
D02*
G37*
G36*
X9766300D02*
X9766138D01*
X9741289Y9374742D01*
X9719011Y9361879D01*
X9700821Y9343689D01*
X9687958Y9321411D01*
X9681300Y9296562D01*
Y9296400D01*
X9766300D01*
Y9381400D01*
D02*
G37*
G36*
X8521862D02*
X8521700D01*
Y9296400D01*
X8606700D01*
Y9296562D01*
X8600042Y9321411D01*
X8587179Y9343689D01*
X8568989Y9361879D01*
X8546711Y9374742D01*
X8521862Y9381400D01*
D02*
G37*
G36*
X8242300D02*
X8242138D01*
X8217289Y9374742D01*
X8195011Y9361879D01*
X8176821Y9343689D01*
X8163958Y9321411D01*
X8157300Y9296562D01*
Y9296400D01*
X8242300D01*
Y9381400D01*
D02*
G37*
G36*
X10130700Y9271000D02*
X10045700D01*
Y9186000D01*
X10045862D01*
X10070711Y9192658D01*
X10092989Y9205521D01*
X10111179Y9223711D01*
X10124042Y9245989D01*
X10130700Y9270838D01*
Y9271000D01*
D02*
G37*
G36*
X10020300D02*
X9935300D01*
Y9270838D01*
X9941958Y9245989D01*
X9954821Y9223711D01*
X9973011Y9205521D01*
X9995289Y9192658D01*
X10020138Y9186000D01*
X10020300D01*
Y9271000D01*
D02*
G37*
G36*
X9876700D02*
X9791700D01*
Y9186000D01*
X9791862D01*
X9816711Y9192658D01*
X9838989Y9205521D01*
X9857179Y9223711D01*
X9870042Y9245989D01*
X9876700Y9270838D01*
Y9271000D01*
D02*
G37*
G36*
X9766300D02*
X9681300D01*
Y9270838D01*
X9687958Y9245989D01*
X9700821Y9223711D01*
X9719011Y9205521D01*
X9741289Y9192658D01*
X9766138Y9186000D01*
X9766300D01*
Y9271000D01*
D02*
G37*
G36*
X8606700D02*
X8521700D01*
Y9186000D01*
X8521862D01*
X8546711Y9192658D01*
X8568989Y9205521D01*
X8587179Y9223711D01*
X8600042Y9245989D01*
X8606700Y9270838D01*
Y9271000D01*
D02*
G37*
G36*
X8496300D02*
X8411300D01*
Y9270838D01*
X8417958Y9245989D01*
X8430821Y9223711D01*
X8449011Y9205521D01*
X8471289Y9192658D01*
X8496138Y9186000D01*
X8496300D01*
Y9271000D01*
D02*
G37*
G36*
X8352700D02*
X8267700D01*
Y9186000D01*
X8267862D01*
X8292711Y9192658D01*
X8314989Y9205521D01*
X8333179Y9223711D01*
X8346042Y9245989D01*
X8352700Y9270838D01*
Y9271000D01*
D02*
G37*
G36*
X8242300D02*
X8157300D01*
Y9270838D01*
X8163958Y9245989D01*
X8176821Y9223711D01*
X8195011Y9205521D01*
X8217289Y9192658D01*
X8242138Y9186000D01*
X8242300D01*
Y9271000D01*
D02*
G37*
G36*
X9471943Y8853600D02*
X9451057D01*
X9431761Y8845607D01*
X9416993Y8830839D01*
X9409000Y8811543D01*
Y8790657D01*
X9416993Y8771361D01*
X9431761Y8756593D01*
X9451057Y8748600D01*
X9471943D01*
X9491239Y8756593D01*
X9506007Y8771361D01*
X9514000Y8790657D01*
Y8811543D01*
X9506007Y8830839D01*
X9491239Y8845607D01*
X9471943Y8853600D01*
D02*
G37*
G36*
X8339758Y8294600D02*
X8322642D01*
X8306111Y8290170D01*
X8291289Y8281613D01*
X8279187Y8269511D01*
X8270630Y8254689D01*
X8266200Y8238158D01*
Y8221042D01*
X8270630Y8204511D01*
X8279187Y8189689D01*
X8291289Y8177587D01*
X8306111Y8169030D01*
X8322642Y8164600D01*
X8339758D01*
X8356289Y8169030D01*
X8371111Y8177587D01*
X8383213Y8189689D01*
X8391770Y8204511D01*
X8396200Y8221042D01*
Y8238158D01*
X8391770Y8254689D01*
X8383213Y8269511D01*
X8371111Y8281613D01*
X8356289Y8290170D01*
X8339758Y8294600D01*
D02*
G37*
G36*
X7947943Y7075600D02*
X7927057D01*
X7907761Y7067607D01*
X7892993Y7052839D01*
X7885000Y7033543D01*
Y7012657D01*
X7892993Y6993361D01*
X7907761Y6978593D01*
X7927057Y6970600D01*
X7947943D01*
X7967239Y6978593D01*
X7982007Y6993361D01*
X7990000Y7012657D01*
Y7033543D01*
X7982007Y7052839D01*
X7967239Y7067607D01*
X7947943Y7075600D01*
D02*
G37*
G36*
X7605043Y6948600D02*
X7584157D01*
X7564861Y6940607D01*
X7550093Y6925839D01*
X7542100Y6906543D01*
Y6885657D01*
X7550093Y6866361D01*
X7564861Y6851593D01*
X7584157Y6843600D01*
X7605043D01*
X7624339Y6851593D01*
X7639107Y6866361D01*
X7647100Y6885657D01*
Y6906543D01*
X7639107Y6925839D01*
X7624339Y6940607D01*
X7605043Y6948600D01*
D02*
G37*
G36*
X7668543Y6656500D02*
X7647657D01*
X7628361Y6648507D01*
X7613593Y6633739D01*
X7605600Y6614443D01*
Y6593557D01*
X7613593Y6574261D01*
X7628361Y6559493D01*
X7647657Y6551500D01*
X7668543D01*
X7687839Y6559493D01*
X7702607Y6574261D01*
X7710600Y6593557D01*
Y6614443D01*
X7702607Y6633739D01*
X7687839Y6648507D01*
X7668543Y6656500D01*
D02*
G37*
G36*
X7597423Y6549820D02*
X7576537D01*
X7557241Y6541827D01*
X7542473Y6527059D01*
X7534480Y6507763D01*
Y6486877D01*
X7542473Y6467581D01*
X7557241Y6452813D01*
X7576537Y6444820D01*
X7597423D01*
X7616719Y6452813D01*
X7631487Y6467581D01*
X7639480Y6486877D01*
Y6507763D01*
X7631487Y6527059D01*
X7616719Y6541827D01*
X7597423Y6549820D01*
D02*
G37*
G36*
X8586531Y5897160D02*
X8568629D01*
X8552090Y5890309D01*
X8539431Y5877650D01*
X8532580Y5861111D01*
Y5843209D01*
X8539431Y5826670D01*
X8552090Y5814011D01*
X8568629Y5807160D01*
X8586531D01*
X8603070Y5814011D01*
X8615729Y5826670D01*
X8622580Y5843209D01*
Y5861111D01*
X8615729Y5877650D01*
X8603070Y5890309D01*
X8586531Y5897160D01*
D02*
G37*
G36*
X8901491Y5696500D02*
X8883589D01*
X8867050Y5689649D01*
X8854391Y5676990D01*
X8847540Y5660451D01*
Y5642549D01*
X8854391Y5626010D01*
X8867050Y5613351D01*
X8883589Y5606500D01*
X8901491D01*
X8918030Y5613351D01*
X8930689Y5626010D01*
X8937540Y5642549D01*
Y5660451D01*
X8930689Y5676990D01*
X8918030Y5689649D01*
X8901491Y5696500D01*
D02*
G37*
G36*
X10377000Y5678000D02*
X10197000D01*
Y5498000D01*
X10377000D01*
Y5678000D01*
D02*
G37*
G36*
X9085257Y5538700D02*
X9068142D01*
X9051611Y5534270D01*
X9036789Y5525713D01*
X9024687Y5513611D01*
X9016130Y5498789D01*
X9011700Y5482258D01*
Y5465142D01*
X9016130Y5448611D01*
X9024687Y5433789D01*
X9036789Y5421687D01*
X9051611Y5413130D01*
X9068142Y5408700D01*
X9085257D01*
X9101789Y5413130D01*
X9116611Y5421687D01*
X9128713Y5433789D01*
X9137270Y5448611D01*
X9141700Y5465142D01*
Y5482258D01*
X9137270Y5498789D01*
X9128713Y5513611D01*
X9116611Y5525713D01*
X9101789Y5534270D01*
X9085257Y5538700D01*
D02*
G37*
G36*
X10376000Y5424000D02*
X10196000D01*
Y5244000D01*
X10376000D01*
Y5424000D01*
D02*
G37*
G36*
Y5170000D02*
X10196000D01*
Y4990000D01*
X10376000D01*
Y5170000D01*
D02*
G37*
G36*
X10299494Y4801500D02*
X10272505D01*
X10246436Y4794515D01*
X10223063Y4781020D01*
X10203979Y4761936D01*
X10190485Y4738564D01*
X10183500Y4712494D01*
Y4685506D01*
X10190485Y4659436D01*
X10203979Y4636064D01*
X10223063Y4616980D01*
X10246436Y4603485D01*
X10272505Y4596500D01*
X10299494D01*
X10325563Y4603485D01*
X10348936Y4616980D01*
X10368020Y4636064D01*
X10381514Y4659436D01*
X10388499Y4685506D01*
Y4712494D01*
X10381514Y4738564D01*
X10368020Y4761936D01*
X10348936Y4781020D01*
X10325563Y4794515D01*
X10299494Y4801500D01*
D02*
G37*
G36*
X8013494D02*
X7986505D01*
X7960436Y4794515D01*
X7937063Y4781020D01*
X7917979Y4761936D01*
X7904485Y4738564D01*
X7897500Y4712494D01*
Y4685506D01*
X7904485Y4659436D01*
X7917979Y4636064D01*
X7937063Y4616980D01*
X7960436Y4603485D01*
X7986505Y4596500D01*
X8013494D01*
X8039563Y4603485D01*
X8062936Y4616980D01*
X8082020Y4636064D01*
X8095514Y4659436D01*
X8102499Y4685506D01*
Y4712494D01*
X8095514Y4738564D01*
X8082020Y4761936D01*
X8062936Y4781020D01*
X8039563Y4794515D01*
X8013494Y4801500D01*
D02*
G37*
G36*
X10299494Y4547500D02*
X10272505D01*
X10246436Y4540515D01*
X10223063Y4527020D01*
X10203979Y4507936D01*
X10190485Y4484564D01*
X10183500Y4458494D01*
Y4431506D01*
X10190485Y4405436D01*
X10203979Y4382064D01*
X10223063Y4362980D01*
X10246436Y4349485D01*
X10272505Y4342500D01*
X10299494D01*
X10325563Y4349485D01*
X10348936Y4362980D01*
X10368020Y4382064D01*
X10381514Y4405436D01*
X10388499Y4431506D01*
Y4458494D01*
X10381514Y4484564D01*
X10368020Y4507936D01*
X10348936Y4527020D01*
X10325563Y4540515D01*
X10299494Y4547500D01*
D02*
G37*
G36*
X8013494D02*
X7986505D01*
X7960436Y4540515D01*
X7937063Y4527020D01*
X7917979Y4507936D01*
X7904485Y4484564D01*
X7897500Y4458494D01*
Y4431506D01*
X7904485Y4405436D01*
X7917979Y4382064D01*
X7937063Y4362980D01*
X7960436Y4349485D01*
X7986505Y4342500D01*
X8013494D01*
X8039563Y4349485D01*
X8062936Y4362980D01*
X8082020Y4382064D01*
X8095514Y4405436D01*
X8102499Y4431506D01*
Y4458494D01*
X8095514Y4484564D01*
X8082020Y4507936D01*
X8062936Y4527020D01*
X8039563Y4540515D01*
X8013494Y4547500D01*
D02*
G37*
G36*
X9446543Y4256200D02*
X9425657D01*
X9406361Y4248207D01*
X9391593Y4233439D01*
X9383600Y4214143D01*
Y4193257D01*
X9391593Y4173961D01*
X9406361Y4159193D01*
X9425657Y4151200D01*
X9446543D01*
X9465839Y4159193D01*
X9480607Y4173961D01*
X9488600Y4193257D01*
Y4214143D01*
X9480607Y4233439D01*
X9465839Y4248207D01*
X9446543Y4256200D01*
D02*
G37*
G36*
X10299494Y4293500D02*
X10272505D01*
X10246436Y4286515D01*
X10223063Y4273020D01*
X10203979Y4253936D01*
X10190485Y4230564D01*
X10183500Y4204494D01*
Y4177506D01*
X10190485Y4151436D01*
X10203979Y4128064D01*
X10223063Y4108980D01*
X10246436Y4095485D01*
X10272505Y4088500D01*
X10299494D01*
X10325563Y4095485D01*
X10348936Y4108980D01*
X10368020Y4128064D01*
X10381514Y4151436D01*
X10388499Y4177506D01*
Y4204494D01*
X10381514Y4230564D01*
X10368020Y4253936D01*
X10348936Y4273020D01*
X10325563Y4286515D01*
X10299494Y4293500D01*
D02*
G37*
G36*
X8013494D02*
X7986505D01*
X7960436Y4286515D01*
X7937063Y4273020D01*
X7917979Y4253936D01*
X7904485Y4230564D01*
X7897500Y4204494D01*
Y4177506D01*
X7904485Y4151436D01*
X7917979Y4128064D01*
X7937063Y4108980D01*
X7960436Y4095485D01*
X7986505Y4088500D01*
X8013494D01*
X8039563Y4095485D01*
X8062936Y4108980D01*
X8082020Y4128064D01*
X8095514Y4151436D01*
X8102499Y4177506D01*
Y4204494D01*
X8095514Y4230564D01*
X8082020Y4253936D01*
X8062936Y4273020D01*
X8039563Y4286515D01*
X8013494Y4293500D01*
D02*
G37*
G36*
X9144130Y4211400D02*
X9118470D01*
X9094764Y4201580D01*
X9076620Y4183436D01*
X9066800Y4159730D01*
Y4134070D01*
X9076620Y4110364D01*
X9094764Y4092220D01*
X9118470Y4082400D01*
X9144130D01*
X9167836Y4092220D01*
X9185980Y4110364D01*
X9195800Y4134070D01*
Y4159730D01*
X9185980Y4183436D01*
X9167836Y4201580D01*
X9144130Y4211400D01*
D02*
G37*
G36*
X9558958Y4078200D02*
X9541842D01*
X9525311Y4073770D01*
X9510489Y4065213D01*
X9498387Y4053111D01*
X9489830Y4038289D01*
X9485400Y4021758D01*
Y4004642D01*
X9489830Y3988111D01*
X9498387Y3973289D01*
X9510489Y3961187D01*
X9525311Y3952630D01*
X9541842Y3948200D01*
X9558958D01*
X9575489Y3952630D01*
X9590311Y3961187D01*
X9602413Y3973289D01*
X9610970Y3988111D01*
X9615400Y4004642D01*
Y4021758D01*
X9610970Y4038289D01*
X9602413Y4053111D01*
X9590311Y4065213D01*
X9575489Y4073770D01*
X9558958Y4078200D01*
D02*
G37*
G36*
X9358544Y4104900D02*
X9334057D01*
X9310404Y4098562D01*
X9289197Y4086318D01*
X9271882Y4069003D01*
X9259638Y4047797D01*
X9253300Y4024144D01*
Y3999656D01*
X9259638Y3976003D01*
X9271882Y3954797D01*
X9289197Y3937482D01*
X9310404Y3925238D01*
X9334057Y3918900D01*
X9358544D01*
X9382197Y3925238D01*
X9403403Y3937482D01*
X9420718Y3954797D01*
X9432962Y3976003D01*
X9439300Y3999656D01*
Y4024144D01*
X9432962Y4047797D01*
X9420718Y4069003D01*
X9403403Y4086318D01*
X9382197Y4098562D01*
X9358544Y4104900D01*
D02*
G37*
G36*
X8928543D02*
X8904056D01*
X8880403Y4098562D01*
X8859197Y4086318D01*
X8841882Y4069003D01*
X8829638Y4047797D01*
X8823300Y4024144D01*
Y3999656D01*
X8829638Y3976003D01*
X8841882Y3954797D01*
X8859197Y3937482D01*
X8880403Y3925238D01*
X8904056Y3918900D01*
X8928543D01*
X8952196Y3925238D01*
X8973403Y3937482D01*
X8990718Y3954797D01*
X9002962Y3976003D01*
X9009300Y3999656D01*
Y4024144D01*
X9002962Y4047797D01*
X8990718Y4069003D01*
X8973403Y4086318D01*
X8952196Y4098562D01*
X8928543Y4104900D01*
D02*
G37*
G36*
X10299494Y4039500D02*
X10272505D01*
X10246436Y4032515D01*
X10223063Y4019020D01*
X10203979Y3999936D01*
X10190485Y3976564D01*
X10183500Y3950494D01*
Y3923506D01*
X10190485Y3897436D01*
X10203979Y3874064D01*
X10223063Y3854980D01*
X10246436Y3841485D01*
X10272505Y3834500D01*
X10299494D01*
X10325563Y3841485D01*
X10348936Y3854980D01*
X10368020Y3874064D01*
X10381514Y3897436D01*
X10388499Y3923506D01*
Y3950494D01*
X10381514Y3976564D01*
X10368020Y3999936D01*
X10348936Y4019020D01*
X10325563Y4032515D01*
X10299494Y4039500D01*
D02*
G37*
G36*
X8013494D02*
X7986505D01*
X7960436Y4032515D01*
X7937063Y4019020D01*
X7917979Y3999936D01*
X7904485Y3976564D01*
X7897500Y3950494D01*
Y3923506D01*
X7904485Y3897436D01*
X7917979Y3874064D01*
X7937063Y3854980D01*
X7960436Y3841485D01*
X7986505Y3834500D01*
X8013494D01*
X8039563Y3841485D01*
X8062936Y3854980D01*
X8082020Y3874064D01*
X8095514Y3897436D01*
X8102499Y3923506D01*
Y3950494D01*
X8095514Y3976564D01*
X8082020Y3999936D01*
X8062936Y4019020D01*
X8039563Y4032515D01*
X8013494Y4039500D01*
D02*
G37*
G36*
X8786143Y3913300D02*
X8765257D01*
X8745961Y3905307D01*
X8731193Y3890539D01*
X8723200Y3871243D01*
Y3850357D01*
X8731193Y3831061D01*
X8745961Y3816293D01*
X8765257Y3808300D01*
X8786143D01*
X8805439Y3816293D01*
X8820207Y3831061D01*
X8828200Y3850357D01*
Y3871243D01*
X8820207Y3890539D01*
X8805439Y3905307D01*
X8786143Y3913300D01*
D02*
G37*
G36*
X9471943Y3849800D02*
X9451057D01*
X9431761Y3841807D01*
X9416993Y3827039D01*
X9409000Y3807743D01*
Y3786857D01*
X9416993Y3767561D01*
X9431761Y3752793D01*
X9451057Y3744800D01*
X9471943D01*
X9491239Y3752793D01*
X9506007Y3767561D01*
X9514000Y3786857D01*
Y3807743D01*
X9506007Y3827039D01*
X9491239Y3841807D01*
X9471943Y3849800D01*
D02*
G37*
G36*
X9344943Y3811700D02*
X9324057D01*
X9304761Y3803707D01*
X9289993Y3788939D01*
X9282000Y3769643D01*
Y3748757D01*
X9289993Y3729461D01*
X9304761Y3714693D01*
X9324057Y3706700D01*
X9344943D01*
X9364239Y3714693D01*
X9379007Y3729461D01*
X9387000Y3748757D01*
Y3769643D01*
X9379007Y3788939D01*
X9364239Y3803707D01*
X9344943Y3811700D01*
D02*
G37*
G36*
X8786143Y3735500D02*
X8765257D01*
X8745961Y3727507D01*
X8731193Y3712739D01*
X8723200Y3693443D01*
Y3672557D01*
X8731193Y3653261D01*
X8745961Y3638493D01*
X8765257Y3630500D01*
X8786143D01*
X8805439Y3638493D01*
X8820207Y3653261D01*
X8828200Y3672557D01*
Y3693443D01*
X8820207Y3712739D01*
X8805439Y3727507D01*
X8786143Y3735500D01*
D02*
G37*
G36*
X10299494Y3785500D02*
X10272505D01*
X10246436Y3778515D01*
X10223063Y3765020D01*
X10203979Y3745936D01*
X10190485Y3722564D01*
X10183500Y3696494D01*
Y3669506D01*
X10190485Y3643436D01*
X10203979Y3620064D01*
X10223063Y3600980D01*
X10246436Y3587485D01*
X10272505Y3580500D01*
X10299494D01*
X10325563Y3587485D01*
X10348936Y3600980D01*
X10368020Y3620064D01*
X10381514Y3643436D01*
X10388499Y3669506D01*
Y3696494D01*
X10381514Y3722564D01*
X10368020Y3745936D01*
X10348936Y3765020D01*
X10325563Y3778515D01*
X10299494Y3785500D01*
D02*
G37*
G36*
X8013494D02*
X7986505D01*
X7960436Y3778515D01*
X7937063Y3765020D01*
X7917979Y3745936D01*
X7904485Y3722564D01*
X7897500Y3696494D01*
Y3669506D01*
X7904485Y3643436D01*
X7917979Y3620064D01*
X7937063Y3600980D01*
X7960436Y3587485D01*
X7986505Y3580500D01*
X8013494D01*
X8039563Y3587485D01*
X8062936Y3600980D01*
X8082020Y3620064D01*
X8095514Y3643436D01*
X8102499Y3669506D01*
Y3696494D01*
X8095514Y3722564D01*
X8082020Y3745936D01*
X8062936Y3765020D01*
X8039563Y3778515D01*
X8013494Y3785500D01*
D02*
G37*
G36*
X9358544Y3624900D02*
X9334057D01*
X9310404Y3618562D01*
X9289197Y3606318D01*
X9271882Y3589003D01*
X9259638Y3567797D01*
X9253300Y3544144D01*
Y3519656D01*
X9259638Y3496003D01*
X9271882Y3474797D01*
X9289197Y3457482D01*
X9310404Y3445238D01*
X9334057Y3438900D01*
X9358544D01*
X9382197Y3445238D01*
X9403403Y3457482D01*
X9420718Y3474797D01*
X9432962Y3496003D01*
X9439300Y3519656D01*
Y3544144D01*
X9432962Y3567797D01*
X9420718Y3589003D01*
X9403403Y3606318D01*
X9382197Y3618562D01*
X9358544Y3624900D01*
D02*
G37*
G36*
X8928543D02*
X8904056D01*
X8880403Y3618562D01*
X8859197Y3606318D01*
X8841882Y3589003D01*
X8829638Y3567797D01*
X8823300Y3544144D01*
Y3519656D01*
X8829638Y3496003D01*
X8841882Y3474797D01*
X8859197Y3457482D01*
X8880403Y3445238D01*
X8904056Y3438900D01*
X8928543D01*
X8952196Y3445238D01*
X8973403Y3457482D01*
X8990718Y3474797D01*
X9002962Y3496003D01*
X9009300Y3519656D01*
Y3544144D01*
X9002962Y3567797D01*
X8990718Y3589003D01*
X8973403Y3606318D01*
X8952196Y3618562D01*
X8928543Y3624900D01*
D02*
G37*
G36*
X9140450Y3442900D02*
X9122150D01*
X9105243Y3435897D01*
X9092303Y3422957D01*
X9085300Y3406050D01*
Y3387750D01*
X9092303Y3370843D01*
X9105243Y3357903D01*
X9122150Y3350900D01*
X9140450D01*
X9157357Y3357903D01*
X9170297Y3370843D01*
X9177300Y3387750D01*
Y3406050D01*
X9170297Y3422957D01*
X9157357Y3435897D01*
X9140450Y3442900D01*
D02*
G37*
G36*
X9628143Y3452300D02*
X9607257D01*
X9587961Y3444307D01*
X9573193Y3429539D01*
X9565200Y3410243D01*
Y3389357D01*
X9573193Y3370061D01*
X9587961Y3355293D01*
X9607257Y3347300D01*
X9628143D01*
X9647439Y3355293D01*
X9662207Y3370061D01*
X9670200Y3389357D01*
Y3410243D01*
X9662207Y3429539D01*
X9647439Y3444307D01*
X9628143Y3452300D01*
D02*
G37*
G36*
X10299494Y3531500D02*
X10272505D01*
X10246436Y3524515D01*
X10223063Y3511020D01*
X10203979Y3491936D01*
X10190485Y3468564D01*
X10183500Y3442494D01*
Y3415506D01*
X10190485Y3389436D01*
X10203979Y3366064D01*
X10223063Y3346980D01*
X10246436Y3333485D01*
X10272505Y3326500D01*
X10299494D01*
X10325563Y3333485D01*
X10348936Y3346980D01*
X10368020Y3366064D01*
X10381514Y3389436D01*
X10388499Y3415506D01*
Y3442494D01*
X10381514Y3468564D01*
X10368020Y3491936D01*
X10348936Y3511020D01*
X10325563Y3524515D01*
X10299494Y3531500D01*
D02*
G37*
G36*
X8013494D02*
X7986505D01*
X7960436Y3524515D01*
X7937063Y3511020D01*
X7917979Y3491936D01*
X7904485Y3468564D01*
X7897500Y3442494D01*
Y3415506D01*
X7904485Y3389436D01*
X7917979Y3366064D01*
X7937063Y3346980D01*
X7960436Y3333485D01*
X7986505Y3326500D01*
X8013494D01*
X8039563Y3333485D01*
X8062936Y3346980D01*
X8082020Y3366064D01*
X8095514Y3389436D01*
X8102499Y3415506D01*
Y3442494D01*
X8095514Y3468564D01*
X8082020Y3491936D01*
X8062936Y3511020D01*
X8039563Y3524515D01*
X8013494Y3531500D01*
D02*
G37*
G36*
X9932338Y3377160D02*
X9915222D01*
X9898691Y3372730D01*
X9883869Y3364173D01*
X9871767Y3352071D01*
X9863210Y3337249D01*
X9858780Y3320718D01*
Y3303602D01*
X9863210Y3287071D01*
X9871767Y3272249D01*
X9883869Y3260147D01*
X9898691Y3251590D01*
X9915222Y3247160D01*
X9932338D01*
X9948869Y3251590D01*
X9963691Y3260147D01*
X9975793Y3272249D01*
X9984350Y3287071D01*
X9988780Y3303602D01*
Y3320718D01*
X9984350Y3337249D01*
X9975793Y3352071D01*
X9963691Y3364173D01*
X9948869Y3372730D01*
X9932338Y3377160D01*
D02*
G37*
G36*
X10299494Y3277500D02*
X10272505D01*
X10246436Y3270515D01*
X10223063Y3257020D01*
X10203979Y3237936D01*
X10190485Y3214564D01*
X10183500Y3188494D01*
Y3161506D01*
X10190485Y3135436D01*
X10203979Y3112064D01*
X10223063Y3092980D01*
X10246436Y3079485D01*
X10272505Y3072500D01*
X10299494D01*
X10325563Y3079485D01*
X10348936Y3092980D01*
X10368020Y3112064D01*
X10381514Y3135436D01*
X10388499Y3161506D01*
Y3188494D01*
X10381514Y3214564D01*
X10368020Y3237936D01*
X10348936Y3257020D01*
X10325563Y3270515D01*
X10299494Y3277500D01*
D02*
G37*
G36*
X8013494D02*
X7986505D01*
X7960436Y3270515D01*
X7937063Y3257020D01*
X7917979Y3237936D01*
X7904485Y3214564D01*
X7897500Y3188494D01*
Y3161506D01*
X7904485Y3135436D01*
X7917979Y3112064D01*
X7937063Y3092980D01*
X7960436Y3079485D01*
X7986505Y3072500D01*
X8013494D01*
X8039563Y3079485D01*
X8062936Y3092980D01*
X8082020Y3112064D01*
X8095514Y3135436D01*
X8102499Y3161506D01*
Y3188494D01*
X8095514Y3214564D01*
X8082020Y3237936D01*
X8062936Y3257020D01*
X8039563Y3270515D01*
X8013494Y3277500D01*
D02*
G37*
G36*
X8014205Y3028900D02*
X8012699D01*
Y2933700D01*
X8107899D01*
Y2935205D01*
X8100546Y2962648D01*
X8086341Y2987252D01*
X8066252Y3007341D01*
X8041647Y3021547D01*
X8014205Y3028900D01*
D02*
G37*
G36*
X10300205D02*
X10298699D01*
Y2933700D01*
X10393899D01*
Y2935205D01*
X10386546Y2962648D01*
X10372341Y2987252D01*
X10352252Y3007341D01*
X10327647Y3021547D01*
X10300205Y3028900D01*
D02*
G37*
G36*
X10273299D02*
X10271794D01*
X10244352Y3021547D01*
X10219747Y3007341D01*
X10199658Y2987252D01*
X10185453Y2962648D01*
X10178100Y2935205D01*
Y2933700D01*
X10273299D01*
Y3028900D01*
D02*
G37*
G36*
X7987299D02*
X7985794D01*
X7958352Y3021547D01*
X7933747Y3007341D01*
X7913658Y2987252D01*
X7899453Y2962648D01*
X7892100Y2935205D01*
Y2933700D01*
X7987299D01*
Y3028900D01*
D02*
G37*
G36*
X10393899Y2908300D02*
X10298699D01*
Y2813100D01*
X10300205D01*
X10327647Y2820453D01*
X10352252Y2834659D01*
X10372341Y2854748D01*
X10386546Y2879352D01*
X10393899Y2906795D01*
Y2908300D01*
D02*
G37*
G36*
X10273299D02*
X10178100D01*
Y2906795D01*
X10185453Y2879352D01*
X10199658Y2854748D01*
X10219747Y2834659D01*
X10244352Y2820453D01*
X10271794Y2813100D01*
X10273299D01*
Y2908300D01*
D02*
G37*
G36*
X8107899D02*
X8012699D01*
Y2813100D01*
X8014205D01*
X8041647Y2820453D01*
X8066252Y2834659D01*
X8086341Y2854748D01*
X8100546Y2879352D01*
X8107899Y2906795D01*
Y2908300D01*
D02*
G37*
G36*
X7987299D02*
X7892100D01*
Y2906795D01*
X7899453Y2879352D01*
X7913658Y2854748D01*
X7933747Y2834659D01*
X7958352Y2820453D01*
X7985794Y2813100D01*
X7987299D01*
Y2908300D01*
D02*
G37*
%LPD*%
D34*
X9131300Y4146900D02*
D03*
D35*
Y3396900D02*
D03*
D36*
X9346300Y3531900D02*
D03*
Y4011900D02*
D03*
X8916300D02*
D03*
Y3531900D02*
D03*
D37*
X8382000Y9410700D02*
D03*
X8255000Y9537700D02*
D03*
Y9283700D02*
D03*
X8509000D02*
D03*
Y9537700D02*
D03*
X9906000Y9410700D02*
D03*
X9779000Y9537700D02*
D03*
Y9283700D02*
D03*
X10033000D02*
D03*
Y9537700D02*
D03*
D38*
X10285999Y4699000D02*
D03*
Y4445000D02*
D03*
Y4191000D02*
D03*
Y3937000D02*
D03*
Y3683000D02*
D03*
Y3429000D02*
D03*
Y3175000D02*
D03*
Y2921000D02*
D03*
X7999999Y4699000D02*
D03*
Y4445000D02*
D03*
Y4191000D02*
D03*
Y3937000D02*
D03*
Y3683000D02*
D03*
Y3429000D02*
D03*
Y3175000D02*
D03*
Y2921000D02*
D03*
D40*
X10286000Y5080000D02*
D03*
Y5334000D02*
D03*
X10287000Y5588000D02*
D03*
D41*
X8892540Y5651500D02*
D03*
X8577580Y5852160D02*
D03*
D42*
X9537700Y4127500D02*
D03*
X7586980Y6497320D02*
D03*
X7658100Y6604000D02*
D03*
X8280400Y8140700D02*
D03*
Y8318500D02*
D03*
X7594600Y6680200D02*
D03*
X7556500Y6593840D02*
D03*
X9410700Y3721100D02*
D03*
X9461500Y3797300D02*
D03*
X8763000Y3962400D02*
D03*
X8590280Y9161780D02*
D03*
X9359900Y4165600D02*
D03*
X9824720Y3322320D02*
D03*
X9161780Y5552440D02*
D03*
X8293100Y6832600D02*
D03*
X10633489Y8413403D02*
D03*
X7810500Y6261100D02*
D03*
X7818784Y8047384D02*
D03*
X7944784D02*
D03*
X8953500Y8928100D02*
D03*
X9334500Y8674100D02*
D03*
X9327650Y8801100D02*
D03*
X9213350Y8788400D02*
D03*
X10464300Y8026400D02*
D03*
X10353425Y6375400D02*
D03*
X9588500Y8674100D02*
D03*
X9461500Y8801100D02*
D03*
X9715500Y8928100D02*
D03*
X9829800Y8953500D02*
D03*
X8064500Y8801100D02*
D03*
X7937500D02*
D03*
Y7023100D02*
D03*
X9330497Y6258413D02*
D03*
X9461000Y6134100D02*
D03*
X10604500Y7912100D02*
D03*
X10637469Y8560756D02*
D03*
X9983156Y8961069D02*
D03*
X8249920Y9057640D02*
D03*
X9080500Y9169400D02*
D03*
X9258300D02*
D03*
X9436100D02*
D03*
X9652000D02*
D03*
X9753600Y9017000D02*
D03*
X9512300D02*
D03*
X9321800D02*
D03*
X9144000D02*
D03*
X8902700D02*
D03*
X8638540Y9019540D02*
D03*
X8448040Y9004300D02*
D03*
X8849360Y9161780D02*
D03*
X10706100Y8712200D02*
D03*
Y8877300D02*
D03*
X10419080Y9227820D02*
D03*
X10325100Y9334500D02*
D03*
X10172700D02*
D03*
Y9486900D02*
D03*
X10350500D02*
D03*
X10523220Y9354820D02*
D03*
X10655300Y9222740D02*
D03*
X10845800Y9029700D02*
D03*
X10858500Y8826500D02*
D03*
Y8636000D02*
D03*
X10820400Y8470900D02*
D03*
X9906000Y4165600D02*
D03*
X8839200Y3771900D02*
D03*
X7810500Y6388100D02*
D03*
Y6515100D02*
D03*
X7937500Y6896100D02*
D03*
X7810500Y6643100D02*
D03*
X7658100Y6744700D02*
D03*
X7810500Y6895600D02*
D03*
Y7658100D02*
D03*
X7937500Y7785600D02*
D03*
Y7912100D02*
D03*
X7810500Y7785100D02*
D03*
X7809500Y7912100D02*
D03*
X7683500Y8039600D02*
D03*
X7810500Y8674100D02*
D03*
X7810000Y8801100D02*
D03*
Y8928100D02*
D03*
X7937000Y8674100D02*
D03*
X8055867Y8933219D02*
D03*
X8064500Y8674100D02*
D03*
X8191500D02*
D03*
Y8801100D02*
D03*
Y8927600D02*
D03*
X8318500D02*
D03*
Y8800600D02*
D03*
Y8673600D02*
D03*
X8445500Y8674100D02*
D03*
Y8801350D02*
D03*
X8572500Y8928100D02*
D03*
Y8801100D02*
D03*
Y8674100D02*
D03*
X8699500D02*
D03*
Y8801100D02*
D03*
Y8927600D02*
D03*
X8826500Y8928100D02*
D03*
Y8801100D02*
D03*
Y8674100D02*
D03*
X9080500D02*
D03*
X8953500D02*
D03*
Y8800600D02*
D03*
X9080500Y8801100D02*
D03*
X9207500Y8674100D02*
D03*
X9588500Y8801100D02*
D03*
X9715500Y8674100D02*
D03*
Y8801100D02*
D03*
X9842500D02*
D03*
Y8674100D02*
D03*
X9969500Y8673850D02*
D03*
X9969000Y8801100D02*
D03*
X10096500Y8928100D02*
D03*
Y8801100D02*
D03*
Y8674100D02*
D03*
X10223000Y8801100D02*
D03*
X10223500Y8928100D02*
D03*
X10350500Y8801100D02*
D03*
Y8928100D02*
D03*
Y8674100D02*
D03*
X10219728Y8679365D02*
D03*
X10350500Y8547100D02*
D03*
X10477000Y8674100D02*
D03*
X10477500Y8801600D02*
D03*
X10604000Y8674100D02*
D03*
X10477000Y8547100D02*
D03*
X10350500Y8420100D02*
D03*
X10350000Y8293100D02*
D03*
X10477000Y8420100D02*
D03*
X10604000Y8293100D02*
D03*
X10477000D02*
D03*
X10350000Y8166100D02*
D03*
X10477500D02*
D03*
X10350000Y8039100D02*
D03*
X10350000Y7912100D02*
D03*
X10477500D02*
D03*
Y7785100D02*
D03*
X10350000D02*
D03*
Y7658100D02*
D03*
X10477500D02*
D03*
Y7531100D02*
D03*
X10477000Y7023100D02*
D03*
X10477000Y6896100D02*
D03*
Y6769100D02*
D03*
Y6642100D02*
D03*
Y6515100D02*
D03*
X10477500Y6261100D02*
D03*
X10223500Y6134100D02*
D03*
X9842500D02*
D03*
X8826500Y6134600D02*
D03*
X8191000Y6261100D02*
D03*
X8318500Y6134100D02*
D03*
X8572500D02*
D03*
X9461500Y6261100D02*
D03*
X9334500Y6134100D02*
D03*
X9436100Y4203700D02*
D03*
X7594600Y6896100D02*
D03*
X9617700Y3399800D02*
D03*
X8775700Y3860800D02*
D03*
Y3683000D02*
D03*
X9334500Y3759200D02*
D03*
D43*
X9923780Y3312160D02*
D03*
X9076700Y5473700D02*
D03*
X9321800Y3289300D02*
D03*
X8686800Y3581400D02*
D03*
X9550400Y4013200D02*
D03*
X8331200Y8229600D02*
D03*
%TF.MD5,614c88f4df32fb1def8bd93aaddc544b*%
M02*
