%TF.GenerationSoftware,Altium Limited,Altium Designer,23.7.1 (13)*%
G04 Layer_Color=8388736*
%FSLAX45Y45*%
%MOMM*%
%TF.SameCoordinates,13906D11-38DA-49B6-AFB5-B3B90C62E25A*%
%TF.FilePolarity,Negative*%
%TF.FileFunction,Soldermask,Top*%
%TF.Part,Single*%
G01*
G75*
%TA.AperFunction,SMDPad,CuDef*%
%ADD10R,1.02000X1.92000*%
%ADD11R,0.30000X0.67000*%
%ADD12R,2.15000X2.15000*%
%ADD13R,0.30000X0.90000*%
%ADD14R,0.90000X0.30000*%
%ADD15R,0.60000X0.60000*%
%ADD16R,1.92000X1.02000*%
%TA.AperFunction,BGAPad,CuDef*%
%ADD17C,0.60000*%
%TA.AperFunction,SMDPad,CuDef*%
%ADD18R,0.25000X0.50000*%
%ADD19R,0.80000X0.90000*%
%ADD20R,0.42000X0.46000*%
%ADD21R,0.95000X0.85000*%
%ADD22R,0.87000X0.30000*%
%ADD23R,1.25000X1.80000*%
%ADD24R,0.85000X0.95000*%
%ADD25R,0.99000X0.81000*%
%TA.AperFunction,ComponentPad*%
%ADD34C,0.44500*%
%ADD35C,0.26000*%
%ADD36C,1.46000*%
%ADD37C,1.44600*%
%ADD38C,1.65000*%
%ADD39R,1.65000X1.65000*%
%ADD40R,1.40000X1.40000*%
%TA.AperFunction,ViaPad*%
%ADD41C,0.50000*%
%ADD42C,0.65000*%
%ADD43C,0.90000*%
D10*
X9581100Y5648960D02*
D03*
X9291100D02*
D03*
D11*
X9577000Y4879000D02*
D03*
X9627000D02*
D03*
X9677000D02*
D03*
X9727000D02*
D03*
Y5027000D02*
D03*
X9677000D02*
D03*
X9627000D02*
D03*
X9577000D02*
D03*
X9790500Y4125300D02*
D03*
X9740500D02*
D03*
X9690500D02*
D03*
X9640500D02*
D03*
Y3977300D02*
D03*
X9690500D02*
D03*
X9790500D02*
D03*
X9740500D02*
D03*
D12*
X8686800Y4610100D02*
D03*
D13*
X8786800Y4440100D02*
D03*
X8736800D02*
D03*
X8686800D02*
D03*
X8636800D02*
D03*
X8586800D02*
D03*
Y4780100D02*
D03*
X8636800D02*
D03*
X8686800D02*
D03*
X8736800D02*
D03*
X8786800D02*
D03*
D14*
X8516800Y4535100D02*
D03*
Y4685100D02*
D03*
X8856800D02*
D03*
Y4535100D02*
D03*
D15*
X8498840Y5060800D02*
D03*
Y5200800D02*
D03*
X8803640D02*
D03*
Y5060800D02*
D03*
D16*
X9499600Y4678900D02*
D03*
Y4388900D02*
D03*
D17*
X10540000Y8864600D02*
D03*
Y8737600D02*
D03*
Y8610600D02*
D03*
Y8483600D02*
D03*
Y8356600D02*
D03*
Y8229600D02*
D03*
Y8102600D02*
D03*
Y7975600D02*
D03*
Y7848600D02*
D03*
Y7721600D02*
D03*
Y7594600D02*
D03*
Y7467600D02*
D03*
Y7340600D02*
D03*
Y7213600D02*
D03*
Y7086600D02*
D03*
Y6959600D02*
D03*
Y6832600D02*
D03*
Y6705600D02*
D03*
Y6578600D02*
D03*
Y6451600D02*
D03*
Y6324600D02*
D03*
Y6197600D02*
D03*
Y6070600D02*
D03*
X10413000Y8864600D02*
D03*
Y8737600D02*
D03*
Y8610600D02*
D03*
Y8483600D02*
D03*
Y8356600D02*
D03*
Y8229600D02*
D03*
Y8102600D02*
D03*
Y7975600D02*
D03*
Y7848600D02*
D03*
Y7721600D02*
D03*
Y7594600D02*
D03*
Y7467600D02*
D03*
Y7340600D02*
D03*
Y7213600D02*
D03*
Y7086600D02*
D03*
Y6959600D02*
D03*
Y6832600D02*
D03*
Y6705600D02*
D03*
Y6578600D02*
D03*
Y6451600D02*
D03*
Y6324600D02*
D03*
Y6197600D02*
D03*
Y6070600D02*
D03*
X10286000Y8864600D02*
D03*
Y8737600D02*
D03*
Y8610600D02*
D03*
Y8483600D02*
D03*
Y8356600D02*
D03*
Y8229600D02*
D03*
Y8102600D02*
D03*
Y7975600D02*
D03*
Y7848600D02*
D03*
Y7721600D02*
D03*
Y7594600D02*
D03*
Y7467600D02*
D03*
Y7340600D02*
D03*
Y7213600D02*
D03*
Y7086600D02*
D03*
Y6959600D02*
D03*
Y6832600D02*
D03*
Y6705600D02*
D03*
Y6578600D02*
D03*
Y6451600D02*
D03*
Y6324600D02*
D03*
Y6197600D02*
D03*
Y6070600D02*
D03*
X10159000Y8864600D02*
D03*
Y8737600D02*
D03*
Y8610600D02*
D03*
Y6324600D02*
D03*
Y6197600D02*
D03*
Y6070600D02*
D03*
X10032000Y8864600D02*
D03*
Y8737600D02*
D03*
Y8610600D02*
D03*
Y6324600D02*
D03*
Y6197600D02*
D03*
Y6070600D02*
D03*
X9905000Y8864600D02*
D03*
Y8737600D02*
D03*
Y8610600D02*
D03*
Y6324600D02*
D03*
Y6197600D02*
D03*
Y6070600D02*
D03*
X9778000Y8864600D02*
D03*
Y8737600D02*
D03*
Y8610600D02*
D03*
Y6324600D02*
D03*
Y6197600D02*
D03*
Y6070600D02*
D03*
X9651000Y8864600D02*
D03*
Y8737600D02*
D03*
Y8610600D02*
D03*
Y6324600D02*
D03*
Y6197600D02*
D03*
Y6070600D02*
D03*
X9524000Y8864600D02*
D03*
Y8737600D02*
D03*
Y8610600D02*
D03*
Y6324600D02*
D03*
Y6197600D02*
D03*
Y6070600D02*
D03*
X9397000Y8864600D02*
D03*
Y8737600D02*
D03*
Y8610600D02*
D03*
Y6324600D02*
D03*
Y6197600D02*
D03*
Y6070600D02*
D03*
X9270000Y8864600D02*
D03*
Y8737600D02*
D03*
Y8610600D02*
D03*
Y6324600D02*
D03*
Y6197600D02*
D03*
Y6070600D02*
D03*
X9143000Y8864600D02*
D03*
Y8737600D02*
D03*
Y8610600D02*
D03*
Y6324600D02*
D03*
Y6197600D02*
D03*
Y6070600D02*
D03*
X9016000Y8864600D02*
D03*
Y8737600D02*
D03*
Y8610600D02*
D03*
Y6324600D02*
D03*
Y6197600D02*
D03*
Y6070600D02*
D03*
X8889000Y8864600D02*
D03*
Y8737600D02*
D03*
Y8610600D02*
D03*
Y6324600D02*
D03*
Y6197600D02*
D03*
Y6070600D02*
D03*
X8762000Y8864600D02*
D03*
Y8737600D02*
D03*
Y8610600D02*
D03*
Y6324600D02*
D03*
Y6197600D02*
D03*
Y6070600D02*
D03*
X8635000Y8864600D02*
D03*
Y8737600D02*
D03*
Y8610600D02*
D03*
Y6324600D02*
D03*
Y6197600D02*
D03*
Y6070600D02*
D03*
X8508000Y8864600D02*
D03*
Y8737600D02*
D03*
Y8610600D02*
D03*
Y6324600D02*
D03*
Y6197600D02*
D03*
Y6070600D02*
D03*
X8381000Y8864600D02*
D03*
Y8737600D02*
D03*
Y8610600D02*
D03*
Y6324600D02*
D03*
Y6197600D02*
D03*
Y6070600D02*
D03*
X8254000Y8864600D02*
D03*
Y8737600D02*
D03*
Y8610600D02*
D03*
Y6324600D02*
D03*
Y6197600D02*
D03*
Y6070600D02*
D03*
X8127000Y8864600D02*
D03*
Y8737600D02*
D03*
Y8610600D02*
D03*
Y6324600D02*
D03*
Y6197600D02*
D03*
Y6070600D02*
D03*
X8000000Y8864600D02*
D03*
Y8737600D02*
D03*
Y8610600D02*
D03*
Y8483600D02*
D03*
Y8356600D02*
D03*
Y8229600D02*
D03*
Y8102600D02*
D03*
Y7975600D02*
D03*
Y7848600D02*
D03*
Y7721600D02*
D03*
Y7594600D02*
D03*
Y7467600D02*
D03*
Y7340600D02*
D03*
Y7213600D02*
D03*
Y7086600D02*
D03*
Y6959600D02*
D03*
Y6832600D02*
D03*
Y6705600D02*
D03*
Y6578600D02*
D03*
Y6451600D02*
D03*
Y6324600D02*
D03*
Y6197600D02*
D03*
Y6070600D02*
D03*
X7873000Y8864600D02*
D03*
Y8737600D02*
D03*
Y8610600D02*
D03*
Y8483600D02*
D03*
Y8356600D02*
D03*
Y8229600D02*
D03*
Y8102600D02*
D03*
Y7975600D02*
D03*
Y7848600D02*
D03*
Y7721600D02*
D03*
Y7594600D02*
D03*
Y7467600D02*
D03*
Y7340600D02*
D03*
Y7213600D02*
D03*
Y7086600D02*
D03*
Y6959600D02*
D03*
Y6832600D02*
D03*
Y6705600D02*
D03*
Y6578600D02*
D03*
Y6451600D02*
D03*
Y6324600D02*
D03*
Y6197600D02*
D03*
Y6070600D02*
D03*
X7746000Y8864600D02*
D03*
Y8737600D02*
D03*
Y8610600D02*
D03*
Y8483600D02*
D03*
Y8356600D02*
D03*
Y8229600D02*
D03*
Y8102600D02*
D03*
Y7975600D02*
D03*
Y7848600D02*
D03*
Y7721600D02*
D03*
Y7594600D02*
D03*
Y7467600D02*
D03*
Y7340600D02*
D03*
Y7213600D02*
D03*
Y7086600D02*
D03*
Y6959600D02*
D03*
Y6832600D02*
D03*
Y6705600D02*
D03*
Y6578600D02*
D03*
Y6451600D02*
D03*
Y6324600D02*
D03*
Y6197600D02*
D03*
D18*
X8381480Y9138920D02*
D03*
X8316480D02*
D03*
D19*
X10067280Y9103360D02*
D03*
X9907280D02*
D03*
X10671800D02*
D03*
X10511800D02*
D03*
D20*
X10299700Y9169380D02*
D03*
Y9103380D02*
D03*
D21*
X8498840Y5528300D02*
D03*
Y5368300D02*
D03*
X8803640D02*
D03*
Y5528300D02*
D03*
X8956040Y4685040D02*
D03*
Y4845040D02*
D03*
X8684260Y5060960D02*
D03*
Y5220960D02*
D03*
X9728200Y5401300D02*
D03*
Y5241300D02*
D03*
X9601200D02*
D03*
Y5401300D02*
D03*
X9817100Y4575800D02*
D03*
Y4415800D02*
D03*
X9918700Y3674100D02*
D03*
Y3514100D02*
D03*
D22*
X9217800Y3496900D02*
D03*
Y3646900D02*
D03*
Y3696900D02*
D03*
Y3746900D02*
D03*
Y3796900D02*
D03*
Y3846900D02*
D03*
Y3896900D02*
D03*
Y4046900D02*
D03*
X9044800D02*
D03*
Y3896900D02*
D03*
Y3846900D02*
D03*
Y3796900D02*
D03*
Y3746900D02*
D03*
Y3696900D02*
D03*
Y3646900D02*
D03*
Y3496900D02*
D03*
D23*
X9241700Y5118100D02*
D03*
X9071700D02*
D03*
D24*
X9236700Y5308600D02*
D03*
X9076700D02*
D03*
X9617700Y3289300D02*
D03*
X9457700D02*
D03*
X8677900Y3441700D02*
D03*
X8517900D02*
D03*
D25*
X9474200Y5252300D02*
D03*
Y5390300D02*
D03*
D34*
X9131300Y4146900D02*
D03*
D35*
Y3396900D02*
D03*
D36*
X9346300Y3531900D02*
D03*
Y4011900D02*
D03*
X8916300D02*
D03*
Y3531900D02*
D03*
D37*
X8382000Y9410700D02*
D03*
X8255000Y9537700D02*
D03*
Y9283700D02*
D03*
X8509000D02*
D03*
Y9537700D02*
D03*
X9906000Y9410700D02*
D03*
X9779000Y9537700D02*
D03*
Y9283700D02*
D03*
X10033000D02*
D03*
Y9537700D02*
D03*
D38*
X10285999Y4699000D02*
D03*
Y4445000D02*
D03*
Y4191000D02*
D03*
Y3937000D02*
D03*
Y3683000D02*
D03*
Y3429000D02*
D03*
Y3175000D02*
D03*
X7999999Y4699000D02*
D03*
Y4445000D02*
D03*
Y4191000D02*
D03*
Y3937000D02*
D03*
Y3683000D02*
D03*
Y3429000D02*
D03*
Y3175000D02*
D03*
D39*
X10285999Y2921000D02*
D03*
X7999999D02*
D03*
D40*
X10286000Y5080000D02*
D03*
Y5334000D02*
D03*
X10287000Y5588000D02*
D03*
D41*
X8892540Y5651500D02*
D03*
X8577580Y5852160D02*
D03*
D42*
X9537700Y4127500D02*
D03*
X7586980Y6497320D02*
D03*
X7658100Y6604000D02*
D03*
X8280400Y8140700D02*
D03*
Y8318500D02*
D03*
X7594600Y6680200D02*
D03*
X7556500Y6593840D02*
D03*
X9410700Y3721100D02*
D03*
X9461500Y3797300D02*
D03*
X8763000Y3962400D02*
D03*
X8590280Y9161780D02*
D03*
X9359900Y4165600D02*
D03*
X9824720Y3322320D02*
D03*
X9161780Y5552440D02*
D03*
X8293100Y6832600D02*
D03*
X10633489Y8413403D02*
D03*
X7810500Y6261100D02*
D03*
X7818784Y8047384D02*
D03*
X7944784D02*
D03*
X8953500Y8928100D02*
D03*
X9334500Y8674100D02*
D03*
X9327650Y8801100D02*
D03*
X9213350Y8788400D02*
D03*
X10464300Y8026400D02*
D03*
X10353425Y6375400D02*
D03*
X9588500Y8674100D02*
D03*
X9461500Y8801100D02*
D03*
X9715500Y8928100D02*
D03*
X9829800Y8953500D02*
D03*
X8064500Y8801100D02*
D03*
X7937500D02*
D03*
Y7023100D02*
D03*
X9330497Y6258413D02*
D03*
X9461000Y6134100D02*
D03*
X10604500Y7912100D02*
D03*
X10637469Y8560756D02*
D03*
X9983156Y8961069D02*
D03*
X8249920Y9057640D02*
D03*
X9080500Y9169400D02*
D03*
X9258300D02*
D03*
X9436100D02*
D03*
X9652000D02*
D03*
X9753600Y9017000D02*
D03*
X9512300D02*
D03*
X9321800D02*
D03*
X9144000D02*
D03*
X8902700D02*
D03*
X8638540Y9019540D02*
D03*
X8448040Y9004300D02*
D03*
X8849360Y9161780D02*
D03*
X10706100Y8712200D02*
D03*
Y8877300D02*
D03*
X10419080Y9227820D02*
D03*
X10325100Y9334500D02*
D03*
X10172700D02*
D03*
Y9486900D02*
D03*
X10350500D02*
D03*
X10523220Y9354820D02*
D03*
X10655300Y9222740D02*
D03*
X10845800Y9029700D02*
D03*
X10858500Y8826500D02*
D03*
Y8636000D02*
D03*
X10820400Y8470900D02*
D03*
X9906000Y4165600D02*
D03*
X8839200Y3771900D02*
D03*
X7810500Y6388100D02*
D03*
Y6515100D02*
D03*
X7937500Y6896100D02*
D03*
X7810500Y6643100D02*
D03*
X7658100Y6744700D02*
D03*
X7810500Y6895600D02*
D03*
Y7658100D02*
D03*
X7937500Y7785600D02*
D03*
Y7912100D02*
D03*
X7810500Y7785100D02*
D03*
X7809500Y7912100D02*
D03*
X7683500Y8039600D02*
D03*
X7810500Y8674100D02*
D03*
X7810000Y8801100D02*
D03*
Y8928100D02*
D03*
X7937000Y8674100D02*
D03*
X8055867Y8933219D02*
D03*
X8064500Y8674100D02*
D03*
X8191500D02*
D03*
Y8801100D02*
D03*
Y8927600D02*
D03*
X8318500D02*
D03*
Y8800600D02*
D03*
Y8673600D02*
D03*
X8445500Y8674100D02*
D03*
Y8801350D02*
D03*
X8572500Y8928100D02*
D03*
Y8801100D02*
D03*
Y8674100D02*
D03*
X8699500D02*
D03*
Y8801100D02*
D03*
Y8927600D02*
D03*
X8826500Y8928100D02*
D03*
Y8801100D02*
D03*
Y8674100D02*
D03*
X9080500D02*
D03*
X8953500D02*
D03*
Y8800600D02*
D03*
X9080500Y8801100D02*
D03*
X9207500Y8674100D02*
D03*
X9588500Y8801100D02*
D03*
X9715500Y8674100D02*
D03*
Y8801100D02*
D03*
X9842500D02*
D03*
Y8674100D02*
D03*
X9969500Y8673850D02*
D03*
X9969000Y8801100D02*
D03*
X10096500Y8928100D02*
D03*
Y8801100D02*
D03*
Y8674100D02*
D03*
X10223000Y8801100D02*
D03*
X10223500Y8928100D02*
D03*
X10350500Y8801100D02*
D03*
Y8928100D02*
D03*
Y8674100D02*
D03*
X10219728Y8679365D02*
D03*
X10350500Y8547100D02*
D03*
X10477000Y8674100D02*
D03*
X10477500Y8801600D02*
D03*
X10604000Y8674100D02*
D03*
X10477000Y8547100D02*
D03*
X10350500Y8420100D02*
D03*
X10350000Y8293100D02*
D03*
X10477000Y8420100D02*
D03*
X10604000Y8293100D02*
D03*
X10477000D02*
D03*
X10350000Y8166100D02*
D03*
X10477500D02*
D03*
X10350000Y8039100D02*
D03*
X10350000Y7912100D02*
D03*
X10477500D02*
D03*
Y7785100D02*
D03*
X10350000D02*
D03*
Y7658100D02*
D03*
X10477500D02*
D03*
Y7531100D02*
D03*
X10477000Y7023100D02*
D03*
X10477000Y6896100D02*
D03*
Y6769100D02*
D03*
Y6642100D02*
D03*
Y6515100D02*
D03*
X10477500Y6261100D02*
D03*
X10223500Y6134100D02*
D03*
X9842500D02*
D03*
X8826500Y6134600D02*
D03*
X8191000Y6261100D02*
D03*
X8318500Y6134100D02*
D03*
X8572500D02*
D03*
X9461500Y6261100D02*
D03*
X9334500Y6134100D02*
D03*
X9436100Y4203700D02*
D03*
X7594600Y6896100D02*
D03*
X9617700Y3399800D02*
D03*
X8775700Y3860800D02*
D03*
Y3683000D02*
D03*
X9334500Y3759200D02*
D03*
D43*
X9923780Y3312160D02*
D03*
X9076700Y5473700D02*
D03*
X9321800Y3289300D02*
D03*
X8686800Y3581400D02*
D03*
X9550400Y4013200D02*
D03*
X8331200Y8229600D02*
D03*
%TF.MD5,3cba1397a0c2819cfff070bfabe96b93*%
M02*
